<?xml version="1.0" encoding="utf-8"?>
<!-- Generator: Adobe Illustrator 26.0.3, SVG Export Plug-In . SVG Version: 6.00 Build 0)  -->
<svg version="1.1" xmlns="http://www.w3.org/2000/svg" xmlns:xlink="http://www.w3.org/1999/xlink" x="0px" y="0px"
	 viewBox="0 0 90 86.07" style="enable-background:new 0 0 90 86.07;" xml:space="preserve">
<style type="text/css">
	.st0{fill:#E5E5E5;}
	.st1{clip-path:url(#SVGID_00000082354792078926252800000009312452505828566948_);fill:#FFFFFF;}
	.st2{fill:none;}
	.st3{fill:#FFFFFF;stroke:#FFFFFF;stroke-width:2.126;stroke-miterlimit:10;}
	.st4{fill:#333333;}
	.st5{fill:none;stroke:#C52F23;stroke-width:1.4173;stroke-miterlimit:10;}
</style>
<g id="HG_grau">
</g>
<g id="bg">
	<g>
		<path class="st0" d="M87,86.07H3c-1.66,0-3-1.34-3-3v-80c0-1.66,1.34-3,3-3h84c1.66,0,3,1.34,3,3v80
			C90,84.73,88.66,86.07,87,86.07z"/>
		<g>
			<defs>
				<path id="SVGID_1_" d="M87,86.07H3c-1.66,0-3-1.34-3-3v-80c0-1.66,1.34-3,3-3h84c1.66,0,3,1.34,3,3v80
					C90,84.73,88.66,86.07,87,86.07z"/>
			</defs>
			<clipPath id="SVGID_00000147194313855375659280000013475030645282728889_">
				<use xlink:href="#SVGID_1_"  style="overflow:visible;"/>
			</clipPath>
			<path style="clip-path:url(#SVGID_00000147194313855375659280000013475030645282728889_);fill:#FFFFFF;" d="M0.87,19.62
				c-64.8-38.95,30.33-69.32,57.32-61.26s28.52-15.3,39.23,19.12S79.06,4.92,101.24,25.4s36.72,30.87,8.41,47.7
				s-82.13-0.76-59.81-21.42S13.7,27.34,0.87,19.62z"/>
		</g>
	</g>
</g>
<g id="Ebene_1">
</g>
<g id="text">
	<g>
		<path class="st2" d="M44.94,29.79c-2.11,0-3.82-1.72-3.82-3.82s1.71-3.83,3.82-3.83c2.1,0,3.82,1.72,3.82,3.83
			S47.04,29.79,44.94,29.79z"/>
		<path class="st2" d="M37.67,55.57l-0.46,1.72l-0.03,0.18c0,0,0,0.01,0,0.01c0,0.02,0,0.04,0,0.07c-0.11,1.07,0.9,2.06,2.26,1.59
			c0.56-0.19,0.97-0.69,1.13-1.27l3.29-10.43l0.98-2.85c0.03-0.09,0.16-0.09,0.19,0l4.4,13.67c0,0,0,0.01,0.01,0.02
			c0.42,1.02,1.8,1.42,2.79,0.31c0.39-0.43,0.51-1.05,0.36-1.61l-3.41-14.93c0,0,0-0.01,0-0.02l-0.58-8.45l0.29,0.67l0.58,1.35
			l0.02,0.05l0.43,1.03l0.33,0.78l0.39,0.91l0.57,1.33l0.95,2.25l0.27,0.62l0.3,0.69c0,0.01,0,0.01,0,0.01
			c0.21,0.37,0.56,0.65,1.03,0.63c0.14-0.01,0.28-0.04,0.44-0.09c0.01,0,0.02,0,0.03-0.01c0.38-0.17,0.6-0.43,0.68-0.71
			c0.07-0.24,0.05-0.5-0.01-0.74v-0.01c0,0-4.72-11.15-4.75-11.2c-0.4-0.84-1.04-1.46-1.84-1.97c-0.04-0.03-0.09-0.02-0.12,0.01
			c-0.83,0.83-1.97,1.34-3.22,1.34c-1.26,0-2.4-0.51-3.23-1.34c-0.03-0.03-0.08-0.04-0.12-0.01c-0.8,0.51-1.44,1.13-1.85,1.97
			c0,0.01-0.25,0.58-0.62,1.45c-0.05,0.11-0.1,0.23-0.15,0.35c-0.07,0.17-0.15,0.35-0.22,0.53c-0.11,0.25-0.22,0.52-0.34,0.79
			c-0.88,2.08-2,4.72-2.72,6.41c-0.41,1-0.7,1.66-0.7,1.66s0,0.01-0.01,0.01c-0.13,0.54-0.04,1.15,0.67,1.45
			c0.02,0.01,0.04,0.01,0.04,0.01c0.69,0.27,1.18-0.07,1.46-0.54c0,0,0.01,0,0.01-0.01l3.54-8.34l0.2-0.47l0.15-0.36l0.23-0.53
			l-0.58,8.49L37.67,55.57z"/>
	</g>
	<path class="st3" d="M44.89,68.63c-14.97,0-27.15-12.18-27.15-27.15c0-14.97,12.18-27.15,27.15-27.15s27.15,12.18,27.15,27.15
		C72.04,56.45,59.86,68.63,44.89,68.63z"/>
	
		<ellipse transform="matrix(0.9871 -0.1602 0.1602 0.9871 -6.0655 7.7268)" class="st0" cx="44.89" cy="41.49" rx="25.6" ry="25.6"/>
	<g>
		<path class="st3" d="M44.94,22.14c2.1,0,3.82,1.72,3.82,3.83s-1.72,3.82-3.82,3.82c-2.11,0-3.82-1.72-3.82-3.82
			S42.82,22.14,44.94,22.14z"/>
		<path class="st3" d="M54.88,43.1c-0.08,0.28-0.29,0.54-0.68,0.71c-0.01,0.01-0.02,0.01-0.03,0.01c-0.16,0.06-0.3,0.08-0.44,0.09
			c-0.47,0.02-0.81-0.26-1.03-0.63c0,0,0,0,0-0.01l-0.3-0.69l-0.27-0.62l-0.95-2.25l-0.57-1.33l-0.39-0.91l-0.33-0.78l-0.43-1.03
			l-0.02-0.05l-0.58-1.35l-0.29-0.67l0.58,8.45c0,0.01,0,0.01,0,0.02l3.41,14.93c0.15,0.56,0.03,1.18-0.36,1.61
			c-0.99,1.11-2.37,0.71-2.79-0.31c0-0.01,0-0.02-0.01-0.02l-4.4-13.67c-0.03-0.09-0.16-0.09-0.19,0l-0.98,2.85l-3.29,10.43
			c-0.15,0.58-0.56,1.08-1.13,1.27c-1.36,0.46-2.37-0.53-2.26-1.59c0-0.03,0-0.05,0-0.07c0,0,0-0.01,0-0.01l0.03-0.18l0.46-1.72
			l3.04-13.52l0.58-8.49l-0.23,0.53l-0.15,0.36l-0.2,0.47l-3.54,8.34c0,0.01-0.01,0.01-0.01,0.01c-0.28,0.47-0.78,0.81-1.46,0.54
			c0,0-0.02,0-0.04-0.01c-0.7-0.3-0.8-0.91-0.67-1.45c0.01,0,0.01-0.01,0.01-0.01s0.29-0.67,0.7-1.66c0.72-1.69,1.84-4.33,2.72-6.41
			c0.12-0.28,0.23-0.54,0.34-0.79c0.08-0.18,0.15-0.36,0.22-0.53c0.05-0.12,0.1-0.24,0.15-0.35c0.37-0.87,0.61-1.44,0.62-1.45
			c0.41-0.84,1.05-1.46,1.85-1.97c0.04-0.03,0.09-0.02,0.12,0.01c0.83,0.83,1.97,1.34,3.23,1.34c1.26,0,2.4-0.51,3.22-1.34
			c0.03-0.03,0.08-0.04,0.12-0.01c0.8,0.51,1.44,1.13,1.84,1.97c0.03,0.06,4.75,11.2,4.75,11.2v0.01
			C54.94,42.6,54.95,42.86,54.88,43.1z"/>
	</g>
	<g>
		<path class="st4" d="M44.94,22.14c2.1,0,3.82,1.72,3.82,3.83s-1.72,3.82-3.82,3.82c-2.11,0-3.82-1.72-3.82-3.82
			S42.82,22.14,44.94,22.14z"/>
		<path class="st4" d="M54.88,43.1c-0.08,0.28-0.29,0.54-0.68,0.71c-0.01,0.01-0.02,0.01-0.03,0.01c-0.16,0.06-0.3,0.08-0.44,0.09
			c-0.47,0.02-0.81-0.26-1.03-0.63c0,0,0,0,0-0.01l-0.3-0.69l-0.27-0.62l-0.95-2.25l-0.57-1.33l-0.39-0.91l-0.33-0.78l-0.43-1.03
			l-0.02-0.05l-0.58-1.35l-0.29-0.67l0.58,8.45c0,0.01,0,0.01,0,0.02l3.41,14.93c0.15,0.56,0.03,1.18-0.36,1.61
			c-0.99,1.11-2.37,0.71-2.79-0.31c0-0.01,0-0.02-0.01-0.02l-4.4-13.67c-0.03-0.09-0.16-0.09-0.19,0l-0.98,2.85l-3.29,10.43
			c-0.15,0.58-0.56,1.08-1.13,1.27c-1.36,0.46-2.37-0.53-2.26-1.59c0-0.03,0-0.05,0-0.07c0,0,0-0.01,0-0.01l0.03-0.18l0.46-1.72
			l3.04-13.52l0.58-8.49l-0.23,0.53l-0.15,0.36l-0.2,0.47l-3.54,8.34c0,0.01-0.01,0.01-0.01,0.01c-0.28,0.47-0.78,0.81-1.46,0.54
			c0,0-0.02,0-0.04-0.01c-0.7-0.3-0.8-0.91-0.67-1.45c0.01,0,0.01-0.01,0.01-0.01s0.29-0.67,0.7-1.66c0.72-1.69,1.84-4.33,2.72-6.41
			c0.12-0.28,0.23-0.54,0.34-0.79c0.08-0.18,0.15-0.36,0.22-0.53c0.05-0.12,0.1-0.24,0.15-0.35c0.37-0.87,0.61-1.44,0.62-1.45
			c0.41-0.84,1.05-1.46,1.85-1.97c0.04-0.03,0.09-0.02,0.12,0.01c0.83,0.83,1.97,1.34,3.23,1.34c1.26,0,2.4-0.51,3.22-1.34
			c0.03-0.03,0.08-0.04,0.12-0.01c0.8,0.51,1.44,1.13,1.84,1.97c0.03,0.06,4.75,11.2,4.75,11.2v0.01
			C54.94,42.6,54.95,42.86,54.88,43.1z"/>
	</g>
	<path class="st5" d="M44.89,13.35c-15.52,0-28.14,12.62-28.14,28.14s12.62,28.14,28.14,28.14S73.03,57,73.03,41.49
		S60.41,13.35,44.89,13.35z"/>
</g>
</svg>
