<?xml version="1.0" encoding="UTF-8"?>
<svg id="Ebene_1" xmlns="http://www.w3.org/2000/svg" version="1.1" viewBox="0 0 500.72 102.56">
  <!-- Generator: Adobe Illustrator 30.0.0, SVG Export Plug-In . SVG Version: 2.1.1 Build 123)  -->
  <defs>
    <style>
      .st0 {
        stroke-width: 4px;
      }

      .st0, .st1 {
        fill: #fff;
      }

      .st0, .st2 {
        stroke: #728cd7;
        stroke-linejoin: round;
      }

      .st0, .st2, .st3 {
        stroke-linecap: round;
      }

      .st2 {
        stroke-width: 6px;
      }

      .st2, .st3 {
        fill: none;
      }

      .st3 {
        stroke: #ccc;
        stroke-miterlimit: 10;
        stroke-width: 3px;
      }

      .st4 {
        fill: #1d1d1b;
      }

      .st5 {
        fill: #e20613;
      }
    </style>
  </defs>
  <g>
    <g>
      <path class="st4" d="M74.81,23.61c.67.43,1.46.67,2.53.67,1.41,0,2.58-.72,2.58-2.35,0-2.25-5.26-2.53-5.26-5.54,0-1.84,1.61-2.99,3.63-2.99.56,0,1.46.08,2.25.38l-.18,1.04c-.51-.28-1.32-.43-2.09-.43-1.18,0-2.48.49-2.48,1.97,0,2.3,5.26,2.32,5.26,5.67,0,2.32-1.99,3.24-3.76,3.24-1.12,0-1.99-.23-2.6-.49,0,0,.12-1.17.12-1.17Z"/>
      <path class="st4" d="M89.96,17.8c-.56-.25-1.23-.43-1.79-.43-2.02,0-3.16,1.46-3.16,3.5,0,1.91,1.15,3.5,3.04,3.5.66,0,1.27-.15,1.89-.38l.1.97c-.71.25-1.36.3-2.15.3-2.7,0-4.01-2.05-4.01-4.39,0-2.58,1.66-4.39,4.14-4.39,1,0,1.73.23,2.02.33l-.08.99h0Z"/>
      <path class="st4" d="M93.09,12.74h1.04v5.36h.03c.44-.92,1.38-1.61,2.61-1.61,2.25,0,2.86,1.5,2.86,3.57v5.01h-1.04v-5c0-1.45-.28-2.7-1.99-2.7-1.84,0-2.48,1.74-2.48,3.21v4.49h-1.04v-12.33s.01,0,.01,0Z"/>
      <path class="st4" d="M112.12,25.07h-1.25l-2.28-7.25h-.03l-2.28,7.25h-1.25l-2.69-8.38h1.13l2.2,7.25h.03l2.33-7.25h1.25l2.22,7.25h.03l2.32-7.25h1.04l-2.76,8.38h0Z"/>
      <path class="st4" d="M123.2,24.81c-.72.3-1.66.46-2.43.46-2.78,0-3.81-1.87-3.81-4.39s1.41-4.39,3.53-4.39c2.37,0,3.34,1.91,3.34,4.16v.53h-5.74c0,1.78.95,3.21,2.76,3.21.76,0,1.86-.31,2.35-.62v1.05h0ZM122.69,20.29c0-1.46-.59-2.91-2.14-2.91s-2.47,1.53-2.47,2.91h4.61Z"/>
      <path class="st4" d="M128.11,14.45h-1.04v-1.38h1.04v1.38ZM127.08,16.69h1.04v8.38h-1.04s0-8.38,0-8.38Z"/>
      <path class="st4" d="M131.23,24.2l5.05-6.62h-4.85v-.89h6.05v.89l-5.05,6.61h5.05v.89h-6.24v-.87h0Z"/>
      <path class="st4" d="M146.21,24.81c-.72.3-1.66.46-2.43.46-2.78,0-3.81-1.87-3.81-4.39s1.41-4.39,3.53-4.39c2.37,0,3.34,1.91,3.34,4.16v.53h-5.74c0,1.78.95,3.21,2.76,3.21.76,0,1.86-.31,2.35-.62v1.05h0ZM145.7,20.29c0-1.46-.59-2.91-2.14-2.91s-2.47,1.53-2.47,2.91h4.61Z"/>
      <path class="st4" d="M150.09,18.56c0-.92,0-1.27-.07-1.87h1.04v1.61h.03c.38-.94,1.09-1.81,2.15-1.81.25,0,.54.05.72.1v1.09c-.21-.07-.49-.1-.76-.1-1.64,0-2.09,1.84-2.09,3.35v4.14h-1.04v-6.51h.02Z"/>
      <path class="st4" d="M157.88,14.45h-1.04v-1.38h1.04v1.38ZM156.84,16.69h1.04v8.38h-1.04s0-8.38,0-8.38Z"/>
      <path class="st4" d="M161.13,23.85c.62.31,1.38.53,2.19.53.99,0,1.86-.54,1.86-1.5,0-1.99-4.03-1.68-4.03-4.11,0-1.66,1.35-2.28,2.73-2.28.44,0,1.33.1,2.07.38l-.1.9c-.54-.25-1.28-.39-1.86-.39-1.07,0-1.81.33-1.81,1.4,0,1.56,4.13,1.36,4.13,4.11,0,1.78-1.66,2.38-2.93,2.38-.81,0-1.61-.1-2.35-.39l.1-1.02h0Z"/>
      <path class="st4" d="M174.9,17.8c-.56-.25-1.23-.43-1.79-.43-2.02,0-3.16,1.46-3.16,3.5,0,1.91,1.15,3.5,3.04,3.5.66,0,1.27-.15,1.89-.38l.1.97c-.71.25-1.36.3-2.15.3-2.7,0-4.01-2.05-4.01-4.39,0-2.58,1.66-4.39,4.14-4.39,1,0,1.73.23,2.02.33l-.08.99h0Z"/>
      <path class="st4" d="M178.03,12.74h1.04v5.36h.03c.44-.92,1.38-1.61,2.61-1.61,2.25,0,2.86,1.5,2.86,3.57v5.01h-1.04v-5c0-1.45-.28-2.7-1.99-2.7-1.84,0-2.48,1.74-2.48,3.21v4.49h-1.04v-12.33h0Z"/>
      <path class="st4" d="M194.07,24.81c-.72.3-1.66.46-2.43.46-2.78,0-3.81-1.87-3.81-4.39s1.41-4.39,3.53-4.39c2.37,0,3.34,1.91,3.34,4.16v.53h-5.74c0,1.78.95,3.21,2.76,3.21.76,0,1.86-.31,2.35-.62v1.05h0ZM193.56,20.29c0-1.46-.59-2.91-2.14-2.91s-2.47,1.53-2.47,2.91h4.61Z"/>
      <path class="st4" d="M203.42,13.6h5.62v.99h-4.49v4.09h4.26v.99h-4.26v4.42h4.68v.99h-5.82v-11.47h.01Z"/>
      <path class="st4" d="M213.84,14.45h-1.04v-1.38h1.04v1.38ZM212.8,16.69h1.04v8.38h-1.04s0-8.38,0-8.38Z"/>
      <path class="st4" d="M224.37,25.07h-1.04v-1.33h-.03c-.56,1.07-1.41,1.53-2.61,1.53-2.3,0-3.45-1.91-3.45-4.39s.99-4.39,3.45-4.39c1.64,0,2.47,1.2,2.61,1.61h.03v-5.36h1.04s0,12.33,0,12.33ZM220.86,24.38c1.84,0,2.48-1.97,2.48-3.5s-.64-3.5-2.48-3.5c-1.97,0-2.48,1.87-2.48,3.5s.51,3.5,2.48,3.5Z"/>
      <path class="st4" d="M234.79,24.38c0,2.33-1.05,4.24-3.93,4.24-1.1,0-2.1-.31-2.53-.44l.08-1.04c.64.33,1.56.59,2.47.59,2.66,0,2.89-1.94,2.89-4.31h-.03c-.56,1.22-1.48,1.64-2.55,1.64-2.68,0-3.53-2.33-3.53-4.19,0-2.55.99-4.39,3.45-4.39,1.12,0,1.84.15,2.61,1.15h.03v-.95h1.04v7.69h0ZM231.21,24.18c1.87,0,2.55-1.78,2.55-3.3,0-2.02-.59-3.5-2.48-3.5s-2.48,1.87-2.48,3.5.66,3.3,2.42,3.3h-.01Z"/>
      <path class="st4" d="M244.2,24.81c-.72.3-1.66.46-2.43.46-2.78,0-3.81-1.87-3.81-4.39s1.41-4.39,3.53-4.39c2.37,0,3.34,1.91,3.34,4.16v.53h-5.74c0,1.78.95,3.21,2.76,3.21.76,0,1.86-.31,2.35-.62v1.05h0ZM243.69,20.29c0-1.46-.59-2.91-2.14-2.91s-2.47,1.53-2.47,2.91h4.61Z"/>
      <path class="st4" d="M248.07,18.66c0-.64,0-1.3-.07-1.97h1v1.5h.03c.34-.76.97-1.69,2.71-1.69,2.07,0,2.86,1.38,2.86,3.22v5.36h-1.04v-5.1c0-1.58-.56-2.6-1.99-2.6-1.89,0-2.48,1.66-2.48,3.06v4.64h-1.04v-6.41h.02,0Z"/>
      <path class="st4" d="M261.77,16.49c2.71,0,3.91,2.1,3.91,4.39s-1.2,4.39-3.91,4.39-3.91-2.1-3.91-4.39,1.2-4.39,3.91-4.39ZM261.77,24.38c1.81,0,2.78-1.56,2.78-3.5s-.97-3.5-2.78-3.5-2.78,1.56-2.78,3.5.97,3.5,2.78,3.5Z"/>
      <path class="st4" d="M268.27,23.85c.62.31,1.38.53,2.19.53.99,0,1.86-.54,1.86-1.5,0-1.99-4.03-1.68-4.03-4.11,0-1.66,1.35-2.28,2.73-2.28.44,0,1.33.1,2.07.38l-.1.9c-.54-.25-1.28-.39-1.86-.39-1.07,0-1.81.33-1.81,1.4,0,1.56,4.13,1.36,4.13,4.11,0,1.78-1.66,2.38-2.93,2.38-.81,0-1.61-.1-2.35-.39l.1-1.02h0Z"/>
      <path class="st4" d="M275.95,23.85c.62.31,1.38.53,2.19.53.99,0,1.86-.54,1.86-1.5,0-1.99-4.03-1.68-4.03-4.11,0-1.66,1.35-2.28,2.73-2.28.44,0,1.33.1,2.07.38l-.1.9c-.54-.25-1.28-.39-1.86-.39-1.07,0-1.81.33-1.81,1.4,0,1.56,4.13,1.36,4.13,4.11,0,1.78-1.66,2.38-2.93,2.38-.81,0-1.61-.1-2.35-.39l.1-1.02h0Z"/>
      <path class="st4" d="M289.89,24.81c-.72.3-1.66.46-2.43.46-2.78,0-3.81-1.87-3.81-4.39s1.41-4.39,3.53-4.39c2.37,0,3.34,1.91,3.34,4.16v.53h-5.74c0,1.78.95,3.21,2.76,3.21.76,0,1.86-.31,2.35-.62v1.05h0ZM289.38,20.29c0-1.46-.59-2.91-2.14-2.91s-2.47,1.53-2.47,2.91h4.61Z"/>
      <path class="st4" d="M293.76,18.66c0-.64,0-1.3-.07-1.97h1v1.5h.03c.34-.76.97-1.69,2.71-1.69,2.07,0,2.86,1.38,2.86,3.22v5.36h-1.04v-5.1c0-1.58-.56-2.6-1.99-2.6-1.89,0-2.48,1.66-2.48,3.06v4.64h-1.04v-6.41h.02Z"/>
      <path class="st4" d="M303.54,23.85c.62.31,1.38.53,2.19.53.99,0,1.86-.54,1.86-1.5,0-1.99-4.03-1.68-4.03-4.11,0-1.66,1.35-2.28,2.73-2.28.44,0,1.33.1,2.07.38l-.1.9c-.54-.25-1.28-.39-1.86-.39-1.07,0-1.81.33-1.81,1.4,0,1.56,4.13,1.36,4.13,4.11,0,1.78-1.66,2.38-2.93,2.38-.81,0-1.61-.1-2.35-.39l.1-1.02h0Z"/>
      <path class="st4" d="M317.32,17.8c-.56-.25-1.23-.43-1.79-.43-2.02,0-3.16,1.46-3.16,3.5,0,1.91,1.15,3.5,3.04,3.5.66,0,1.27-.15,1.89-.38l.1.97c-.71.25-1.36.3-2.15.3-2.7,0-4.01-2.05-4.01-4.39,0-2.58,1.66-4.39,4.14-4.39,1,0,1.73.23,2.02.33l-.08.99h0Z"/>
      <path class="st4" d="M320.44,12.74h1.04v5.36h.03c.44-.92,1.38-1.61,2.61-1.61,2.25,0,2.86,1.5,2.86,3.57v5.01h-1.04v-5c0-1.45-.28-2.7-1.99-2.7-1.84,0-2.48,1.74-2.48,3.21v4.49h-1.04v-12.33h.01Z"/>
      <path class="st4" d="M335.68,23.72h-.03c-.46,1-1.63,1.54-2.66,1.54-2.38,0-2.76-1.61-2.76-2.37,0-2.81,2.99-2.94,5.16-2.94h.2v-.43c0-1.43-.51-2.15-1.91-2.15-.87,0-1.69.2-2.47.69v-1c.64-.31,1.73-.58,2.47-.58,2.07,0,2.94.94,2.94,3.12v3.7c0,.67,0,1.18.08,1.76h-1.02v-1.35h0ZM335.58,20.84h-.3c-1.79,0-3.93.18-3.93,2.02,0,1.1.79,1.51,1.74,1.51,2.43,0,2.48-2.12,2.48-3.02v-.51h0Z"/>
      <path class="st4" d="M341.07,17.57h-1.69v-.89h1.69v-.61c0-1.76.07-3.53,2.22-3.53.33,0,.77.05.97.16l-.07.9c-.21-.12-.53-.18-.82-.18-1.41,0-1.27,1.53-1.27,2.53v.72h1.89v.89h-1.89v7.5h-1.04v-7.5h.01Z"/>
      <path class="st4" d="M350.73,17.57h-1.91v5.42c0,.76.28,1.38,1.12,1.38.39,0,.66-.08.95-.2l.07.85c-.25.1-.76.23-1.27.23-1.84,0-1.91-1.27-1.91-2.79v-4.9h-1.64v-.89h1.64v-2.02l1.04-.36v2.38h1.91v.89h0Z"/>
      <path class="st4" d="M82.86,37.55c-.72-.38-1.76-.49-2.56-.49-2.97,0-4.65,2.1-4.65,4.95s1.63,4.95,4.65,4.95c.76,0,1.91-.1,2.56-.49l.07.99c-.62.38-1.91.49-2.63.49-3.62,0-5.78-2.38-5.78-5.93s2.24-5.93,5.78-5.93c.67,0,2.04.12,2.63.43l-.07,1.05v-.02Z"/>
      <path class="st4" d="M89.98,39.16c2.71,0,3.91,2.1,3.91,4.39s-1.2,4.39-3.91,4.39-3.91-2.1-3.91-4.39,1.2-4.39,3.91-4.39ZM89.98,47.05c1.81,0,2.78-1.56,2.78-3.5s-.97-3.5-2.78-3.5-2.78,1.56-2.78,3.5.97,3.5,2.78,3.5Z"/>
      <path class="st4" d="M97.13,41.33c0-.64,0-1.3-.07-1.97h1v1.5h.03c.34-.76.97-1.69,2.71-1.69,2.07,0,2.86,1.38,2.86,3.22v5.36h-1.04v-5.1c0-1.58-.56-2.6-1.99-2.6-1.89,0-2.48,1.66-2.48,3.06v4.64h-1.04v-6.41h.02Z"/>
      <path class="st4" d="M108.26,40.24h-1.69v-.89h1.69v-.61c0-1.76.07-3.53,2.22-3.53.33,0,.77.05.97.16l-.07.9c-.21-.12-.53-.18-.82-.18-1.41,0-1.27,1.53-1.27,2.53v.72h1.89v.89h-1.89v7.5h-1.04v-7.5h0Z"/>
      <path class="st4" d="M119.93,47.48c-.72.3-1.66.46-2.43.46-2.78,0-3.81-1.87-3.81-4.39s1.41-4.39,3.53-4.39c2.37,0,3.34,1.91,3.34,4.16v.53h-5.74c0,1.78.95,3.21,2.76,3.21.76,0,1.86-.31,2.35-.62v1.05h0ZM119.42,42.96c0-1.46-.59-2.91-2.14-2.91s-2.47,1.53-2.47,2.91h4.61ZM117.69,36.12h1.3l-2.07,2.37h-.76l1.53-2.37Z"/>
      <path class="st4" d="M130.45,47.74h-1.04v-1.33h-.03c-.56,1.07-1.41,1.53-2.61,1.53-2.3,0-3.45-1.91-3.45-4.39s.99-4.39,3.45-4.39c1.64,0,2.47,1.2,2.61,1.61h.03v-5.36h1.04v12.33ZM126.93,47.05c1.84,0,2.48-1.97,2.48-3.5s-.64-3.5-2.48-3.5c-1.97,0-2.48,1.87-2.48,3.5s.51,3.5,2.48,3.5Z"/>
      <path class="st4" d="M139.85,47.48c-.72.3-1.66.46-2.43.46-2.78,0-3.81-1.87-3.81-4.39s1.41-4.39,3.53-4.39c2.37,0,3.34,1.91,3.34,4.16v.53h-5.74c0,1.78.95,3.21,2.76,3.21.76,0,1.86-.31,2.35-.62v1.05h0ZM139.34,42.96c0-1.46-.59-2.91-2.14-2.91s-2.47,1.53-2.47,2.91h4.61ZM137.61,36.12h1.3l-2.07,2.37h-.76l1.53-2.37Z"/>
      <path class="st4" d="M143.73,41.23c0-.92,0-1.27-.07-1.87h1.04v1.61h.03c.38-.94,1.09-1.81,2.15-1.81.25,0,.54.05.72.1v1.09c-.21-.07-.49-.1-.76-.1-1.64,0-2.09,1.84-2.09,3.35v4.14h-1.04v-6.51s.02,0,.02,0Z"/>
      <path class="st4" d="M155.3,46.39h-.03c-.46,1-1.63,1.54-2.66,1.54-2.38,0-2.76-1.61-2.76-2.37,0-2.81,2.99-2.94,5.16-2.94h.2v-.43c0-1.43-.51-2.15-1.91-2.15-.87,0-1.69.2-2.47.69v-1c.64-.31,1.73-.58,2.47-.58,2.07,0,2.94.94,2.94,3.12v3.7c0,.67,0,1.18.08,1.76h-1.02v-1.35h0ZM155.2,43.51h-.3c-1.79,0-3.93.18-3.93,2.02,0,1.1.79,1.51,1.74,1.51,2.43,0,2.48-2.12,2.48-3.02v-.51h0Z"/>
      <path class="st4" d="M163.6,40.24h-1.91v5.42c0,.76.28,1.38,1.12,1.38.39,0,.66-.08.95-.2l.07.85c-.25.1-.76.23-1.27.23-1.84,0-1.91-1.27-1.91-2.79v-4.9h-1.64v-.89h1.64v-2.02l1.04-.36v2.38h1.91v.89h0Z"/>
      <path class="st4" d="M167.77,37.12h-1.04v-1.38h1.04v1.38ZM166.73,39.36h1.04v8.38h-1.04v-8.38Z"/>
      <path class="st4" d="M174.94,39.16c2.71,0,3.91,2.1,3.91,4.39s-1.2,4.39-3.91,4.39-3.91-2.1-3.91-4.39,1.2-4.39,3.91-4.39ZM174.94,47.05c1.81,0,2.78-1.56,2.78-3.5s-.97-3.5-2.78-3.5-2.78,1.56-2.78,3.5.97,3.5,2.78,3.5Z"/>
      <path class="st4" d="M182.09,41.33c0-.64,0-1.3-.07-1.97h1v1.5h.03c.34-.76.97-1.69,2.71-1.69,2.07,0,2.86,1.38,2.86,3.22v5.36h-1.04v-5.1c0-1.58-.56-2.6-1.99-2.6-1.89,0-2.48,1.66-2.48,3.06v4.64h-1.04v-6.41h.02,0Z"/>
      <path class="st4" d="M197.55,46.52c.62.31,1.38.53,2.19.53.99,0,1.86-.54,1.86-1.5,0-1.99-4.03-1.68-4.03-4.11,0-1.66,1.35-2.28,2.73-2.28.44,0,1.33.1,2.07.38l-.1.9c-.54-.25-1.28-.39-1.86-.39-1.07,0-1.81.33-1.81,1.4,0,1.56,4.13,1.36,4.13,4.11,0,1.78-1.66,2.38-2.93,2.38-.81,0-1.61-.1-2.35-.39l.1-1.02h0Z"/>
      <path class="st4" d="M212.41,45.77c0,.64,0,1.3.07,1.97h-1v-1.5h-.03c-.35.76-.97,1.69-2.71,1.69-2.07,0-2.86-1.38-2.86-3.22v-5.36h1.04v5.1c0,1.58.56,2.6,1.99,2.6,1.89,0,2.48-1.66,2.48-3.06v-4.64h1.04v6.41h-.02,0Z"/>
      <path class="st4" d="M217.32,37.12h-1.04v-1.38h1.04v1.38ZM216.29,39.36h1.04v8.38h-1.04v-8.38Z"/>
      <path class="st4" d="M220.58,46.52c.62.31,1.38.53,2.19.53.99,0,1.86-.54,1.86-1.5,0-1.99-4.03-1.68-4.03-4.11,0-1.66,1.35-2.28,2.73-2.28.44,0,1.33.1,2.07.38l-.1.9c-.54-.25-1.28-.39-1.86-.39-1.07,0-1.81.33-1.81,1.4,0,1.56,4.13,1.36,4.13,4.11,0,1.78-1.66,2.38-2.92,2.38-.81,0-1.61-.1-2.35-.39l.1-1.02h-.01Z"/>
      <path class="st4" d="M228.25,46.52c.62.31,1.38.53,2.19.53.99,0,1.86-.54,1.86-1.5,0-1.99-4.03-1.68-4.03-4.11,0-1.66,1.35-2.28,2.73-2.28.44,0,1.33.1,2.07.38l-.1.9c-.54-.25-1.28-.39-1.86-.39-1.07,0-1.81.33-1.81,1.4,0,1.56,4.13,1.36,4.13,4.11,0,1.78-1.66,2.38-2.93,2.38-.81,0-1.61-.1-2.35-.39l.1-1.02h0Z"/>
      <path class="st4" d="M242.19,47.48c-.72.3-1.66.46-2.43.46-2.78,0-3.81-1.87-3.81-4.39s1.41-4.39,3.53-4.39c2.37,0,3.34,1.91,3.34,4.16v.53h-5.74c0,1.78.95,3.21,2.76,3.21.76,0,1.86-.31,2.35-.62v1.05h0ZM241.68,42.96c0-1.46-.59-2.91-2.14-2.91s-2.47,1.53-2.47,2.91h4.61Z"/>
      <path class="st4" d="M82.86,60.22c-.72-.38-1.76-.49-2.56-.49-2.97,0-4.65,2.1-4.65,4.95s1.63,4.95,4.65,4.95c.76,0,1.91-.1,2.56-.49l.07.99c-.62.38-1.91.49-2.63.49-3.62,0-5.78-2.38-5.78-5.93s2.24-5.93,5.78-5.93c.67,0,2.04.11,2.63.43l-.07,1.05s0-.02,0-.02Z"/>
      <path class="st4" d="M89.98,61.83c2.71,0,3.91,2.1,3.91,4.39s-1.2,4.39-3.91,4.39-3.91-2.1-3.91-4.39,1.2-4.39,3.91-4.39ZM89.98,69.72c1.81,0,2.78-1.56,2.78-3.5s-.97-3.5-2.78-3.5-2.78,1.56-2.78,3.5.97,3.5,2.78,3.5Z"/>
      <path class="st4" d="M97.13,64c0-.64,0-1.3-.07-1.97h1v1.5h.03c.34-.76.97-1.69,2.71-1.69,2.07,0,2.86,1.38,2.86,3.22v5.36h-1.04v-5.1c0-1.58-.56-2.6-1.99-2.6-1.89,0-2.48,1.66-2.48,3.06v4.64h-1.04v-6.41h.02Z"/>
      <path class="st4" d="M108.26,62.91h-1.69v-.89h1.69v-.61c0-1.76.07-3.53,2.22-3.53.33,0,.77.05.97.16l-.07.9c-.21-.12-.53-.18-.82-.18-1.41,0-1.27,1.53-1.27,2.53v.72h1.89v.89h-1.89v7.5h-1.04v-7.5h0Z"/>
      <path class="st4" d="M119.93,70.15c-.72.3-1.66.46-2.43.46-2.78,0-3.81-1.87-3.81-4.39s1.41-4.39,3.53-4.39c2.37,0,3.34,1.91,3.34,4.16v.53h-5.74c0,1.78.95,3.21,2.76,3.21.76,0,1.86-.31,2.35-.62v1.05h0ZM119.42,65.63c0-1.46-.59-2.91-2.14-2.91s-2.47,1.53-2.47,2.91h4.61Z"/>
      <path class="st4" d="M130.45,70.41h-1.04v-1.33h-.03c-.56,1.07-1.41,1.53-2.61,1.53-2.3,0-3.45-1.91-3.45-4.39s.99-4.39,3.45-4.39c1.64,0,2.47,1.2,2.61,1.61h.03v-5.36h1.04v12.33ZM126.93,69.72c1.84,0,2.48-1.97,2.48-3.5s-.64-3.5-2.48-3.5c-1.97,0-2.48,1.87-2.48,3.5s.51,3.5,2.48,3.5Z"/>
      <path class="st4" d="M139.85,70.15c-.72.3-1.66.46-2.43.46-2.78,0-3.81-1.87-3.81-4.39s1.41-4.39,3.53-4.39c2.37,0,3.34,1.91,3.34,4.16v.53h-5.74c0,1.78.95,3.21,2.76,3.21.76,0,1.86-.31,2.35-.62v1.05h0ZM139.34,65.63c0-1.46-.59-2.91-2.14-2.91s-2.47,1.53-2.47,2.91h4.61Z"/>
      <path class="st4" d="M143.73,63.9c0-.92,0-1.27-.07-1.87h1.04v1.61h.03c.38-.94,1.09-1.81,2.15-1.81.25,0,.54.05.72.1v1.09c-.21-.07-.49-.1-.76-.1-1.64,0-2.09,1.84-2.09,3.35v4.14h-1.04v-6.51h.02Z"/>
      <path class="st4" d="M155.3,69.06h-.03c-.46,1-1.63,1.54-2.66,1.54-2.38,0-2.76-1.61-2.76-2.37,0-2.81,2.99-2.94,5.16-2.94h.2v-.43c0-1.43-.51-2.15-1.91-2.15-.87,0-1.69.2-2.47.69v-1c.64-.31,1.73-.58,2.47-.58,2.07,0,2.94.94,2.94,3.12v3.7c0,.67,0,1.18.08,1.76h-1.02v-1.35h0ZM155.2,66.18h-.3c-1.79,0-3.93.18-3.93,2.02,0,1.1.79,1.51,1.74,1.51,2.43,0,2.48-2.12,2.48-3.02v-.51h0Z"/>
      <path class="st4" d="M159.21,69.54l5.05-6.62h-4.85v-.89h6.05v.89l-5.04,6.61h5.04v.89h-6.24v-.87h0Z"/>
      <path class="st4" d="M169.59,59.79h-1.04v-1.38h1.04v1.38ZM168.56,62.03h1.04v8.38h-1.04s0-8.38,0-8.38Z"/>
      <path class="st4" d="M176.76,61.83c2.71,0,3.91,2.1,3.91,4.39s-1.2,4.39-3.91,4.39-3.91-2.1-3.91-4.39,1.2-4.39,3.91-4.39ZM176.76,69.72c1.81,0,2.78-1.56,2.78-3.5s-.97-3.5-2.78-3.5-2.78,1.56-2.78,3.5.97,3.5,2.78,3.5Z"/>
      <path class="st4" d="M183.91,64c0-.64,0-1.3-.07-1.97h1v1.5h.03c.34-.76.97-1.69,2.71-1.69,2.07,0,2.86,1.38,2.86,3.22v5.36h-1.04v-5.1c0-1.58-.56-2.6-1.99-2.6-1.89,0-2.48,1.66-2.48,3.06v4.64h-1.04v-6.41h.02,0Z"/>
      <path class="st4" d="M199.95,70.15c-.72.3-1.66.46-2.43.46-2.78,0-3.81-1.87-3.81-4.39s1.41-4.39,3.53-4.39c2.37,0,3.34,1.91,3.34,4.16v.53h-5.74c0,1.78.95,3.21,2.76,3.21.76,0,1.86-.31,2.35-.62v1.05h0ZM199.44,65.63c0-1.46-.59-2.91-2.14-2.91s-2.47,1.53-2.47,2.91h4.61Z"/>
      <path class="st4" d="M209.32,68.95c.67.43,1.46.67,2.53.67,1.41,0,2.58-.72,2.58-2.35,0-2.25-5.26-2.53-5.26-5.54,0-1.84,1.61-2.99,3.63-2.99.56,0,1.46.08,2.25.38l-.18,1.04c-.51-.28-1.32-.43-2.09-.43-1.18,0-2.48.49-2.48,1.97,0,2.3,5.26,2.32,5.26,5.67,0,2.32-1.99,3.24-3.76,3.24-1.12,0-1.99-.23-2.6-.49l.12-1.17h0Z"/>
      <path class="st4" d="M221.93,70.41h-1.22l-2.84-8.38h1.13l2.32,7.25h.03l2.43-7.25h1.08l-2.94,8.38h0Z"/>
      <path class="st4" d="M228.63,59.79h-1.04v-1.38h1.04v1.38ZM227.6,62.03h1.04v8.38h-1.04s0-8.38,0-8.38Z"/>
      <path class="st4" d="M231.75,69.54l5.05-6.62h-4.85v-.89h6.05v.89l-5.04,6.61h5.04v.89h-6.24v-.87h0Z"/>
      <path class="st4" d="M240.33,69.54l5.05-6.62h-4.85v-.89h6.05v.89l-5.04,6.61h5.04v.89h-6.24v-.87h0Z"/>
      <path class="st4" d="M255.31,70.15c-.72.3-1.66.46-2.43.46-2.78,0-3.81-1.87-3.81-4.39s1.41-4.39,3.53-4.39c2.37,0,3.34,1.91,3.34,4.16v.53h-5.74c0,1.78.95,3.21,2.76,3.21.76,0,1.86-.31,2.35-.62v1.05h0ZM254.8,65.63c0-1.46-.59-2.91-2.14-2.91s-2.47,1.53-2.47,2.91h4.61Z"/>
      <path class="st4" d="M259.18,63.9c0-.92,0-1.27-.07-1.87h1.04v1.61h.03c.38-.94,1.09-1.81,2.15-1.81.25,0,.54.05.72.1v1.09c-.21-.07-.49-.1-.76-.1-1.64,0-2.09,1.84-2.09,3.35v4.14h-1.04v-6.51h.02Z"/>
      <path class="st4" d="M270.76,69.06h-.03c-.46,1-1.63,1.54-2.66,1.54-2.38,0-2.76-1.61-2.76-2.37,0-2.81,2.99-2.94,5.16-2.94h.2v-.43c0-1.43-.51-2.15-1.91-2.15-.87,0-1.69.2-2.47.69v-1c.64-.31,1.73-.58,2.47-.58,2.07,0,2.94.94,2.94,3.12v3.7c0,.67,0,1.18.08,1.76h-1.02v-1.35h0ZM270.66,66.18h-.3c-1.79,0-3.93.18-3.93,2.02,0,1.1.79,1.51,1.74,1.51,2.43,0,2.48-2.12,2.48-3.02v-.51h0Z"/>
      <path class="st4" d="M82.86,82.89c-.72-.38-1.76-.49-2.56-.49-2.97,0-4.65,2.1-4.65,4.95s1.63,4.95,4.65,4.95c.76,0,1.91-.1,2.56-.49l.07.99c-.62.38-1.91.49-2.63.49-3.62,0-5.78-2.38-5.78-5.93s2.24-5.93,5.78-5.93c.67,0,2.04.11,2.63.43l-.07,1.05v-.02Z"/>
      <path class="st4" d="M89.98,84.5c2.71,0,3.91,2.1,3.91,4.39s-1.2,4.39-3.91,4.39-3.91-2.1-3.91-4.39,1.2-4.39,3.91-4.39ZM89.98,92.39c1.81,0,2.78-1.56,2.78-3.5s-.97-3.5-2.78-3.5-2.78,1.56-2.78,3.5.97,3.5,2.78,3.5Z"/>
      <path class="st4" d="M97.13,86.67c0-.64,0-1.3-.07-1.97h1v1.5h.03c.34-.76.97-1.69,2.71-1.69,2.07,0,2.86,1.38,2.86,3.22v5.36h-1.04v-5.1c0-1.58-.56-2.6-1.99-2.6-1.89,0-2.48,1.66-2.48,3.06v4.64h-1.04v-6.41h.02Z"/>
      <path class="st4" d="M108.26,85.58h-1.69v-.89h1.69v-.61c0-1.76.07-3.53,2.22-3.53.33,0,.77.05.97.16l-.07.9c-.21-.12-.53-.18-.82-.18-1.41,0-1.27,1.53-1.27,2.53v.72h1.89v.89h-1.89v7.5h-1.04v-7.5h0Z"/>
      <path class="st4" d="M119.93,92.81c-.72.3-1.66.46-2.43.46-2.78,0-3.81-1.87-3.81-4.39s1.41-4.39,3.53-4.39c2.37,0,3.34,1.91,3.34,4.16v.53h-5.74c0,1.78.95,3.21,2.76,3.21.76,0,1.86-.31,2.35-.62v1.05h0ZM119.42,88.3c0-1.46-.59-2.91-2.14-2.91s-2.47,1.53-2.47,2.91h4.61Z"/>
      <path class="st4" d="M130.45,93.08h-1.04v-1.33h-.03c-.56,1.07-1.41,1.53-2.61,1.53-2.3,0-3.45-1.91-3.45-4.39s.99-4.39,3.45-4.39c1.64,0,2.47,1.2,2.61,1.61h.03v-5.36h1.04v12.33ZM126.93,92.39c1.84,0,2.48-1.97,2.48-3.5s-.64-3.5-2.48-3.5c-1.97,0-2.48,1.87-2.48,3.5s.51,3.5,2.48,3.5Z"/>
      <path class="st4" d="M139.85,92.81c-.72.3-1.66.46-2.43.46-2.78,0-3.81-1.87-3.81-4.39s1.41-4.39,3.53-4.39c2.37,0,3.34,1.91,3.34,4.16v.53h-5.74c0,1.78.95,3.21,2.76,3.21.76,0,1.86-.31,2.35-.62v1.05h0ZM139.34,88.3c0-1.46-.59-2.91-2.14-2.91s-2.47,1.53-2.47,2.91h4.61Z"/>
      <path class="st4" d="M143.73,86.57c0-.92,0-1.27-.07-1.87h1.04v1.61h.03c.38-.94,1.09-1.81,2.15-1.81.25,0,.54.05.72.1v1.09c-.21-.07-.49-.1-.76-.1-1.64,0-2.09,1.84-2.09,3.35v4.14h-1.04v-6.51s.02,0,.02,0Z"/>
      <path class="st4" d="M155.3,91.73h-.03c-.46,1-1.63,1.54-2.66,1.54-2.38,0-2.76-1.61-2.76-2.37,0-2.81,2.99-2.94,5.16-2.94h.2v-.43c0-1.43-.51-2.15-1.91-2.15-.87,0-1.69.2-2.47.69v-1c.64-.31,1.73-.58,2.47-.58,2.07,0,2.94.94,2.94,3.12v3.7c0,.67,0,1.18.08,1.76h-1.02v-1.35h0ZM155.2,88.85h-.3c-1.79,0-3.93.18-3.93,2.02,0,1.1.79,1.51,1.74,1.51,2.43,0,2.48-2.12,2.48-3.02v-.51h0Z"/>
      <path class="st4" d="M159.21,92.21l5.05-6.62h-4.85v-.89h6.05v.89l-5.04,6.61h5.04v.89h-6.24v-.87h0Z"/>
      <path class="st4" d="M169.59,82.46h-1.04v-1.38h1.04v1.38ZM168.56,84.7h1.04v8.38h-1.04v-8.38Z"/>
      <path class="st4" d="M180.03,91.11c0,.64,0,1.3.07,1.97h-1v-1.5h-.03c-.35.76-.97,1.69-2.71,1.69-2.07,0-2.86-1.38-2.86-3.22v-5.36h1.04v5.1c0,1.58.56,2.6,1.99,2.6,1.89,0,2.48-1.66,2.48-3.06v-4.64h1.04v6.41h-.02,0Z"/>
      <path class="st4" d="M183.91,86.67c0-.64,0-1.3-.07-1.97h1v1.5h.03c.34-.76.97-1.69,2.71-1.69,2.07,0,2.86,1.38,2.86,3.22v5.36h-1.04v-5.1c0-1.58-.56-2.6-1.99-2.6-1.89,0-2.48,1.66-2.48,3.06v4.64h-1.04v-6.41h.02,0Z"/>
      <path class="st4" d="M199.38,91.86c.62.31,1.38.53,2.19.53.99,0,1.86-.54,1.86-1.5,0-1.99-4.03-1.68-4.03-4.11,0-1.66,1.35-2.28,2.73-2.28.44,0,1.33.1,2.07.38l-.1.9c-.54-.25-1.28-.39-1.86-.39-1.07,0-1.81.33-1.81,1.4,0,1.56,4.13,1.36,4.13,4.11,0,1.78-1.66,2.38-2.92,2.38-.81,0-1.61-.1-2.35-.39l.1-1.02h-.01Z"/>
      <path class="st4" d="M210.6,93.08h-1.22l-2.84-8.38h1.13l2.32,7.25h.03l2.43-7.25h1.08l-2.94,8.38h0Z"/>
      <path class="st4" d="M217.31,82.46h-1.04v-1.38h1.04v1.38ZM216.27,84.7h1.04v8.38h-1.04v-8.38Z"/>
      <path class="st4" d="M220.43,92.21l5.05-6.62h-4.85v-.89h6.05v.89l-5.04,6.61h5.04v.89h-6.24v-.87h0Z"/>
      <path class="st4" d="M229.78,86.57c0-.92,0-1.27-.07-1.87h1.04v1.61h.03c.38-.94,1.09-1.81,2.15-1.81.25,0,.54.05.72.1v1.09c-.21-.07-.49-.1-.76-.1-1.64,0-2.09,1.84-2.09,3.35v4.14h-1.04v-6.51s.02,0,.02,0Z"/>
      <path class="st4" d="M241.35,91.73h-.03c-.46,1-1.63,1.54-2.66,1.54-2.38,0-2.76-1.61-2.76-2.37,0-2.81,2.99-2.94,5.16-2.94h.2v-.43c0-1.43-.51-2.15-1.91-2.15-.87,0-1.69.2-2.47.69v-1c.64-.31,1.73-.58,2.47-.58,2.07,0,2.94.94,2.94,3.12v3.7c0,.67,0,1.18.08,1.76h-1.02v-1.35h0ZM241.25,88.85h-.3c-1.79,0-3.93.18-3.93,2.02,0,1.1.79,1.51,1.74,1.51,2.43,0,2.48-2.12,2.48-3.02v-.51h0Z"/>
    </g>
    <g>
      <path class="st5" d="M55.87,13.1s-8.69-3.81-23.25-3.81h0c-14.55,0-23.25,3.81-23.25,3.81,0,0-.78,16.86,2.52,26.39,5.83,16.76,20.72,21.47,20.72,21.47h0s14.89-4.71,20.72-21.47c3.3-9.53,2.52-26.39,2.52-26.39,0,0,.02,0,.02,0Z"/>
      <polygon class="st1" points="48.07 27.63 48.07 36.92 37.23 36.92 37.23 47.75 27.94 47.75 27.94 36.92 17.11 36.92 17.11 27.63 27.94 27.63 27.94 16.79 37.23 16.79 37.23 27.63 48.07 27.63"/>
    </g>
  </g>
  <line class="st3" x1="389.43" y1="14.3" x2="480.81" y2="14.3"/>
  <line class="st3" x1="389.43" y1="40.09" x2="480.81" y2="40.09"/>
  <line class="st3" x1="389.43" y1="65.87" x2="480.81" y2="65.87"/>
  <line class="st3" x1="389.43" y1="91.66" x2="480.81" y2="91.66"/>
  <polyline class="st2" points="386.06 84.19 410.34 31.29 427.42 84.07 437.15 53.88 461.97 61.27 474.12 23.02"/>
  <circle class="st0" cx="474.12" cy="23.02" r="4.89"/>
</svg>