<?xml version="1.0" encoding="utf-8"?>
<!-- Generator: Adobe Illustrator 26.0.3, SVG Export Plug-In . SVG Version: 6.00 Build 0)  -->
<svg version="1.1" xmlns="http://www.w3.org/2000/svg" xmlns:xlink="http://www.w3.org/1999/xlink" x="0px" y="0px"
	 viewBox="0 0 90 86" style="enable-background:new 0 0 90 86;" xml:space="preserve">
<style type="text/css">
	.st0{fill:#E5E5E5;}
	.st1{clip-path:url(#SVGID_00000029022828158945415290000004165204999254307737_);fill:#FFFFFF;}
	.st2{fill:#C52D23;}
	.st3{fill:#FFFFFF;stroke:#FFFFFF;stroke-width:0.7087;stroke-linecap:round;stroke-linejoin:round;stroke-miterlimit:10;}
	.st4{fill-rule:evenodd;clip-rule:evenodd;fill:#E5E5E5;}
	.st5{fill-rule:evenodd;clip-rule:evenodd;fill:#C52D23;}
	.st6{fill-rule:evenodd;clip-rule:evenodd;fill:#333333;}
	.st7{fill:none;stroke:#333333;stroke-width:1.4173;stroke-miterlimit:10;}
	.st8{fill:none;stroke:#C52F23;stroke-width:1.4173;stroke-miterlimit:10;}
	.st9{fill:#FFFFFF;stroke:#FFFFFF;stroke-width:2.126;stroke-miterlimit:10;}
	.st10{fill:none;stroke:#E5E5E5;stroke-width:1.4173;stroke-miterlimit:10;}
	.st11{fill-rule:evenodd;clip-rule:evenodd;fill:#FFFFFF;stroke:#FFFFFF;stroke-width:2.126;stroke-miterlimit:10;}
</style>
<g id="HG_grau">
</g>
<g id="bg">
	<g>
		<path class="st0" d="M87,86H3c-1.66,0-3-1.34-3-3V3c0-1.66,1.34-3,3-3h84c1.66,0,3,1.34,3,3v80C90,84.66,88.66,86,87,86z"/>
		<g>
			<defs>
				<path id="SVGID_1_" d="M87,86H3c-1.66,0-3-1.34-3-3V3c0-1.66,1.34-3,3-3h84c1.66,0,3,1.34,3,3v80C90,84.66,88.66,86,87,86z"/>
			</defs>
			<clipPath id="SVGID_00000020379562404952673780000016550083857874560946_">
				<use xlink:href="#SVGID_1_"  style="overflow:visible;"/>
			</clipPath>
			<path style="clip-path:url(#SVGID_00000020379562404952673780000016550083857874560946_);fill:#FFFFFF;" d="M47.41,84.31
				C12.14,146.49-18.82,57.3-11.85,31.59S-26.99,4.99,5.29-5.95s26.37,16.7,45.2-4.75s28.31-35.44,44.89-9.09
				s1.23,77.65-18.82,57.04S54.4,72,47.41,84.31z"/>
		</g>
	</g>
</g>
<g id="Ebene_1">
</g>
<g id="text">
	<g>
		<path class="st2" d="M68.95,14.99l-0.76,1V16l1.21-0.16v0.54l-1.21-0.14v0.02l0.77,0.96l-0.5,0.29l-0.48-1.12h-0.02l-0.52,1.13
			l-0.46-0.29l0.76-0.98v-0.02l-1.18,0.15v-0.54l1.18,0.15v-0.02L66.98,15l0.49-0.28l0.5,1.11h0.02l0.49-1.12L68.95,14.99z"/>
	</g>
	<g>
		<path class="st3" d="M68.95,44.01l-0.76,1v0.02l1.21-0.16v0.54l-1.21-0.14v0.02l0.77,0.96l-0.5,0.29l-0.48-1.12h-0.02l-0.52,1.13
			l-0.46-0.29l0.76-0.98v-0.02l-1.18,0.15v-0.54l1.18,0.15V45l-0.75-0.98l0.49-0.28l0.5,1.11h0.02l0.49-1.12L68.95,44.01z"/>
	</g>
	<g>
		<path class="st2" d="M68.95,44.01l-0.76,1v0.02l1.21-0.16v0.54l-1.21-0.14v0.02l0.77,0.96l-0.5,0.29l-0.48-1.12h-0.02l-0.52,1.13
			l-0.46-0.29l0.76-0.98v-0.02l-1.18,0.15v-0.54l1.18,0.15V45l-0.75-0.98l0.49-0.28l0.5,1.11h0.02l0.49-1.12L68.95,44.01z"/>
	</g>
	<g>
		<path class="st2" d="M46.73,44.01l-0.76,1v0.02l1.21-0.16v0.54l-1.21-0.14v0.02l0.77,0.96l-0.5,0.29l-0.48-1.12h-0.02l-0.52,1.13
			l-0.46-0.29l0.76-0.98v-0.02l-1.18,0.15v-0.54l1.18,0.15V45l-0.75-0.98l0.49-0.28l0.5,1.11h0.02l0.49-1.12L46.73,44.01z"/>
	</g>
	<g>
		<polyline class="st4" points="19.88,63.47 26.39,63.47 26.39,66.53 19.88,66.53 19.88,63.47 		"/>
		<polyline class="st5" points="28.71,57.34 35.22,57.34 35.22,66.53 28.71,66.53 28.71,57.34 		"/>
		<polyline class="st6" points="37.55,48.17 44.05,48.17 44.05,66.53 37.55,66.53 37.55,48.17 		"/>
	</g>
	<polyline class="st7" points="19.31,18.97 24.67,22.52 30.02,24.29 35.39,22.06 40.74,19.4 46.1,21.63 51.47,19.86 56.82,22.06 
		62.17,23.41 67.55,18.97 	"/>
	<polyline class="st8" points="19.31,30.13 24.67,31.01 30.02,30.13 35.39,28.35 40.74,30.56 46.1,29.67 51.47,31.44 56.82,31.01 
		62.17,30.56 67.55,30.13 	"/>
	<polygon class="st9" points="30.05,39.78 24.55,38.86 19.14,37.51 19.49,36.13 24.84,37.48 29.99,38.33 40.8,35.65 46.07,37.82 
		51.36,35.23 56.91,34.31 62.29,36.56 67.49,36.11 67.61,37.53 62.06,38 56.74,35.78 51.69,36.61 46.12,39.37 40.69,37.13 	"/>
	<polyline class="st10" points="19.31,36.82 24.67,38.16 30.02,39.05 35.39,37.71 40.74,36.39 46.1,38.6 51.47,35.93 56.82,35.05 
		62.17,37.28 67.55,36.82 	"/>
	<polygon class="st11" points="68.1,56.57 68.1,56.38 68.09,56.21 68.07,56.04 68.06,55.86 68.04,55.68 68.01,55.5 67.99,55.33 
		67.96,55.16 67.93,54.98 67.9,54.81 67.85,54.64 67.8,54.46 67.77,54.29 67.72,54.12 67.66,53.94 67.61,53.79 67.55,53.61 
		67.5,53.44 67.44,53.28 67.38,53.11 67.3,52.95 67.24,52.78 67.16,52.62 67.08,52.46 67,52.31 66.92,52.15 66.84,51.99 
		66.75,51.83 66.65,51.69 66.58,51.53 66.46,51.38 66.37,51.23 66.28,51.09 66.17,50.95 66.07,50.79 65.96,50.67 65.85,50.53 
		65.74,50.38 65.61,50.24 65.5,50.12 65.38,49.99 65.25,49.86 65.14,49.74 65,49.61 64.87,49.49 64.75,49.36 64.62,49.25 
		64.48,49.12 64.34,49.01 64.2,48.9 64.07,48.79 63.91,48.7 63.63,48.49 63.49,48.4 63.33,48.3 63.19,48.21 63.03,48.12 
		62.87,48.02 62.72,47.94 62.56,47.86 62.4,47.79 62.24,47.71 62.09,47.63 61.91,47.56 61.76,47.49 61.58,47.42 61.42,47.36 
		61.25,47.31 61.08,47.25 60.92,47.2 60.75,47.14 60.57,47.09 60.4,47.06 60.23,47.01 60.05,46.98 59.88,46.93 59.71,46.9 
		59.53,46.87 59.36,46.86 59.19,46.82 59,46.81 58.83,46.79 58.65,46.78 58.48,46.76 58.31,46.76 58.12,46.75 57.94,46.75 
		57.77,46.75 57.58,46.76 57.41,46.76 57.24,46.78 57.06,46.79 56.87,46.81 56.7,46.82 56.53,46.86 56.35,46.87 56.18,46.9 
		56.01,46.93 55.83,46.98 55.66,47.01 55.49,47.06 55.31,47.09 55.14,47.14 54.97,47.2 54.79,47.25 54.64,47.31 54.46,47.36 
		54.31,47.42 54.13,47.49 53.97,47.56 53.8,47.63 53.64,47.71 53.49,47.79 53.33,47.86 53.17,47.94 53.01,48.02 52.86,48.12 
		52.7,48.21 52.56,48.3 52.4,48.4 52.26,48.49 52.12,48.59 51.96,48.7 51.82,48.79 51.68,48.9 51.55,49.01 51.41,49.12 51.27,49.25 
		51.14,49.36 51.01,49.49 50.87,49.61 50.75,49.74 50.64,49.86 50.51,49.99 50.38,50.12 50.27,50.24 50.15,50.38 50.04,50.53 
		49.93,50.67 49.82,50.79 49.72,50.95 49.61,51.09 49.52,51.23 49.42,51.38 49.31,51.53 49.23,51.69 49.14,51.83 49.05,51.99 
		48.97,52.15 48.89,52.31 48.81,52.46 48.73,52.62 48.65,52.78 48.59,52.95 48.51,53.11 48.45,53.28 48.38,53.44 48.34,53.61 
		48.27,53.79 48.23,53.94 48.16,54.12 48.12,54.29 48.08,54.46 48.04,54.64 47.99,54.81 47.96,54.98 47.93,55.16 47.9,55.33 
		47.88,55.5 47.85,55.68 47.83,55.86 47.82,56.04 47.8,56.21 47.79,56.38 47.79,56.57 47.77,56.75 47.77,56.92 47.77,57.09 
		47.79,57.28 47.79,57.46 47.8,57.63 47.82,57.8 47.83,57.99 47.85,58.16 47.88,58.34 47.9,58.51 47.93,58.68 47.96,58.86 
		47.99,59.03 48.04,59.2 48.08,59.38 48.12,59.55 48.16,59.72 48.23,59.9 48.27,60.07 48.34,60.23 48.38,60.4 48.45,60.56 
		48.51,60.73 48.59,60.89 48.65,61.06 48.73,61.22 48.81,61.38 48.89,61.53 48.97,61.69 49.05,61.85 49.14,62.01 49.23,62.16 
		49.31,62.31 49.42,62.46 49.52,62.61 49.61,62.75 49.72,62.91 49.82,63.05 49.93,63.19 50.04,63.31 50.15,63.46 50.27,63.6 
		50.38,63.72 50.51,63.85 50.64,63.99 50.75,64.12 50.87,64.23 51.01,64.35 51.14,64.48 51.27,64.59 51.41,64.72 51.55,64.83 
		51.68,64.94 51.82,65.05 51.96,65.14 52.12,65.25 52.26,65.35 52.4,65.46 52.56,65.55 52.7,65.63 52.86,65.72 53.01,65.82 
		53.17,65.9 53.33,65.98 53.49,66.06 53.64,66.13 53.8,66.21 53.97,66.28 54.13,66.35 54.31,66.42 54.46,66.48 54.64,66.54 
		54.79,66.59 54.97,66.64 55.14,66.7 55.31,66.75 55.49,66.8 55.66,66.83 55.83,66.87 56.01,66.91 56.18,66.94 56.35,66.97 
		56.53,66.98 56.7,67.02 56.87,67.03 57.06,67.05 57.24,67.06 57.41,67.08 57.58,67.08 57.77,67.09 57.94,67.09 58.12,67.09 
		58.31,67.08 58.48,67.08 58.65,67.06 58.83,67.05 59,67.03 59.19,67.02 59.36,66.98 59.53,66.97 59.71,66.94 59.88,66.91 
		60.05,66.87 60.23,66.83 60.4,66.8 60.57,66.75 60.75,66.7 60.92,66.64 61.08,66.59 61.25,66.54 61.42,66.48 61.58,66.42 
		61.76,66.35 61.91,66.28 62.09,66.21 62.24,66.13 62.4,66.06 62.56,65.98 62.72,65.9 62.87,65.82 63.03,65.72 63.19,65.63 
		63.33,65.55 63.49,65.46 63.63,65.35 63.77,65.25 63.91,65.14 64.2,64.94 64.34,64.83 64.48,64.72 64.62,64.59 64.75,64.48 
		64.87,64.35 65,64.23 65.14,64.12 65.25,63.99 65.38,63.85 65.5,63.72 65.61,63.6 65.74,63.46 65.85,63.31 65.96,63.19 
		66.07,63.05 66.17,62.91 66.28,62.75 66.37,62.61 66.46,62.46 66.58,62.31 66.65,62.16 66.75,62.01 66.84,61.85 66.92,61.69 
		67,61.53 67.08,61.38 67.16,61.22 67.24,61.06 67.3,60.89 67.38,60.73 67.44,60.56 67.5,60.4 67.55,60.23 67.61,60.07 67.66,59.9 
		67.72,59.72 67.77,59.55 67.8,59.38 67.85,59.2 67.9,59.03 67.93,58.86 67.96,58.68 67.99,58.51 68.01,58.34 68.04,58.16 
		68.06,57.99 68.07,57.8 68.09,57.63 68.1,57.46 68.1,57.28 68.12,57.09 68.12,56.92 68.12,56.75 	"/>
	<g>
		<polyline class="st6" points="57.94,46.75 57.77,46.75 57.58,46.76 57.41,46.76 57.24,46.78 57.06,46.79 56.87,46.81 56.7,46.82 
			56.53,46.86 56.35,46.87 56.18,46.9 56.01,46.93 55.83,46.98 55.66,47.01 55.49,47.06 55.31,47.09 55.14,47.14 54.97,47.2 
			54.79,47.25 54.64,47.31 54.46,47.36 54.31,47.42 54.13,47.49 53.97,47.56 53.8,47.63 53.64,47.71 53.49,47.79 53.33,47.86 
			53.17,47.94 53.01,48.02 52.86,48.12 52.7,48.21 52.56,48.3 52.4,48.4 52.26,48.49 52.12,48.59 51.96,48.7 51.82,48.79 
			51.68,48.9 51.55,49.01 51.41,49.12 51.27,49.25 51.14,49.36 51.01,49.49 50.87,49.61 50.75,49.74 50.64,49.86 50.51,49.99 
			50.38,50.12 50.27,50.24 50.15,50.38 50.04,50.53 49.93,50.67 49.82,50.79 49.72,50.95 49.61,51.09 49.52,51.23 49.42,51.38 
			49.31,51.53 49.23,51.69 49.14,51.83 49.05,51.99 48.97,52.15 48.89,52.31 48.81,52.46 48.73,52.62 48.65,52.78 48.59,52.95 
			48.51,53.11 48.45,53.28 48.38,53.44 48.34,53.61 48.27,53.79 48.23,53.94 48.16,54.12 48.12,54.29 48.08,54.46 48.04,54.64 
			47.99,54.81 47.96,54.98 47.93,55.16 47.9,55.33 47.88,55.5 47.85,55.68 47.83,55.86 47.82,56.04 47.8,56.21 47.79,56.38 
			47.79,56.57 47.77,56.75 47.77,56.92 47.77,57.09 47.79,57.28 47.79,57.46 47.8,57.63 47.82,57.8 47.83,57.99 47.85,58.16 
			47.88,58.34 47.9,58.51 47.93,58.68 47.96,58.86 47.99,59.03 48.04,59.2 48.08,59.38 48.12,59.55 48.16,59.72 48.23,59.9 
			48.27,60.07 48.34,60.23 48.38,60.4 48.45,60.56 48.51,60.73 48.59,60.89 48.65,61.06 48.73,61.22 48.81,61.38 48.89,61.53 
			48.97,61.69 49.05,61.85 49.14,62.01 49.23,62.16 49.31,62.31 49.42,62.46 49.52,62.61 49.61,62.75 49.72,62.91 49.82,63.05 
			49.93,63.19 50.04,63.31 50.15,63.46 50.27,63.6 50.38,63.72 50.51,63.85 50.64,63.99 50.75,64.12 50.87,64.23 51.01,64.35 
			51.14,64.48 51.27,64.59 51.41,64.72 51.55,64.83 51.68,64.94 51.82,65.05 51.96,65.14 52.12,65.25 52.26,65.35 52.4,65.46 
			52.56,65.55 52.7,65.63 52.86,65.72 53.01,65.82 53.17,65.9 53.33,65.98 53.49,66.06 53.64,66.13 53.8,66.21 53.97,66.28 
			54.13,66.35 54.31,66.42 54.46,66.48 54.64,66.54 54.79,66.59 54.97,66.64 55.14,66.7 55.31,66.75 55.49,66.8 55.66,66.83 
			55.83,66.87 56.01,66.91 56.18,66.94 56.35,66.97 56.53,66.98 56.7,67.02 56.87,67.03 57.06,67.05 57.24,67.06 57.41,67.08 
			57.58,67.08 57.77,67.09 57.94,67.09 58.12,67.09 58.31,67.08 58.48,67.08 58.65,67.06 58.83,67.05 59,67.03 59.19,67.02 
			59.36,66.98 59.53,66.97 59.71,66.94 59.88,66.91 60.05,66.87 60.23,66.83 60.4,66.8 60.57,66.75 60.75,66.7 60.92,66.64 
			61.08,66.59 61.25,66.54 61.42,66.48 61.58,66.42 61.76,66.35 61.91,66.28 62.09,66.21 62.24,66.13 62.4,66.06 62.56,65.98 
			62.72,65.9 62.87,65.82 63.03,65.72 63.19,65.63 63.33,65.55 63.49,65.46 63.63,65.35 63.77,65.25 63.91,65.14 57.94,56.92 
			57.94,56.92 57.94,56.92 57.94,46.75 		"/>
		<polyline class="st4" points="63.91,48.7 63.63,48.49 63.49,48.4 63.33,48.3 63.19,48.21 63.03,48.12 62.87,48.02 62.72,47.94 
			62.56,47.86 62.4,47.79 62.24,47.71 62.09,47.63 61.91,47.56 61.76,47.49 61.58,47.42 61.42,47.36 61.25,47.31 61.08,47.25 
			60.92,47.2 60.75,47.14 60.57,47.09 60.4,47.06 60.23,47.01 60.05,46.98 59.88,46.93 59.71,46.9 59.53,46.87 59.36,46.86 
			59.19,46.82 59,46.81 58.83,46.79 58.65,46.78 58.48,46.76 58.31,46.76 58.12,46.75 57.94,46.75 57.94,56.92 57.94,56.92 
			57.94,56.92 63.91,48.7 		"/>
		<polyline class="st5" points="63.91,65.14 64.2,64.94 64.34,64.83 64.48,64.72 64.62,64.59 64.75,64.48 64.87,64.35 65,64.23 
			65.14,64.12 65.25,63.99 65.38,63.85 65.5,63.72 65.61,63.6 65.74,63.46 65.85,63.31 65.96,63.19 66.07,63.05 66.17,62.91 
			66.28,62.75 66.37,62.61 66.46,62.46 66.57,62.31 66.65,62.16 66.75,62.01 66.84,61.85 66.92,61.69 67,61.53 67.08,61.38 
			67.16,61.22 67.24,61.06 67.3,60.89 67.38,60.73 67.44,60.56 67.5,60.4 67.55,60.23 67.61,60.07 67.66,59.9 67.72,59.72 
			67.77,59.55 67.8,59.38 67.85,59.2 67.9,59.03 67.93,58.86 67.96,58.68 67.99,58.51 68.01,58.34 68.04,58.16 68.06,57.99 
			68.07,57.8 68.09,57.63 68.1,57.46 68.1,57.28 68.12,57.09 68.12,56.92 68.12,56.75 68.1,56.57 68.1,56.38 68.09,56.21 
			68.07,56.04 68.06,55.86 68.04,55.68 68.01,55.5 67.99,55.33 67.96,55.16 67.93,54.98 67.9,54.81 67.85,54.64 67.8,54.46 
			67.77,54.29 67.72,54.12 67.66,53.94 67.61,53.79 67.55,53.61 67.5,53.44 67.44,53.28 67.38,53.11 67.3,52.95 67.24,52.78 
			67.16,52.62 67.08,52.46 67,52.31 66.92,52.15 66.84,51.99 66.75,51.83 66.65,51.69 66.57,51.53 66.46,51.38 66.37,51.23 
			66.28,51.09 66.17,50.95 66.07,50.79 65.96,50.67 65.85,50.53 65.74,50.38 65.61,50.24 65.5,50.12 65.38,49.99 65.25,49.86 
			65.14,49.74 65,49.61 64.87,49.49 64.75,49.36 64.62,49.25 64.48,49.12 64.34,49.01 64.2,48.9 64.07,48.79 63.91,48.7 
			57.94,56.92 57.94,56.92 57.94,56.92 63.91,65.14 		"/>
	</g>
</g>
</svg>
