<?xml version="1.0" encoding="utf-8"?>
<!-- Generator: Adobe Illustrator 26.0.3, SVG Export Plug-In . SVG Version: 6.00 Build 0)  -->
<svg version="1.1" xmlns="http://www.w3.org/2000/svg" xmlns:xlink="http://www.w3.org/1999/xlink" x="0px" y="0px"
	 viewBox="0 0 90 86" style="enable-background:new 0 0 90 86;" xml:space="preserve">
<style type="text/css">
	.st0{fill:#E5E5E5;}
	.st1{clip-path:url(#SVGID_00000102521150516099517520000008359161513078936454_);fill:#FFFFFF;}
	.st2{fill:#FFFFFF;stroke:#FFFFFF;stroke-width:2.126;stroke-miterlimit:10;}
	.st3{fill:#333333;}
	.st4{fill:#C52D23;}
	.st5{fill-rule:evenodd;clip-rule:evenodd;fill:#E5E5E5;}
	.st6{fill-rule:evenodd;clip-rule:evenodd;fill:#C52D23;}
	.st7{fill-rule:evenodd;clip-rule:evenodd;fill:#333333;}
	.st8{clip-path:url(#SVGID_00000172420155563768692690000001945097431404359579_);}
</style>
<g id="HG_grau">
</g>
<g id="bg">
	<g>
		<path class="st0" d="M87,86H3c-1.66,0-3-1.34-3-3V3c0-1.66,1.34-3,3-3h84c1.66,0,3,1.34,3,3v80C90,84.66,88.66,86,87,86z"/>
		<g>
			<defs>
				<path id="SVGID_1_" d="M87,86H3c-1.66,0-3-1.34-3-3V3c0-1.66,1.34-3,3-3h84c1.66,0,3,1.34,3,3v80C90,84.66,88.66,86,87,86z"/>
			</defs>
			<clipPath id="SVGID_00000029732404167383773480000004407433602577625231_">
				<use xlink:href="#SVGID_1_"  style="overflow:visible;"/>
			</clipPath>
			<path style="clip-path:url(#SVGID_00000029732404167383773480000004407433602577625231_);fill:#FFFFFF;" d="M52.12,71.74
				c-85.73-11.19,0.08-86.52,32.06-90.43s22.9-29.08,49.87,2.1s-6.69,37.15,25.92,48.47s52.61,15.57,30.64,46.15
				s-86.44,36.76-72.48,4.9S69.1,73.96,52.12,71.74z"/>
		</g>
	</g>
</g>
<g id="Ebene_1">
</g>
<g id="text">
	<path class="st2" d="M42.69,24.13c-0.23-0.26-0.56-0.4-0.9-0.4h-1.54V21.8c0-0.67-0.55-1.21-1.22-1.21H32.2h-3.77h-4.69
		c-0.67,0-1.22,0.54-1.22,1.21v4.57v3.62v11.09c0,0.67,0.54,1.22,1.22,1.22h1.09h14.2h1.09c0.62,0,1.15-0.47,1.21-1.09l1.66-16.14
		C43.03,24.73,42.92,24.39,42.69,24.13z M39.03,41.09h-14.2h-1.09V21.8h15.29V41.09z M40.25,39.84v-14.9h1.54L40.25,39.84z"/>
	<path class="st2" d="M63.65,67.47c0-0.01,0-0.02,0-0.03c-0.03-0.05-0.06-0.1-0.09-0.14c-0.01-0.01-0.01-0.02-0.02-0.03l-0.01-0.02
		c0,0-0.01-0.01-0.02-0.02l-1.76-2.27l-3.01-3.87V45.36c0-0.42-0.33-0.76-0.76-0.76H32.53c-0.42,0-0.76,0.33-0.76,0.76v15.74
		l-4.1,5.27L27,67.24c-0.01,0.01-0.01,0.02-0.03,0.02l-0.01,0.02c-0.01,0.01-0.01,0.02-0.02,0.03c-0.03,0.04-0.05,0.09-0.08,0.14
		c0,0.01,0,0.02,0,0.03c-0.07,0.15-0.11,0.33-0.11,0.52c0,0.58,0.36,1.05,0.81,1.05h1.9h5.43h2.06h22.31h3.69
		c0.45,0,0.81-0.47,0.81-1.05C63.76,67.8,63.72,67.63,63.65,67.47z"/>
	<path class="st3" d="M64.72,23.95l-6.38-4.24c-0.67-0.45-1.58-0.26-2.03,0.41l-9.74,14.66c-0.45,0.67-0.26,1.58,0.41,2.03
		l6.38,4.24c0.67,0.45,1.58,0.27,2.03-0.41l9.74-14.66C65.58,25.3,65.4,24.39,64.72,23.95z M59.25,21.24
		c0.04-0.06,0.11-0.07,0.17-0.03l3.56,2.37c0.06,0.04,0.07,0.11,0.03,0.17c-0.04,0.06-0.11,0.07-0.17,0.03l-3.56-2.37
		C59.23,21.37,59.21,21.3,59.25,21.24z M51.39,38.52c-0.23,0.34-0.69,0.44-1.04,0.21c-0.34-0.23-0.44-0.69-0.21-1.04
		c0.23-0.34,0.69-0.44,1.04-0.21C51.52,37.71,51.62,38.18,51.39,38.52z M64.09,26.45l-8.35,12.57c-0.25,0.38-0.78,0.47-1.17,0.2
		l-6.33-4.21c-0.4-0.26-0.52-0.79-0.27-1.16l8.35-12.57c0.25-0.38,0.78-0.47,1.17-0.2l6.33,4.21
		C64.22,25.55,64.34,26.07,64.09,26.45z"/>
	<path class="st0" d="M59.25,21.24c0.04-0.06,0.11-0.07,0.17-0.03l3.56,2.37c0.06,0.04,0.07,0.11,0.03,0.17
		c-0.04,0.06-0.11,0.07-0.17,0.03l-3.56-2.37C59.23,21.37,59.21,21.3,59.25,21.24z"/>
	<path class="st0" d="M51.39,38.52c-0.23,0.34-0.69,0.44-1.04,0.21c-0.34-0.23-0.44-0.69-0.21-1.04c0.23-0.34,0.69-0.44,1.04-0.21
		C51.52,37.71,51.62,38.18,51.39,38.52z"/>
	<path class="st0" d="M44.31,30.18c-0.11-0.07-0.19-0.19-0.21-0.32c-0.33-1.92,0.21-4.11,1.47-6.01c1.34-2.02,3.35-3.43,5.36-3.76
		c0.27-0.04,0.52,0.14,0.56,0.4c0.04,0.27-0.14,0.52-0.4,0.56c-1.75,0.29-3.51,1.53-4.71,3.33c-1.12,1.69-1.6,3.62-1.32,5.3
		c0.05,0.27-0.13,0.52-0.4,0.56C44.53,30.27,44.41,30.24,44.31,30.18z"/>
	<path class="st0" d="M46.8,29.23c-0.11-0.07-0.19-0.18-0.21-0.32c-0.24-1.31,0.11-2.79,0.96-4.06c0.9-1.36,2.27-2.3,3.64-2.51
		c0.27-0.04,0.52,0.14,0.56,0.41c0.04,0.27-0.14,0.52-0.41,0.56c-1.11,0.17-2.23,0.95-2.98,2.08c-0.71,1.07-1.01,2.29-0.81,3.35
		c0.05,0.27-0.13,0.52-0.39,0.57C47.03,29.33,46.91,29.3,46.8,29.23z"/>
	<path class="st0" d="M60.55,40.97c-0.1-0.07-0.18-0.17-0.21-0.3c-0.06-0.26,0.1-0.52,0.37-0.59c1.66-0.38,3.26-1.57,4.38-3.27
		c1.2-1.8,1.66-3.91,1.25-5.63c-0.06-0.26,0.1-0.53,0.36-0.59c0.26-0.06,0.52,0.1,0.59,0.36c0.48,1.99-0.04,4.38-1.38,6.4
		c-1.26,1.9-3.07,3.24-4.98,3.68C60.8,41.07,60.66,41.04,60.55,40.97z"/>
	<path class="st0" d="M60.46,38.31c-0.1-0.07-0.18-0.17-0.21-0.3c-0.06-0.26,0.11-0.52,0.37-0.58c1.05-0.23,2.06-0.98,2.77-2.04
		c0.75-1.13,1.04-2.46,0.77-3.55c-0.07-0.26,0.09-0.53,0.35-0.59c0.26-0.07,0.53,0.09,0.59,0.35c0.34,1.35,0,2.97-0.9,4.33
		c-0.85,1.28-2.08,2.17-3.38,2.46C60.7,38.41,60.56,38.38,60.46,38.31z"/>
	<g>
		<rect x="35.36" y="58.01" class="st0" width="9.64" height="0.91"/>
		<rect x="35.36" y="56.59" class="st4" width="9.64" height="0.91"/>
		<rect x="35.36" y="55.14" class="st4" width="9.64" height="0.91"/>
		<rect x="35.36" y="53.68" class="st4" width="9.64" height="0.91"/>
		<rect x="45.68" y="47.24" class="st4" width="9.65" height="5.53"/>
		<rect x="45.68" y="58.01" class="st0" width="9.65" height="0.91"/>
		<rect x="45.68" y="56.59" class="st0" width="9.65" height="0.91"/>
		<rect x="45.68" y="55.14" class="st0" width="9.65" height="0.91"/>
		<rect x="45.68" y="53.68" class="st0" width="9.65" height="0.91"/>
		<polyline class="st5" points="35.37,50.47 37.93,50.47 37.93,52.77 35.37,52.77 35.37,50.47 		"/>
		<polyline class="st6" points="38.84,48.8 41.39,48.8 41.39,52.77 38.84,52.77 38.84,48.8 		"/>
		<polyline class="st7" points="42.31,47.24 44.85,47.24 44.85,52.77 42.31,52.77 42.31,47.24 		"/>
	</g>
	<g>
		<rect x="24.47" y="31.18" class="st0" width="6.54" height="0.62"/>
		<rect x="24.47" y="30.22" class="st0" width="6.54" height="0.62"/>
		<rect x="24.47" y="32.14" class="st0" width="6.54" height="0.62"/>
		<rect x="24.47" y="33.1" class="st0" width="6.54" height="0.62"/>
		<rect x="24.47" y="34.07" class="st0" width="6.54" height="0.62"/>
		<rect x="24.47" y="35.03" class="st0" width="6.54" height="0.62"/>
		<rect x="24.47" y="35.99" class="st0" width="6.54" height="0.62"/>
		<rect x="24.47" y="36.95" class="st0" width="6.54" height="0.62"/>
		<rect x="24.47" y="37.91" class="st0" width="6.54" height="0.62"/>
		<rect x="24.47" y="38.88" class="st0" width="6.54" height="0.62"/>
		<rect x="24.47" y="39.84" class="st0" width="6.54" height="0.62"/>
		<rect x="24.47" y="29.26" class="st4" width="6.54" height="0.62"/>
		<rect x="24.47" y="28.27" class="st4" width="6.54" height="0.62"/>
		<rect x="24.47" y="27.29" class="st4" width="6.54" height="0.62"/>
		<rect x="31.48" y="22.91" class="st4" width="6.54" height="3.75"/>
		<rect x="31.48" y="30.22" class="st0" width="6.54" height="0.62"/>
		<rect x="31.48" y="31.18" class="st0" width="6.54" height="0.62"/>
		<rect x="31.48" y="32.14" class="st0" width="6.54" height="0.62"/>
		<rect x="31.48" y="33.1" class="st0" width="6.54" height="0.62"/>
		<rect x="31.48" y="34.07" class="st0" width="6.54" height="0.62"/>
		<rect x="31.48" y="35.03" class="st0" width="6.54" height="0.62"/>
		<rect x="31.48" y="35.99" class="st0" width="6.54" height="0.62"/>
		<rect x="31.48" y="36.95" class="st0" width="6.54" height="3.5"/>
		<rect x="31.48" y="29.26" class="st0" width="6.54" height="0.62"/>
		<rect x="31.48" y="28.27" class="st0" width="6.54" height="0.62"/>
		<rect x="31.48" y="27.29" class="st0" width="6.54" height="0.62"/>
		<polyline class="st5" points="24.48,24.78 26.21,24.78 26.21,26.67 24.48,26.67 24.48,24.78 		"/>
		<polyline class="st6" points="26.83,23.89 28.56,23.89 28.56,26.67 26.83,26.67 26.83,23.89 		"/>
		<polyline class="st7" points="29.18,22.91 30.91,22.91 30.91,26.67 29.18,26.67 29.18,22.91 		"/>
	</g>
	<g>
		<defs>
			<path id="SVGID_00000023961992325224670250000018162971120848037031_" d="M64.09,26.45l-8.35,12.57
				c-0.25,0.38-0.78,0.47-1.17,0.2l-6.33-4.21c-0.4-0.26-0.52-0.79-0.27-1.16l8.35-12.57c0.25-0.38,0.78-0.47,1.17-0.2l6.33,4.21
				C64.22,25.55,64.34,26.07,64.09,26.45z"/>
		</defs>
		<clipPath id="SVGID_00000044898352501414247210000014319036232747095476_">
			<use xlink:href="#SVGID_00000023961992325224670250000018162971120848037031_"  style="overflow:visible;"/>
		</clipPath>
		<g style="clip-path:url(#SVGID_00000044898352501414247210000014319036232747095476_);">
			
				<rect x="54.66" y="27.44" transform="matrix(0.5532 -0.8331 0.8331 0.5532 -1.772 60.0143)" class="st0" width="0.8" height="8.44"/>
			
				<rect x="53.29" y="29.51" transform="matrix(0.5532 -0.8331 0.8331 0.5532 -4.1084 59.7944)" class="st0" width="0.8" height="8.44"/>
			
				<rect x="52.6" y="30.54" transform="matrix(0.5532 -0.8331 0.8331 0.5532 -5.2766 59.6845)" class="st0" width="0.8" height="8.44"/>
			
				<rect x="51.91" y="31.57" transform="matrix(0.5532 -0.8331 0.8331 0.5532 -6.4448 59.5746)" class="st0" width="0.8" height="8.44"/>
			
				<rect x="51.23" y="32.61" transform="matrix(0.5532 -0.8331 0.8331 0.5532 -7.613 59.4647)" class="st0" width="0.8" height="8.44"/>
			
				<rect x="55.35" y="26.4" transform="matrix(0.5532 -0.8331 0.8331 0.5532 -0.6038 60.1242)" class="st4" width="0.8" height="8.44"/>
			
				<rect x="56.05" y="25.35" transform="matrix(0.5532 -0.8331 0.8331 0.5532 0.5924 60.2368)" class="st4" width="0.8" height="8.44"/>
			
				<rect x="56.75" y="24.29" transform="matrix(0.5532 -0.8331 0.8331 0.5532 1.7878 60.3492)" class="st4" width="0.8" height="8.44"/>
			
				<rect x="53.97" y="28.47" transform="matrix(0.5532 -0.8331 0.8331 0.5532 -2.9432 59.9024)" class="st0" width="0.8" height="8.44"/>
			<polyline class="st5" points="55.34,23.64 57.2,24.87 56.17,26.42 54.31,25.19 55.34,23.64 			"/>
			<polyline class="st6" points="58.79,23.92 60.65,25.15 58.7,28.1 56.84,26.86 58.79,23.92 			"/>
			<polyline class="st7" points="62.04,24.51 63.9,25.74 61.22,29.77 59.36,28.54 62.04,24.51 			"/>
		</g>
	</g>
	<path class="st3" d="M63.65,67.47c0-0.01,0-0.02,0-0.03c-0.03-0.05-0.06-0.1-0.09-0.14c-0.01-0.01-0.01-0.02-0.02-0.03l-0.01-0.02
		c0,0-0.01-0.01-0.02-0.02l-1.76-2.27l-3.01-3.87V45.36c0-0.42-0.33-0.76-0.76-0.76H32.53c-0.42,0-0.76,0.33-0.76,0.76v15.74
		l-4.1,5.27L27,67.24c-0.01,0.01-0.01,0.02-0.03,0.02l-0.01,0.02c-0.01,0.01-0.01,0.02-0.02,0.03c-0.03,0.04-0.05,0.09-0.08,0.14
		c0,0.01,0,0.02,0,0.03c-0.07,0.15-0.11,0.33-0.11,0.52c0,0.58,0.36,1.05,0.81,1.05h1.9h5.43h2.06h22.31h3.69
		c0.45,0,0.81-0.47,0.81-1.05C63.76,67.8,63.72,67.63,63.65,67.47z M49.68,68.29h-8.85c-0.11,0-0.2-0.26-0.2-0.59
		c0-0.33,0.09-0.6,0.2-0.6h8.85c0.11,0,0.2,0.27,0.2,0.6C49.89,68.03,49.79,68.29,49.68,68.29z M41.11,65.4l1.24-2.53
		c0.08-0.17,0.28-0.28,0.52-0.28h2.22h0.34h2.22c0.23,0,0.44,0.11,0.52,0.28l1.23,2.53c0.07,0.13,0.05,0.27-0.06,0.39
		c-0.1,0.12-0.27,0.18-0.46,0.18h-3.46h-0.34h-3.46c-0.18,0-0.35-0.07-0.46-0.18C41.07,65.67,41.04,65.53,41.11,65.4z M56.66,59.5
		h-22.8V46.07h22.8V59.5z M40.83,67.09h8.85 M45.43,62.6h2.22"/>
	<path class="st0" d="M49.68,68.29h-8.85c-0.11,0-0.2-0.26-0.2-0.59c0-0.33,0.09-0.6,0.2-0.6h8.85c0.11,0,0.2,0.27,0.2,0.6
		C49.89,68.03,49.79,68.29,49.68,68.29z"/>
	<path class="st0" d="M41.11,65.4l1.24-2.53c0.08-0.17,0.28-0.28,0.52-0.28h2.22h0.34h2.22c0.23,0,0.44,0.11,0.52,0.28l1.23,2.53
		c0.07,0.13,0.05,0.27-0.06,0.39c-0.1,0.12-0.27,0.18-0.46,0.18h-3.46h-0.34h-3.46c-0.18,0-0.35-0.07-0.46-0.18
		C41.07,65.67,41.04,65.53,41.11,65.4z"/>
	<path class="st3" d="M42.69,24.13c-0.23-0.26-0.56-0.4-0.9-0.4h-1.54V21.8c0-0.67-0.55-1.21-1.22-1.21H32.2h-3.77h-4.69
		c-0.67,0-1.22,0.54-1.22,1.21v4.57v3.62v11.09c0,0.67,0.54,1.22,1.22,1.22h1.09h14.2h1.09c0.62,0,1.15-0.47,1.21-1.09l1.66-16.14
		C43.03,24.73,42.92,24.39,42.69,24.13z M39.03,41.09h-14.2h-1.09V21.8h15.29V41.09z M40.25,39.84v-14.9h1.54L40.25,39.84z"/>
	<polygon class="st0" points="40.25,24.94 40.25,39.84 41.78,24.94 	"/>
</g>
</svg>
