<?xml version="1.0" encoding="utf-8"?>
<!-- Generator: Adobe Illustrator 26.0.3, SVG Export Plug-In . SVG Version: 6.00 Build 0)  -->
<svg version="1.1" xmlns="http://www.w3.org/2000/svg" xmlns:xlink="http://www.w3.org/1999/xlink" x="0px" y="0px"
	 viewBox="0 0 90 86.08" style="enable-background:new 0 0 90 86.08;" xml:space="preserve">
<style type="text/css">
	.st0{fill:#E5E5E5;}
	.st1{clip-path:url(#SVGID_00000136406314239701647600000003256409512698905256_);fill:#FFFFFF;}
	.st2{fill:#FFFFFF;stroke:#FFFFFF;stroke-width:2.126;stroke-miterlimit:10;}
	.st3{fill:#C52D23;}
	.st4{fill:none;stroke:#E5E5E5;stroke-width:2.126;stroke-miterlimit:10;}
	.st5{fill:#333333;}
</style>
<g id="HG_grau">
</g>
<g id="bg">
	<g>
		<path class="st0" d="M87,86.09H3c-1.66,0-3-1.34-3-3v-80c0-1.66,1.34-3,3-3h84c1.66,0,3,1.34,3,3v80
			C90,84.75,88.66,86.09,87,86.09z"/>
		<g>
			<defs>
				<path id="SVGID_1_" d="M87,86.1H3c-1.66,0-3-1.34-3-3v-80c0-1.66,1.34-3,3-3h84c1.66,0,3,1.34,3,3v80
					C90,84.75,88.66,86.1,87,86.1z"/>
			</defs>
			<clipPath id="SVGID_00000032628303287557557200000012946829228312944773_">
				<use xlink:href="#SVGID_1_"  style="overflow:visible;"/>
			</clipPath>
			<path style="clip-path:url(#SVGID_00000032628303287557557200000012946829228312944773_);fill:#FFFFFF;" d="M78.54,57.13
				c49.37,43.63-36.96,54.61-58.82,43.43s-26.87,8.6-30.6-22.6S9.2,57.35-6.57,36.29S-33.15,4.02-6.23-5.92S64.04,7.73,41.64,21.9
				S68.76,48.48,78.54,57.13z"/>
		</g>
	</g>
</g>
<g id="Ebene_1">
</g>
<g id="text">
	<path class="st2" d="M45,31.99c9.27,0,16.78,8.38,16.78,9.7S54.27,51.38,45,51.38c-9.27,0-16.78-8.46-16.78-9.69
		C28.22,40.46,35.73,31.99,45,31.99z"/>
	<path class="st2" d="M69.63,17.34c-0.08-0.08-0.2-0.11-0.31-0.08l-6.14,1.65c-0.11,0.03-0.2,0.12-0.23,0.23
		c-0.03,0.11,0,0.23,0.08,0.31l1.35,1.35l-8.02,8.02c-0.06,0.06-0.09,0.14-0.09,0.23s0.03,0.17,0.09,0.23l1.35,1.35
		c0.06,0.06,0.14,0.09,0.23,0.09c0.08,0,0.16-0.03,0.23-0.09l8.02-8.02l1.34,1.34c0.06,0.06,0.14,0.09,0.23,0.09
		c0.03,0,0.06,0,0.08-0.01c0.11-0.03,0.2-0.12,0.23-0.23l1.65-6.14C69.74,17.54,69.71,17.42,69.63,17.34z"/>
	<path class="st3" d="M69.63,17.34c-0.08-0.08-0.2-0.11-0.31-0.08l-6.14,1.65c-0.11,0.03-0.2,0.12-0.23,0.23
		c-0.03,0.11,0,0.23,0.08,0.31l1.35,1.35l-8.02,8.02c-0.06,0.06-0.09,0.14-0.09,0.23s0.03,0.17,0.09,0.23l1.35,1.35
		c0.06,0.06,0.14,0.09,0.23,0.09c0.08,0,0.16-0.03,0.23-0.09l8.02-8.02l1.34,1.34c0.06,0.06,0.14,0.09,0.23,0.09
		c0.03,0,0.06,0,0.08-0.01c0.11-0.03,0.2-0.12,0.23-0.23l1.65-6.14C69.74,17.54,69.71,17.42,69.63,17.34z"/>
	<path class="st3" d="M20.08,17.34c-0.08,0.08-0.11,0.2-0.08,0.31l1.65,6.14c0.03,0.11,0.12,0.2,0.23,0.23
		c0.11,0.03,0.23,0,0.31-0.08l1.35-1.35l8.02,8.02c0.06,0.06,0.14,0.09,0.23,0.09s0.17-0.03,0.23-0.09l1.35-1.35
		c0.06-0.06,0.09-0.14,0.09-0.23c0-0.08-0.03-0.16-0.09-0.23l-8.02-8.02l1.34-1.34c0.06-0.06,0.09-0.14,0.09-0.23
		c0-0.03,0-0.06-0.01-0.08c-0.03-0.11-0.12-0.2-0.23-0.23l-6.14-1.65C20.28,17.23,20.16,17.26,20.08,17.34z"/>
	<path class="st3" d="M20.08,66.32c0.08,0.08,0.2,0.11,0.31,0.08l6.14-1.65c0.11-0.03,0.2-0.12,0.23-0.23
		c0.03-0.11,0-0.23-0.08-0.31l-1.35-1.35l8.02-8.02c0.06-0.06,0.09-0.14,0.09-0.23s-0.03-0.17-0.09-0.23l-1.35-1.35
		c-0.06-0.06-0.14-0.09-0.23-0.09c-0.08,0-0.16,0.03-0.23,0.09l-8.02,8.02l-1.34-1.34c-0.06-0.06-0.14-0.09-0.23-0.09
		c-0.03,0-0.06,0-0.08,0.01c-0.11,0.03-0.2,0.12-0.23,0.23L20,66.01C19.97,66.12,20,66.24,20.08,66.32z"/>
	<path class="st3" d="M69.63,66.32c0.08-0.08,0.11-0.2,0.08-0.31l-1.65-6.14c-0.03-0.11-0.12-0.2-0.23-0.23
		c-0.11-0.03-0.23,0-0.31,0.08l-1.35,1.35l-8.02-8.02c-0.06-0.06-0.14-0.09-0.23-0.09s-0.17,0.03-0.23,0.09l-1.35,1.35
		c-0.06,0.06-0.09,0.14-0.09,0.23c0,0.08,0.03,0.16,0.09,0.23l8.02,8.02l-1.34,1.34c-0.06,0.06-0.09,0.14-0.09,0.23
		c0,0.03,0,0.06,0.01,0.08c0.03,0.11,0.12,0.2,0.23,0.23l6.14,1.65C69.43,66.43,69.55,66.4,69.63,66.32z"/>
	<g>
		<path class="st4" d="M45.51,33.89c-5.99,0-13.82,5.48-13.82,7.07c0,1.59,7.81,7.07,13.82,7.07c6.02,0,13.82-6.21,13.82-7.07
			C59.33,40.11,51.51,33.89,45.51,33.89z"/>
		<path class="st5" d="M45,31.99c-9.27,0-16.78,8.47-16.78,9.7c0,1.23,7.51,9.69,16.78,9.69c9.27,0,16.78-8.37,16.78-9.69
			C61.78,40.37,54.27,31.99,45,31.99z M44.82,48.92c-5.79,0-13.33-5.6-13.33-7.23c0-1.63,7.55-7.24,13.33-7.24
			c5.78,0,13.33,6.36,13.33,7.24C58.15,42.57,50.63,48.92,44.82,48.92z"/>
		<path class="st5" d="M42,40.58c0,2.67,2.16,4.83,4.82,4.83c0.53,0,1.03-0.09,1.51-0.24c1.93-0.63,3.32-2.45,3.32-4.59
			c0-2.66-2.16-4.82-4.83-4.82c-1.29,0-2.46,0.51-3.32,1.34C42.58,37.98,42,39.21,42,40.58z"/>
		<path class="st0" d="M48.66,37.56c0.95,0,1.71,0.77,1.71,1.71c0,0.94-0.76,1.71-1.71,1.71c-0.94,0-1.71-0.77-1.71-1.71
			C46.95,38.33,47.72,37.56,48.66,37.56z"/>
	</g>
</g>
</svg>
