<?xml version="1.0" encoding="UTF-8"?>
<svg id="exportSvg" xmlns="http://www.w3.org/2000/svg" version="1.1" viewBox="0 0 928.4 239">
  <!-- Generator: Adobe Illustrator 30.0.0, SVG Export Plug-In . SVG Version: 2.1.1 Build 123)  -->
  <defs>
    <style>
      .st0 {
        stroke: #000;
        stroke-miterlimit: 10;
        stroke-width: .5px;
      }

      .st0, .st1 {
        fill: none;
      }

      .st2 {
        fill: #757575;
      }

      .st2, .st3, .st4 {
        isolation: isolate;
      }

      .st2, .st4 {
        font-family: NotoSans, 'Noto Sans';
        font-size: 12px;
      }

      .st5 {
        fill: #728cd7;
      }

      .st1 {
        stroke: #757575;
      }
    </style>
  </defs>
  <g id="__svelte-dw-svg">
    <g id="container-svg_container-body-svg_datawrapper-cSnJ9-k7lwvj-svg">
      <g id="container-svg_container-bodyTop-svg_datawrapper-cSnJ9-lmtz6e-svg">
        <g id="container-svg_container-bodyCenter-svg_datawrapper-cSnJ9-1a857wv-svg">
          <g id="chart-svg">
            <g id="grid-container-svg">
              <g id="grid-svg">
                <g id="x-grid-lines-svg_grid-x-svg_datawrapper-cSnJ9-bgupc2-svg">
                  <line class="st1" x1="310.5" y1="191" x2="310.5" y2="21"/>
                  <line class="st1" x1="370.6" y1="191" x2="370.6" y2="21"/>
                  <line class="st1" x1="430.7" y1="191" x2="430.7" y2="21"/>
                  <line class="st1" x1="490.8" y1="191" x2="490.8" y2="21"/>
                  <line class="st1" x1="551" y1="191" x2="551" y2="21"/>
                  <line class="st1" x1="611.1" y1="191" x2="611.1" y2="21"/>
                  <line class="st1" x1="671.2" y1="191" x2="671.2" y2="21"/>
                  <line class="st1" x1="731.3" y1="191" x2="731.3" y2="21"/>
                </g>
              </g>
            </g>
            <g class="st3">
              <g class="st3">
                <g class="st3">
                  <text class="st4" transform="translate(201.5 42.3)"><tspan x="0" y="0">Label1</tspan></text>
                </g>
              </g>
            </g>
            <rect class="st5" x="250.3" y="31" width="186.8" height="17"/>
            <g class="st3">
              <g class="st3">
                <g class="st3">
                  <text class="st4" transform="translate(201.5 61.3)"><tspan x="0" y="0">Label2</tspan></text>
                </g>
              </g>
            </g>
            <rect class="st5" x="250.3" y="50" width="117.2" height="17"/>
            <g class="st3">
              <g class="st3">
                <g class="st3">
                  <text class="st4" transform="translate(201.5 80.3)"><tspan x="0" y="0">Label3</tspan></text>
                </g>
              </g>
            </g>
            <rect class="st5" x="250.3" y="69" width="161.8" height="17"/>
            <g class="st3">
              <g class="st3">
                <g class="st3">
                  <text class="st4" transform="translate(201.5 99.3)"><tspan x="0" y="0">Label4</tspan></text>
                </g>
              </g>
            </g>
            <rect class="st5" x="250.3" y="88" width="264.2" height="17"/>
            <g class="st3">
              <g class="st3">
                <g class="st3">
                  <text class="st4" transform="translate(201.5 118.3)"><tspan x="0" y="0">Label5</tspan></text>
                </g>
              </g>
            </g>
            <rect class="st5" x="250.3" y="107" width="340" height="17"/>
            <g class="st3">
              <g class="st3">
                <g class="st3">
                  <text class="st4" transform="translate(201.5 137.3)"><tspan x="0" y="0">Label6</tspan></text>
                </g>
              </g>
            </g>
            <rect class="st5" x="250.3" y="126" width="487.1" height="17"/>
            <g class="st3">
              <g class="st3">
                <g class="st3">
                  <text class="st4" transform="translate(201.5 156.3)"><tspan x="0" y="0">Label7</tspan></text>
                </g>
              </g>
            </g>
            <rect class="st5" x="250.3" y="145" width="332.1" height="17"/>
            <g class="st3">
              <g class="st3">
                <g class="st3">
                  <text class="st4" transform="translate(201.5 175.3)"><tspan x="0" y="0">Label8</tspan></text>
                </g>
              </g>
            </g>
            <rect class="st5" x="250.3" y="164" width="396.7" height="17"/>
            <g id="grid-container-svg1">
              <g id="grid-svg1">
                <g id="x-tick-labels-svg_grid-x-svg_number-axis-svg_datawrapper-cSnJ9-6boht-svg">
                  <g class="st3">
                    <g class="st3">
                      <g class="st3">
                        <text class="st2" transform="translate(247 13)"><tspan x="0" y="0">0</tspan></text>
                      </g>
                    </g>
                  </g>
                  <g class="st3">
                    <g class="st3">
                      <g class="st3">
                        <text class="st2" transform="translate(303.9 13)"><tspan x="0" y="0">10</tspan></text>
                      </g>
                    </g>
                  </g>
                  <g class="st3">
                    <g class="st3">
                      <g class="st3">
                        <text class="st2" transform="translate(364 13)"><tspan x="0" y="0">20</tspan></text>
                      </g>
                    </g>
                  </g>
                  <g class="st3">
                    <g class="st3">
                      <g class="st3">
                        <text class="st2" transform="translate(424.1 13)"><tspan x="0" y="0">30</tspan></text>
                      </g>
                    </g>
                  </g>
                  <g class="st3">
                    <g class="st3">
                      <g class="st3">
                        <text class="st2" transform="translate(484.2 13)"><tspan x="0" y="0">40</tspan></text>
                      </g>
                    </g>
                  </g>
                  <g class="st3">
                    <g class="st3">
                      <g class="st3">
                        <text class="st2" transform="translate(544.3 13)"><tspan x="0" y="0">50</tspan></text>
                      </g>
                    </g>
                  </g>
                  <g class="st3">
                    <g class="st3">
                      <g class="st3">
                        <text class="st2" transform="translate(604.5 13)"><tspan x="0" y="0">60</tspan></text>
                      </g>
                    </g>
                  </g>
                  <g class="st3">
                    <g class="st3">
                      <g class="st3">
                        <text class="st2" transform="translate(664.6 13)"><tspan x="0" y="0">70</tspan></text>
                      </g>
                    </g>
                  </g>
                  <g class="st3">
                    <g class="st3">
                      <g class="st3">
                        <text class="st2" transform="translate(718.1 13)"><tspan x="0" y="0">80</tspan></text>
                      </g>
                    </g>
                  </g>
                </g>
                <g id="x-base-lines-svg_grid-x-svg_datawrapper-cSnJ9-l0t1pf-svg">
                  <line class="st1" x1="250.3" y1="191" x2="250.3" y2="21"/>
                </g>
              </g>
            </g>
          </g>
        </g>
      </g>
    </g>
  </g>
  <g>
    <line class="st0" x1="110.9" y1="38.1" x2="195.4" y2="38.1"/>
    <path d="M195.3,40c1,0,1.9-.8,1.9-1.9,0-1-.8-1.9-1.9-1.9s-1.9.8-1.9,1.9.8,1.9,1.9,1.9Z"/>
  </g>
  <g>
    <line class="st0" x1="78.4" y1="59" x2="270.5" y2="59"/>
    <path d="M270.5,60.9c1,0,1.9-.8,1.9-1.9s-.8-1.9-1.9-1.9-1.9.8-1.9,1.9.8,1.9,1.9,1.9Z"/>
  </g>
  <g>
    <line class="st0" x1="816.1" y1="95.4" x2="731.5" y2="95.4"/>
    <path d="M731.6,93.5c-1,0-1.9.8-1.9,1.9s.8,1.9,1.9,1.9,1.9-.8,1.9-1.9-.8-1.9-1.9-1.9Z"/>
  </g>
  <g class="st3">
    <g class="st3">
      <g class="st3">
        <text class="st4" transform="translate(49.5 42.4)"><tspan x="0" y="0">Axis Label</tspan></text>
      </g>
    </g>
  </g>
  <g class="st3">
    <g class="st3">
      <g class="st3">
        <text class="st4" transform="translate(50.6 64.1)"><tspan x="0" y="0">Bar</tspan></text>
      </g>
    </g>
  </g>
  <g class="st3">
    <g class="st3">
      <g class="st3">
        <text class="st4" transform="translate(831.4 99.3)"><tspan x="0" y="0">Small Grid Line</tspan></text>
      </g>
    </g>
  </g>
</svg>