<?xml version="1.0" encoding="UTF-8"?>
<svg id="exportSvg" xmlns="http://www.w3.org/2000/svg" version="1.1" xmlns:xlink="http://www.w3.org/1999/xlink" viewBox="0 0 1203.42 402.89">
  <!-- Generator: Adobe Illustrator 30.0.0, SVG Export Plug-In . SVG Version: 2.1.1 Build 123)  -->
  <defs>
    <style>
      .st0 {
        stroke: #000;
        stroke-miterlimit: 10;
      }

      .st0, .st1 {
        stroke-width: .5px;
      }

      .st0, .st2, .st3, .st4, .st5, .st6, .st7 {
        fill: none;
      }

      .st1 {
        fill: #728cd7;
      }

      .st1, .st2 {
        stroke: #fff;
      }

      .st8, .st2, .st9, .st10, .st11, .st12 {
        isolation: isolate;
      }

      .st8, .st2, .st9, .st11, .st12 {
        font-size: 12px;
      }

      .st8, .st2, .st9, .st12 {
        font-family: NotoSans, 'Noto Sans';
      }

      .st8, .st11 {
        fill: #7b7b7b;
      }

      .st2 {
        stroke-linecap: round;
        stroke-linejoin: round;
        stroke-width: 2px;
      }

      .st9 {
        fill: #757575;
      }

      .st13 {
        clip-path: url(#clippath-1);
      }

      .st11 {
        font-family: NotoSans-Bold, 'Noto Sans';
        font-weight: 700;
      }

      .st4, .st6 {
        stroke: #757575;
      }

      .st5, .st7 {
        stroke: #b8b8b8;
      }

      .st14 {
        clip-path: url(#clippath-2);
      }

      .st6 {
        stroke-linecap: square;
      }

      .st15 {
        clip-path: url(#clippath);
      }

      .st7 {
        stroke-dasharray: 2 2;
      }
    </style>
    <clipPath id="clippath">
      <rect class="st3" x="226.71" y="19" width="60.45" height="40.59"/>
    </clipPath>
    <clipPath id="clippath-1">
      <rect class="st3" x="226.71" y="79.59" width="750" height="319"/>
    </clipPath>
    <clipPath id="clippath-2">
      <rect class="st3" x="226.71" y="79.59" width="750" height="319"/>
    </clipPath>
  </defs>
  <g id="__svelte-dw-svg">
    <g id="container-svg_container-body-svg_datawrapper-jB11I-k7lwvj-svg">
      <g id="container-svg_container-bodyTop-svg_datawrapper-jB11I-lmtz6e-svg">
        <g id="container-svg_container-bodyCenter-svg_datawrapper-jB11I-1a857wv-svg">
          <g id="chart-svg">
            <g class="st10">
              <text class="st11" transform="translate(226.71 12)"><tspan x="0" y="0">Variable3</tspan></text>
            </g>
            <g class="st15">
              <g id="group-svg">
                <g id="group-svg1" data-name="group-svg">
                  <g id="group-svg2" data-name="group-svg">
                    <path class="st5" d="M246.69,54.42c0,2.58-2.1,4.68-4.68,4.68s-4.68-2.1-4.68-4.68,2.1-4.68,4.68-4.68,4.68,2.1,4.68,4.68"/>
                  </g>
                  <line class="st7" x1="242.01" y1="49.74" x2="266.81" y2="49.74"/>
                  <g class="st10">
                    <text class="st9" transform="translate(279.07 53.74)"><tspan x="0" y="0">3</tspan></text>
                  </g>
                </g>
                <g id="group-svg3" data-name="group-svg">
                  <g id="group-svg4" data-name="group-svg">
                    <path class="st5" d="M256.81,44.3c0,8.17-6.63,14.8-14.8,14.8s-14.8-6.63-14.8-14.8,6.63-14.8,14.8-14.8,14.8,6.63,14.8,14.8"/>
                  </g>
                  <line class="st7" x1="242.01" y1="29.5" x2="266.81" y2="29.5"/>
                  <g class="st10">
                    <text class="st9" transform="translate(272.46 33.5)"><tspan x="0" y="0">30</tspan></text>
                  </g>
                </g>
              </g>
            </g>
            <g class="st13">
              <g id="group-svg5" data-name="group-svg">
                <g id="group-svg6" data-name="group-svg">
                  <g id="grid-svg">
                    <g id="y-grid-svg">
                      <g id="y-grid-lines-svg_grid-y-svg_datawrapper-jB11I-1e0z195-svg">
                        <line class="st4" x1="270.29" y1="88.59" x2="969.29" y2="88.59"/>
                        <line class="st4" x1="270.29" y1="160.34" x2="969.29" y2="160.34"/>
                        <line class="st4" x1="270.29" y1="232.09" x2="969.29" y2="232.09"/>
                        <line class="st4" x1="270.29" y1="303.84" x2="969.29" y2="303.84"/>
                        <line class="st4" x1="270.29" y1="375.59" x2="969.29" y2="375.59"/>
                      </g>
                    </g>
                    <g id="x-grid-svg">
                      <g id="x-grid-lines-svg_grid-x-svg_datawrapper-jB11I-1e0z195-svg">
                        <line class="st4" x1="270.29" y1="375.59" x2="270.29" y2="88.59"/>
                        <line class="st4" x1="370.15" y1="375.59" x2="370.15" y2="88.59"/>
                        <line class="st4" x1="470" y1="375.59" x2="470" y2="88.59"/>
                        <line class="st4" x1="569.86" y1="375.59" x2="569.86" y2="88.59"/>
                        <line class="st4" x1="669.72" y1="375.59" x2="669.72" y2="88.59"/>
                        <line class="st4" x1="769.57" y1="375.59" x2="769.57" y2="88.59"/>
                        <line class="st4" x1="869.43" y1="375.59" x2="869.43" y2="88.59"/>
                        <line class="st4" x1="969.29" y1="375.59" x2="969.29" y2="88.59"/>
                      </g>
                    </g>
                  </g>
                  <g id="dots-svg">
                    <g id="dot-svg">
                      <path class="st1" d="M441.31,161.35c0,8.28-6.72,15-15,15s-15-6.72-15-15,6.72-15,15-15,15,6.72,15,15"/>
                    </g>
                    <g id="dot-svg1" data-name="dot-svg">
                      <path class="st1" d="M880.04,340.85c0,7.32-5.93,13.26-13.25,13.26-7.32,0-13.26-5.93-13.26-13.25h0c0-7.32,5.93-13.26,13.25-13.26,7.32,0,13.26,5.93,13.26,13.25h0"/>
                    </g>
                    <g id="dot-svg2" data-name="dot-svg">
                      <path class="st1" d="M531.98,273.11c0,7.11-5.76,12.87-12.87,12.87s-12.87-5.76-12.87-12.87,5.76-12.87,12.87-12.87,12.87,5.76,12.87,12.87"/>
                    </g>
                    <g id="dot-svg3" data-name="dot-svg">
                      <path class="st1" d="M592.7,315.75c0,5.98-4.84,10.82-10.82,10.82-5.98,0-10.82-4.84-10.82-10.82h0c0-5.98,4.84-10.82,10.82-10.82,5.98,0,10.82,4.84,10.82,10.82h0"/>
                    </g>
                    <g id="dot-svg4" data-name="dot-svg">
                      <path class="st1" d="M835.44,339.58c0,5.45-4.41,9.86-9.86,9.86-5.45,0-9.86-4.41-9.86-9.86h0c0-5.45,4.41-9.86,9.86-9.87,5.45,0,9.86,4.41,9.86,9.86h0"/>
                    </g>
                    <g id="dot-svg5" data-name="dot-svg">
                      <path class="st1" d="M547.43,288.74c0,5.16-4.18,9.35-9.34,9.35-5.16,0-9.35-4.18-9.35-9.34h0c0-5.16,4.18-9.35,9.34-9.35,5.16,0,9.35,4.18,9.35,9.34h0"/>
                    </g>
                    <g id="dot-svg6" data-name="dot-svg">
                      <path class="st1" d="M499.23,260.16c0,4.86-3.94,8.8-8.8,8.8s-8.8-3.94-8.8-8.8h0c0-4.87,3.94-8.81,8.8-8.81s8.8,3.94,8.8,8.8h0"/>
                    </g>
                    <g id="dot-svg7" data-name="dot-svg">
                      <path class="st1" d="M653.38,320.83c0,4.57-3.71,8.28-8.28,8.28-4.57,0-8.28-3.71-8.28-8.28h0c0-4.58,3.71-8.29,8.28-8.29,4.57,0,8.28,3.71,8.28,8.28h0"/>
                    </g>
                    <g id="dot-svg8" data-name="dot-svg">
                      <path class="st1" d="M428.08,221.2c0,4.27-3.46,7.73-7.73,7.73-4.27,0-7.73-3.46-7.73-7.73h0c0-4.27,3.46-7.73,7.73-7.73,4.27,0,7.73,3.46,7.73,7.73h0"/>
                    </g>
                    <g id="dot-svg9" data-name="dot-svg">
                      <path class="st1" d="M868.43,338.73c0,4.02-3.26,7.29-7.29,7.29s-7.29-3.26-7.29-7.29,3.26-7.29,7.29-7.29,7.29,3.26,7.29,7.29"/>
                    </g>
                    <g id="dot-svg10" data-name="dot-svg">
                      <path class="st1" d="M608.13,302.49c0,4.02-3.25,7.27-7.27,7.27-4.02,0-7.27-3.25-7.27-7.27h0c0-4.02,3.25-7.27,7.27-7.27,4.02,0,7.27,3.25,7.27,7.27h0"/>
                    </g>
                    <g id="dot-svg11" data-name="dot-svg">
                      <path class="st1" d="M383.01,145.42c0,3.67-2.97,6.64-6.64,6.64-3.67,0-6.64-2.97-6.64-6.64h0c0-3.67,2.97-6.64,6.64-6.64,3.67,0,6.64,2.97,6.64,6.64h0"/>
                    </g>
                    <g id="dot-svg12" data-name="dot-svg">
                      <path class="st1" d="M655.83,323.54c0,3.57-2.89,6.46-6.46,6.46s-6.46-2.89-6.46-6.46,2.89-6.46,6.46-6.46,6.46,2.89,6.46,6.46"/>
                    </g>
                    <g id="dot-svg13" data-name="dot-svg">
                      <path class="st1" d="M569.35,302.04c0,3.47-2.81,6.28-6.28,6.28-3.47,0-6.28-2.81-6.28-6.28h0c0-3.47,2.81-6.28,6.28-6.28,3.47,0,6.28,2.81,6.28,6.28h0"/>
                    </g>
                    <g id="dot-svg14" data-name="dot-svg">
                      <path class="st1" d="M502.2,277.95c0,2.23-1.81,4.05-4.05,4.05s-4.05-1.81-4.05-4.05,1.81-4.05,4.05-4.05,4.05,1.81,4.05,4.05"/>
                    </g>
                  </g>
                </g>
              </g>
            </g>
            <g class="st14">
              <g id="front-svg">
                <g id="group-svg7" data-name="group-svg">
                  <g id="grid-svg1" data-name="grid-svg">
                    <g id="y-grid-svg1" data-name="y-grid-svg">
                      <g id="y-tick-labels-svg_number-axis-svg_grid-y-svg_datawrapper-jB11I-15wn2db-svg">
                        <g class="st10">
                          <text class="st9" transform="translate(258.68 379.59)"><tspan x="0" y="0">0</tspan></text>
                        </g>
                        <g class="st10">
                          <text class="st9" transform="translate(229.12 307.84)"><tspan x="0" y="0">20 000</tspan></text>
                        </g>
                        <g class="st10">
                          <text class="st9" transform="translate(229.12 236.09)"><tspan x="0" y="0">40 000</tspan></text>
                        </g>
                        <g class="st10">
                          <text class="st9" transform="translate(229.12 164.34)"><tspan x="0" y="0">60 000</tspan></text>
                        </g>
                        <g class="st10">
                          <text class="st9" transform="translate(229.12 92.59)"><tspan x="0" y="0">80 000</tspan></text>
                        </g>
                      </g>
                      <g id="y-base-lines-svg_grid-y-svg_datawrapper-jB11I-c64oop-svg">
                        <line class="st6" x1="969.29" y1="375.59" x2="270.29" y2="375.59"/>
                      </g>
                    </g>
                    <g id="x-grid-svg1" data-name="x-grid-svg">
                      <g id="x-tick-labels-svg_number-axis-svg_grid-x-svg_datawrapper-jB11I-1hw4nop-svg_svelte-qac4x9-svg">
                        <g class="st10">
                          <text class="st9" transform="translate(266.98 392.59)"><tspan x="0" y="0">0</tspan></text>
                        </g>
                        <g class="st10">
                          <text class="st9" transform="translate(366.84 392.59)"><tspan x="0" y="0">5</tspan></text>
                        </g>
                        <g class="st10">
                          <text class="st9" transform="translate(463.39 392.59)"><tspan x="0" y="0">10</tspan></text>
                        </g>
                        <g class="st10">
                          <text class="st9" transform="translate(563.25 392.59)"><tspan x="0" y="0">15</tspan></text>
                        </g>
                        <g class="st10">
                          <text class="st9" transform="translate(663.11 392.59)"><tspan x="0" y="0">20</tspan></text>
                        </g>
                        <g class="st10">
                          <text class="st9" transform="translate(762.96 392.59)"><tspan x="0" y="0">25</tspan></text>
                        </g>
                        <g class="st10">
                          <text class="st9" transform="translate(862.82 392.59)"><tspan x="0" y="0">30</tspan></text>
                        </g>
                        <g class="st10">
                          <text class="st9" transform="translate(962.68 392.59)"><tspan x="0" y="0">35</tspan></text>
                        </g>
                      </g>
                      <g id="x-base-lines-svg_grid-x-svg_datawrapper-jB11I-c64oop-svg">
                        <line class="st6" x1="270.29" y1="375.59" x2="270.29" y2="88.59"/>
                      </g>
                    </g>
                  </g>
                </g>
              </g>
            </g>
            <g id="Variable1-svg">
              <g class="st10">
                <text class="st12" transform="translate(914.84 365.09)"><tspan x="0" y="0">Variable1</tspan></text>
                <text class="st2" transform="translate(914.84 365.09)"><tspan x="0" y="0">Variable1</tspan></text>
              </g>
              <g class="st10">
                <text class="st8" transform="translate(914.84 365.09)"><tspan x="0" y="0">Variable1</tspan></text>
              </g>
            </g>
            <g id="Variable2-svg">
              <g class="st10">
                <text class="st12" transform="translate(275.79 100.59)"><tspan x="0" y="0">Variable2</tspan></text>
                <text class="st2" transform="translate(275.79 100.59)"><tspan x="0" y="0">Variable2</tspan></text>
              </g>
              <g class="st10">
                <text class="st8" transform="translate(275.79 100.59)"><tspan x="0" y="0">Variable2</tspan></text>
              </g>
            </g>
          </g>
        </g>
      </g>
    </g>
  </g>
  <g>
    <line class="st0" x1="111.22" y1="87.67" x2="215.24" y2="87.67"/>
    <path d="M215.14,89.57c1,0,1.9-.8,1.9-1.9,0-1-.8-1.9-1.9-1.9s-1.9.8-1.9,1.9.8,1.9,1.9,1.9Z"/>
  </g>
  <g class="st10">
    <g class="st10">
      <g class="st10">
        <g class="st10">
          <text class="st12" transform="translate(32.26 91.2)"><tspan x="0" y="0">Axis Label</tspan></text>
        </g>
      </g>
    </g>
  </g>
  <g>
    <line class="st0" x1="103.82" y1="45.05" x2="220.85" y2="45.05"/>
    <path d="M220.75,46.95c1,0,1.9-.8,1.9-1.9,0-1-.8-1.9-1.9-1.9s-1.9.8-1.9,1.9.8,1.9,1.9,1.9Z"/>
  </g>
  <g class="st10">
    <g class="st10">
      <g class="st10">
        <g class="st10">
          <text class="st12" transform="translate(32.26 48.06)"><tspan x="0" y="0">Legend</tspan></text>
        </g>
      </g>
    </g>
  </g>
  <g>
    <line class="st0" x1="87.48" y1="143.49" x2="375.24" y2="145.3"/>
    <path d="M375.14,147.2c1,0,1.9-.8,1.9-1.9,0-1-.8-1.9-1.9-1.9s-1.9.8-1.9,1.9.8,1.9,1.9,1.9Z"/>
  </g>
  <g class="st10">
    <g class="st10">
      <g class="st10">
        <g class="st10">
          <text class="st12" transform="translate(32.24 147.2)"><tspan x="0" y="0">Bubble</tspan></text>
        </g>
      </g>
    </g>
  </g>
  <g>
    <line class="st0" x1="61.39" y1="388.06" x2="262.93" y2="388.06"/>
    <path d="M262.83,389.96c1,0,1.9-.8,1.9-1.9,0-1-.8-1.9-1.9-1.9s-1.9.8-1.9,1.9.8,1.9,1.9,1.9Z"/>
  </g>
  <g class="st10">
    <g class="st10">
      <g class="st10">
        <g class="st10">
          <text class="st12" transform="translate(32.26 392.59)"><tspan x="0" y="0">Tick</tspan></text>
        </g>
      </g>
    </g>
  </g>
  <g>
    <line class="st0" x1="1054.16" y1="178.66" x2="969.56" y2="178.66"/>
    <path d="M969.66,176.76c-1,0-1.9.8-1.9,1.9s.8,1.9,1.9,1.9,1.9-.8,1.9-1.9-.8-1.9-1.9-1.9Z"/>
  </g>
  <g class="st10">
    <g class="st10">
      <g class="st10">
        <g class="st10">
          <text class="st12" transform="translate(1069.46 182.56)"><tspan x="0" y="0">Small Grid Line</tspan></text>
        </g>
      </g>
    </g>
  </g>
</svg>