<?xml version="1.0" encoding="UTF-8"?>
<svg id="exportSvg" xmlns="http://www.w3.org/2000/svg" version="1.1" viewBox="0 0 1203.42 136.89">
  <!-- Generator: Adobe Illustrator 30.0.0, SVG Export Plug-In . SVG Version: 2.1.1 Build 123)  -->
  <defs>
    <style>
      .st0 {
        stroke: #000;
        stroke-miterlimit: 10;
        stroke-width: .5px;
      }

      .st0, .st1, .st2 {
        fill: none;
      }

      .st3 {
        fill: #f56a00;
      }

      .st4 {
        fill: #757575;
      }

      .st4, .st5, .st6, .st7 {
        isolation: isolate;
      }

      .st4, .st6, .st7 {
        font-family: NotoSans, 'Noto Sans';
        font-size: 12px;
      }

      .st8 {
        fill: #728cd7;
      }

      .st1 {
        stroke: #757575;
      }

      .st7 {
        fill: #333;
      }

      .st2 {
        stroke: #fff;
        stroke-width: 2px;
      }
    </style>
  </defs>
  <g id="__svelte-dw-svg">
    <g id="container-svg_container-body-svg_datawrapper-KyH1s-k7lwvj-svg">
      <g id="container-svg_container-bodyTop-svg_datawrapper-KyH1s-lmtz6e-svg">
        <g id="container-svg_container-bodyCenter-svg_datawrapper-KyH1s-1a857wv-svg">
          <g id="chart-svg">
            <rect class="st8" x="226.71" y="4.97" width="8" height="8"/>
            <g class="st5">
              <text class="st4" transform="translate(242.71 11.56)"><tspan x="0" y="0">Variable1</tspan></text>
            </g>
            <rect class="st3" x="312.3" y="4.97" width="8" height="8"/>
            <g class="st5">
              <text class="st4" transform="translate(328.3 11.56)"><tspan x="0" y="0">Variable2</tspan></text>
            </g>
            <g id="grid-container-svg">
              <g id="grid-svg">
                <g id="x-grid-lines-svg_grid-x-svg_datawrapper-KyH1s-bgupc2-svg">
                  <line class="st1" x1="288.68" y1="131.36" x2="288.68" y2="56.36"/>
                  <line class="st1" x1="345.93" y1="131.36" x2="345.93" y2="56.36"/>
                  <line class="st1" x1="403.18" y1="131.36" x2="403.18" y2="56.36"/>
                  <line class="st1" x1="460.43" y1="131.36" x2="460.43" y2="56.36"/>
                  <line class="st1" x1="517.68" y1="131.36" x2="517.68" y2="56.36"/>
                  <line class="st1" x1="574.94" y1="131.36" x2="574.94" y2="56.36"/>
                  <line class="st1" x1="689.44" y1="131.36" x2="689.44" y2="56.36"/>
                  <line class="st1" x1="746.69" y1="131.36" x2="746.69" y2="56.36"/>
                  <line class="st1" x1="803.94" y1="131.36" x2="803.94" y2="56.36"/>
                  <line class="st1" x1="861.19" y1="131.36" x2="861.19" y2="56.36"/>
                  <line class="st1" x1="918.44" y1="131.36" x2="918.44" y2="56.36"/>
                  <line class="st1" x1="975.69" y1="131.36" x2="975.69" y2="56.36"/>
                </g>
              </g>
            </g>
            <g class="st5">
              <text class="st7" transform="translate(239.81 77.66)"><tspan x="0" y="0">Label1</tspan></text>
            </g>
            <rect class="st8" x="622.87" y="66.36" width="9.33" height="17"/>
            <path class="st2" d="M621.87,66.36v17"/>
            <rect class="st3" x="632.18" y="66.36" width="11.47" height="17"/>
            <g class="st5">
              <text class="st7" transform="translate(239.81 96.66)"><tspan x="0" y="0">Label2</tspan></text>
            </g>
            <rect class="st8" x="573.07" y="85.36" width="59.12" height="17"/>
            <path class="st2" d="M572.07,85.36v17"/>
            <rect class="st3" x="632.18" y="85.36" width="65.28" height="17"/>
            <g class="st5">
              <text class="st7" transform="translate(239.81 115.66)"><tspan x="0" y="0">Label3</tspan></text>
            </g>
            <rect class="st8" x="436.24" y="104.36" width="195.95" height="17"/>
            <path class="st2" d="M435.24,104.36v17"/>
            <rect class="st3" x="632.18" y="104.36" width="244.48" height="17"/>
            <g id="grid-container-svg1" data-name="grid-container-svg">
              <g id="grid-svg1" data-name="grid-svg">
                <g id="x-tick-labels-svg_grid-x-svg_number-axis-svg_datawrapper-KyH1s-6boht-svg">
                  <g class="st5">
                    <text class="st4" transform="translate(277.1 48.36)"><tspan x="0" y="0">60%</tspan></text>
                  </g>
                  <g class="st5">
                    <text class="st4" transform="translate(334.36 48.36)"><tspan x="0" y="0">50%</tspan></text>
                  </g>
                  <g class="st5">
                    <text class="st4" transform="translate(391.61 48.36)"><tspan x="0" y="0">40%</tspan></text>
                  </g>
                  <g class="st5">
                    <text class="st4" transform="translate(448.86 48.36)"><tspan x="0" y="0">30%</tspan></text>
                  </g>
                  <g class="st5">
                    <text class="st4" transform="translate(506.11 48.36)"><tspan x="0" y="0">20%</tspan></text>
                  </g>
                  <g class="st5">
                    <text class="st4" transform="translate(563.36 48.36)"><tspan x="0" y="0">10%</tspan></text>
                  </g>
                  <g class="st5">
                    <text class="st4" transform="translate(623.92 48.36)"><tspan x="0" y="0">0%</tspan></text>
                  </g>
                  <g class="st5">
                    <text class="st4" transform="translate(677.86 48.36)"><tspan x="0" y="0">10%</tspan></text>
                  </g>
                  <g class="st5">
                    <text class="st4" transform="translate(735.11 48.36)"><tspan x="0" y="0">20%</tspan></text>
                  </g>
                  <g class="st5">
                    <text class="st4" transform="translate(792.37 48.36)"><tspan x="0" y="0">30%</tspan></text>
                  </g>
                  <g class="st5">
                    <text class="st4" transform="translate(849.62 48.36)"><tspan x="0" y="0">40%</tspan></text>
                  </g>
                  <g class="st5">
                    <text class="st4" transform="translate(906.87 48.36)"><tspan x="0" y="0">50%</tspan></text>
                  </g>
                  <g class="st5">
                    <text class="st4" transform="translate(952.54 48.36)"><tspan x="0" y="0">60%</tspan></text>
                  </g>
                </g>
                <g id="x-base-lines-svg_grid-x-svg_datawrapper-KyH1s-l0t1pf-svg">
                  <line class="st1" x1="632.19" y1="131.36" x2="632.19" y2="56.36"/>
                </g>
              </g>
            </g>
          </g>
        </g>
      </g>
    </g>
  </g>
  <g>
    <line class="st0" x1="81.51" y1="8.97" x2="218.62" y2="8.97"/>
    <path d="M218.52,10.87c1,0,1.9-.8,1.9-1.9,0-1-.8-1.9-1.9-1.9s-1.9.8-1.9,1.9.8,1.9,1.9,1.9Z"/>
  </g>
  <g class="st5">
    <g class="st5">
      <g class="st5">
        <text class="st6" transform="translate(27.79 14.51)"><tspan x="0" y="0">Legend</tspan></text>
      </g>
    </g>
  </g>
  <g>
    <line class="st0" x1="93.14" y1="73.66" x2="234.94" y2="73.66"/>
    <path d="M234.84,75.56c1,0,1.9-.8,1.9-1.9,0-1-.8-1.9-1.9-1.9s-1.9.8-1.9,1.9.8,1.9,1.9,1.9Z"/>
  </g>
  <g class="st5">
    <g class="st5">
      <g class="st5">
        <text class="st6" transform="translate(28.96 77.78)"><tspan x="0" y="0">Axis Label</tspan></text>
      </g>
    </g>
  </g>
  <g>
    <line class="st0" x1="62.28" y1="44.36" x2="272.44" y2="44.36"/>
    <path d="M272.34,46.26c1,0,1.9-.8,1.9-1.9,0-1-.8-1.9-1.9-1.9s-1.9.8-1.9,1.9.8,1.9,1.9,1.9Z"/>
  </g>
  <g class="st5">
    <g class="st5">
      <g class="st5">
        <text class="st6" transform="translate(28.96 48.48)"><tspan x="0" y="0">Tick</tspan></text>
      </g>
    </g>
  </g>
  <g>
    <line class="st0" x1="62.28" y1="112.75" x2="443.23" y2="112.75"/>
    <path d="M443.13,114.65c1,0,1.9-.8,1.9-1.9,0-1-.8-1.9-1.9-1.9s-1.9.8-1.9,1.9.8,1.9,1.9,1.9Z"/>
  </g>
  <g class="st5">
    <g class="st5">
      <g class="st5">
        <text class="st6" transform="translate(29.07 114.65)"><tspan x="0" y="0">Bar</tspan></text>
      </g>
    </g>
  </g>
  <g>
    <line class="st0" x1="1060.41" y1="65.36" x2="975.81" y2="65.36"/>
    <path d="M975.91,63.46c-1,0-1.9.8-1.9,1.9s.8,1.9,1.9,1.9,1.9-.8,1.9-1.9-.8-1.9-1.9-1.9Z"/>
  </g>
  <g class="st5">
    <g class="st5">
      <g class="st5">
        <text class="st6" transform="translate(1075.71 69.26)"><tspan x="0" y="0">Small Grid Line</tspan></text>
      </g>
    </g>
  </g>
</svg>