<?xml version="1.0" encoding="UTF-8"?>
<svg id="u990e9cd507e641c8a14da3e3acf26f9a" xmlns="http://www.w3.org/2000/svg" version="1.1" xmlns:xlinkg="http://www.w3.org/1999/xlink" viewBox="0 0 1559.06 1123">
  <!-- Generator: Adobe Illustrator 30.0.0, SVG Export Plug-In . SVG Version: 2.1.1 Build 123)  -->
  <defs>
    <style>
      .st0 {
        fill: none;
        stroke: #000;
        stroke-miterlimit: 10;
        stroke-width: .5px;
      }

      .st1 {
        fill: #f56a00;
      }

      .st2 {
        font-family: Roboto-Regular, Roboto;
      }

      .st2, .st3, .st4, .st5 {
        isolation: isolate;
      }

      .st2, .st3, .st5 {
        font-size: 12px;
      }

      .st3 {
        fill: #757575;
      }

      .st3, .st5 {
        font-family: NotoSans, 'Noto Sans';
      }

      .st6 {
        fill: #e85767;
      }

      .st7 {
        fill: #a332de;
      }

      .st8 {
        fill: #4f25d2;
      }

      .st9 {
        fill: #728cd7;
      }

      .st10 {
        fill: #cd35ab;
      }

      .st11 {
        fill: #00a2b9;
      }
    </style>
  </defs>
  <link xmlns="http://www.w3.org/1999/xhtml" rel="stylesheet" type="text/css" href="https://fonts.googleapis.com/css?family=Roboto:300,500"/>
  <g id="ufa07d4f096344fa09ef806b60aa27d5f">
    <g>
      <g>
        <rect class="st9" x="231.03" y="6.44" width="12" height="12"/>
        <g class="st4">
          <text class="st3" transform="translate(251.03 16.44)"><tspan x="0" y="0">Genferseeregion</tspan></text>
        </g>
      </g>
      <g>
        <rect class="st8" x="362.41" y="6.44" width="12" height="12"/>
        <g class="st4">
          <text class="st3" transform="translate(382.41 16.44)"><tspan x="0" y="0">Espace Mittelland</tspan></text>
        </g>
      </g>
      <g>
        <rect class="st10" x="498.44" y="6.44" width="12" height="12"/>
        <g class="st4">
          <text class="st3" transform="translate(518.44 16.44)"><tspan x="0" y="0">Nordwestschweiz</tspan></text>
        </g>
      </g>
      <g>
        <rect class="st1" x="633.76" y="6.44" width="12" height="12"/>
        <g class="st4">
          <text class="st3" transform="translate(653.76 16.44)"><tspan x="0" y="0">Zürich</tspan></text>
        </g>
      </g>
      <g>
        <rect class="st6" x="705.96" y="6.44" width="12" height="12"/>
        <g class="st4">
          <text class="st3" transform="translate(725.96 16.44)"><tspan x="0" y="0">Ostschweiz</tspan></text>
        </g>
      </g>
      <g>
        <rect class="st7" x="805.96" y="6.44" width="12" height="12"/>
        <g class="st4">
          <text class="st3" transform="translate(825.96 16.44)"><tspan x="0" y="0">Zentralschweiz</tspan></text>
        </g>
      </g>
      <g>
        <rect class="st11" x="926.46" y="6.44" width="12" height="12"/>
        <g class="st4">
          <text class="st3" transform="translate(946.46 16.44)"><tspan x="0" y="0">Tessin</tspan></text>
        </g>
      </g>
    </g>
  </g>
  <g id="u2ccec7b4d31e4a2fab6ed5731e754166">
    <g>
      <g id="blocks">
        <path id="GE" class="st9" d="M779.53,58.79c23.87,0,47.72,1.65,71.36,4.93l-2.06,14.86c-22.96-3.19-46.12-4.79-69.3-4.79v-15Z"/>
        <path id="VD" class="st9" d="M853.46,64.09c68.47,9.86,134.27,33.33,193.54,69.01l-7.74,12.85c-57.55-34.65-121.45-57.44-187.94-67.02l2.14-14.85Z"/>
        <path id="VS" class="st9" d="M1049.21,134.45c33.95,20.68,65.41,45.19,93.77,73.05l-10.51,10.7c-27.53-27.06-58.08-50.86-91.05-70.94l7.8-12.81Z"/>
        <path id="TI" class="st11" d="M1144.82,209.32c13.73,13.63,26.68,28.01,38.8,43.08l-11.69,9.4c-11.77-14.64-24.35-28.6-37.67-41.84l10.57-10.65Z"/>
        <path id="GR" class="st6" d="M1185.24,254.43c17.97,22.59,34.03,46.64,48,71.9l-13.13,7.26c-13.57-24.53-29.16-47.88-46.61-69.82l11.74-9.34Z"/>
        <path id="GL" class="st6" d="M1234.49,328.6c3.63,6.63,7.11,13.35,10.44,20.13l-13.46,6.61c-3.24-6.59-6.62-13.11-10.14-19.55l13.16-7.19Z"/>
        <path id="SG" class="st6" d="M1246.07,351.06c31.07,64.08,48.61,133.88,51.52,205.04l-14.99.61c-2.83-69.1-19.86-136.88-50.03-199.11l13.5-6.54Z"/>
        <path id="AR" class="st6" d="M1297.69,558.69c.49,13.65.44,27.32-.15,40.97l-14.99-.65c.57-13.25.62-26.53.14-39.78l14.99-.54Z"/>
        <path id="AI" class="st6" d="M1297.43,602.25c-.17,3.47-.37,6.94-.61,10.41l-14.97-1.02c.23-3.37.43-6.74.59-10.11l14.98.72Z"/>
        <path id="TG" class="st6" d="M1296.64,615.25c-3.62,49.32-14.28,97.86-31.65,144.16l-14.04-5.27c16.87-44.96,27.21-92.1,30.73-139.99l14.96,1.1Z"/>
        <path id="SH" class="st6" d="M1264.07,761.84c-6.3,16.55-13.45,32.77-21.42,48.6l-13.4-6.74c7.73-15.36,14.68-31.11,20.8-47.19l14.02,5.34Z"/>
        <path id="ZH" class="st1" d="M1241.48,812.75c-73.72,144.64-210.94,246.41-370.75,274.96l-2.64-14.77c155.19-27.73,288.44-126.55,360.03-267.01l13.36,6.81Z"/>
        <path id="ZG" class="st7" d="M868.18,1088.16c-26.22,4.55-52.75,7.07-79.35,7.55l-.27-15c25.83-.46,51.6-2.92,77.05-7.33l2.56,14.78Z"/>
        <path id="SZ" class="st7" d="M786.24,1095.75c-34.69.45-69.35-2.59-103.44-9.06l2.8-14.74c33.1,6.29,66.75,9.23,100.44,8.8l.19,15Z"/>
        <path id="UR" class="st7" d="M680.26,1086.2c-5.48-1.07-10.95-2.23-16.4-3.47l3.35-14.62c5.29,1.21,10.6,2.33,15.92,3.37l-2.87,14.72Z"/>
        <path id="NW" class="st7" d="M661.34,1082.14c-7.97-1.87-15.9-3.92-23.78-6.16l4.11-14.43c7.65,2.18,15.35,4.17,23.09,5.99l-3.42,14.61Z"/>
        <path id="OW" class="st7" d="M635.06,1075.26c-6.55-1.9-13.07-3.93-19.54-6.09l4.74-14.23c6.29,2.1,12.61,4.07,18.98,5.91l-4.18,14.41Z"/>
        <path id="LU" class="st7" d="M613.07,1068.35c-55.81-18.92-107.99-47.22-154.3-83.68l9.28-11.79c44.96,35.4,95.63,62.88,149.83,81.26l-4.82,14.21Z"/>
        <path id="AG" class="st10" d="M456.74,983.06c-85.5-68.02-147.34-161.31-176.67-266.56l14.45-4.03c28.49,102.2,88.53,192.8,171.56,258.85l-9.34,11.74Z"/>
        <path id="BS" class="st10" d="M279.38,714c-9.53-34.86-15.39-70.63-17.48-106.71l14.97-.87c2.03,35.04,7.72,69.77,16.97,103.62l-14.47,3.95Z"/>
        <path id="BL" class="st10" d="M261.75,604.71c-2.63-49.74,1.92-99.61,13.51-148.06l14.59,3.49c-11.26,47.05-15.67,95.47-13.12,143.77l-14.98.79Z"/>
        <path id="SO" class="st8" d="M275.87,454.13c13.47-55.08,35.88-107.58,66.35-155.41l12.65,8.06c-29.58,46.44-51.35,97.42-64.43,150.91l-14.57-3.56Z"/>
        <path id="JU" class="st8" d="M343.62,296.54c4.58-7.11,9.33-14.1,14.25-20.98l12.2,8.73c-4.78,6.68-9.39,13.47-13.84,20.37l-12.61-8.12Z"/>
        <path id="NE" class="st8" d="M359.38,273.45c10.85-15.01,22.5-29.42,34.9-43.18l11.15,10.04c-12.04,13.36-23.35,27.36-33.89,41.93l-12.15-8.79Z"/>
        <path id="FR" class="st8" d="M396.02,228.35c33.97-37.34,73.22-69.51,116.49-95.51l7.72,12.86c-42.02,25.24-80.13,56.49-113.12,92.75l-11.09-10.09Z"/>
        <path id="BE" class="st8" d="M514.73,131.51c79.37-47.15,169.89-72.25,262.2-72.71l.07,15c-89.64.45-177.54,24.82-254.62,70.6l-7.66-12.9Z"/>
      </g>
      <g id="ribbons">
        <path id="VD1" data-name="VD" class="st9" d="M850.61,83.89c17.12,2.47,34.09,5.82,50.86,10.05-81.29,322.24-121.94,317.19-121.94-15.14,11.74,0,23.47.41,35.17,1.24-23.45,331.51-11.48,332.79,35.91,3.85Z"/>
        <path id="VS1" data-name="VS" class="st9" d="M1084.6,183.04c3,2.32,5.97,4.67,8.91,7.06-209.32,258.13-302.25,221.44-278.81-110.06,2.18.15,4.36.32,6.54.51-27.81,331.17,59.98,365.33,263.36,102.5Z"/>
        <path id="GE1" data-name="GE" class="st9" d="M839.66,82.43c.76.09,1.51.19,2.27.28-41.6,329.72,65.45,388.44,321.16,176.17.28.33.55.67.83,1-256.26,211.61-364.34,152.46-324.25-177.45Z"/>
        <path id="GR1" data-name="GR" class="st6" d="M1215.56,335.68l.09.16c-290.75,160.97-413.47,76.84-368.17-252.39.05,0,.09.01.14.02-45.39,329.22,77.26,413.29,367.95,252.21Z"/>
        <path id="GL1" data-name="GL" class="st6" d="M1226.83,357.25s.02.04.03.05c-298.22,146.66-424.46,55.41-378.72-273.76-45.74,329.17,80.49,420.41,378.69,273.71Z"/>
        <path id="SG1" data-name="SG" class="st6" d="M1277.53,554.97c0,.2.02.39.03.59-332.02,14.49-475.53-142.91-430.55-472.18.1.01.21.03.31.04-45.19,329.25,98.21,486.43,430.21,471.55Z"/>
        <path id="AR1" data-name="AR" class="st6" d="M1277.59,598.17s0,.07,0,.1c-332.04-13.98-475.25-185.57-429.62-514.75h.08c-45.68,329.19,97.51,500.74,429.55,514.66Z"/>
        <path id="AI1" data-name="AI" class="st6" d="M1276.89,610.92s0,.04,0,.06c-331.57-22.46-474.49-198.28-428.75-527.45-45.74,329.17,97.18,504.97,428.75,527.39Z"/>
        <path id="GE2" data-name="GE" class="st9" d="M847.61,83.46s.09.01.14.02c-45.48,329.21,87.37,552.13,398.57,668.78-.01.03-.02.06-.03.09-311.17-116.71-444.06-339.67-398.67-668.89Z"/>
        <path id="GE3" data-name="GE" class="st9" d="M847.87,83.5s.07,0,.1.01c-45.62,329.19,80.01,568.44,376.91,717.77-.01.03-.03.06-.04.09-296.87-149.38-422.52-388.67-376.96-717.87Z"/>
        <path id="ZH1" data-name="ZH" class="st1" d="M905.61,1059.59c-2.59.68-5.19,1.33-7.79,1.97-78.86-322.84-104.38-649.85-76.58-981.01,1.92.16,3.83.33,5.75.52-31.64,330.82-5.44,657,78.62,978.53Z"/>
        <path id="ZG1" data-name="ZG" class="st7" d="M797.45,1075.47c-.39.01-.79.03-1.18.04-11.16-332.15,4.48-663.03,46.91-992.64.35.05.7.09,1.05.14-43.14,329.52-58.73,660.34-46.78,992.46Z"/>
        <path id="SZ1" data-name="SZ" class="st7" d="M689.42,1067.58c-.23-.04-.46-.09-.7-.13,60.54-326.77,113.18-654.81,157.93-984.12.12.02.23.03.35.05-44.99,329.27-97.52,657.34-157.59,984.2Z"/>
        <path id="GE4" data-name="GE" class="st9" d="M848.04,83.52s.04,0,.06,0c-45.71,329.17-105.6,655.75-179.66,979.73h-.06c74.1-323.98,133.99-650.55,179.66-979.73Z"/>
        <path id="NW1" data-name="NW" class="st7" d="M643.24,1056.8s-.06-.02-.09-.03c90.92-319.65,159.24-644.07,204.95-973.24.01,0,.03,0,.04,0-45.74,329.17-114.04,653.59-204.9,973.26Z"/>
        <path id="GE5" data-name="GE" class="st9" d="M847.32,83.42c.05,0,.1.01.16.02-45.3,329.23-120.41,651.51-225.34,966.85-.04-.01-.07-.02-.11-.04,105.01-315.31,180.11-637.58,225.3-966.83Z"/>
        <path id="GE6" data-name="GE" class="st9" d="M845.76,83.21c.17.02.34.05.51.07-44.49,329.34-169.15,624.87-373.98,886.58-.13-.1-.26-.2-.39-.3,205.08-261.51,329.7-556.95,373.86-886.34Z"/>
        <path id="GE7" data-name="GE" class="st9" d="M845.11,83.13c.21.03.43.06.64.09-44.15,329.39-226.12,539.33-545.89,629.84-.05-.18-.1-.37-.16-.55,319.88-90.14,501.68-299.93,545.4-629.37Z"/>
        <path id="GE8" data-name="GE" class="st9" d="M844.23,83.01c.29.04.59.08.88.12-43.72,329.44-231.39,505.17-562.99,527.18-.02-.26-.03-.52-.05-.79,331.64-21.48,519.03-196.99,562.16-526.51Z"/>
        <path id="GE9" data-name="GE" class="st9" d="M846.26,83.28c.13.02.26.04.39.05-44.75,329.31-228.82,455.67-552.21,379.1.03-.11.05-.22.08-.33,323.34,76.79,507.26-49.49,551.75-378.83Z"/>
        <path id="SO1" data-name="SO" class="st8" d="M357.44,312.06c.1-.16.2-.31.29-.47,281.19,177.13,444.53,101.09,490.01-228.11.04,0,.08.01.12.02-45.56,329.2-209.03,405.38-490.42,228.56Z"/>
        <path id="GE10" data-name="GE" class="st9" d="M841.93,82.71c.42.05.83.11,1.25.16-42.43,329.61-199.81,399.17-472.13,208.68.19-.27.38-.55.58-.82,271.93,191.04,428.7,121.7,470.3-208.02Z"/>
        <path id="GE11" data-name="GE" class="st9" d="M826.99,81.06c1.8.17,3.59.35,5.39.55-35.23,330.46-179.73,388.39-433.47,173.78.9-1.06,1.8-2.12,2.71-3.18,251.94,216.73,393.73,159.68,425.37-171.14Z"/>
        <path id="FR1" data-name="FR" class="st8" d="M503.31,162.31c1.52-1.01,3.04-2.01,4.58-3.01,181.09,278.66,289.25,252.76,324.49-77.7,1.51.16,3.02.33,4.52.5-38.25,330.12-149.45,356.86-333.59,80.21Z"/>
        <path id="BE1" data-name="BE" class="st8" d="M760.14,79.17c1.23-.05,2.47-.09,3.7-.13,10.46,332.17,34.81,333.19,73.06,3.07.92.11,1.84.22,2.76.33-40.09,329.91-66.6,328.82-79.52-3.26Z"/>
        <path id="VS2" data-name="VS" class="st9" d="M1038.81,151.53c15.84,9.64,31.12,20.16,45.79,31.51-203.38,262.83-249.29,237.73-137.72-75.32,11.46,4.09,22.77,8.59,33.91,13.5-134.17,304.05-114.83,314.15,58.03,30.3Z"/>
        <path id="VD2" data-name="VD" class="st9" d="M1017.69,139.36c1.37.75,2.74,1.5,4.11,2.26-161.51,290.45-119.29,323.93,126.68,100.44.85.93,1.69,1.87,2.53,2.81-247.65,221.61-292.09,186.45-133.32-105.51Z"/>
        <path id="VD3" data-name="VD" class="st9" d="M1029.2,145.82c.36.21.73.42,1.09.63-167.17,287.23-105.86,349.5,183.93,186.81.1.18.2.36.3.53-289.99,162.33-351.76,99.67-185.32-187.98Z"/>
        <path id="GL2" data-name="GL" class="st6" d="M1226.46,356.49s.05.09.07.14c-298,147.11-361.29,78.31-189.88-206.41.01,0,.02.01.03.02-171.43,284.7-108.17,353.45,189.78,206.25Z"/>
        <path id="SG2" data-name="SG" class="st6" d="M1277.3,550.43c.03.49.05.97.08,1.46-331.9,16.94-413.91-117.99-246.02-404.8.31.18.62.37.93.55-168.51,286.44-86.84,420.71,245.01,402.8Z"/>
        <path id="AR2" data-name="AR" class="st6" d="M1277.59,598.27s0,.07,0,.1c-332.04-14.05-412.37-163.44-240.99-448.18l.05.03c-171.41,284.72-91.1,434.07,240.94,448.05Z"/>
        <path id="AI2" data-name="AI" class="st6" d="M1276.9,610.83s0,.07,0,.1c-331.58-22.42-411.65-175.98-240.21-460.69-171.43,284.7-91.36,438.23,240.22,460.59Z"/>
        <path id="VD4" data-name="VD" class="st9" d="M1035.56,149.57c.15.09.29.18.44.26-170.98,284.97-100.72,485.35,210.79,601.13-.05.15-.11.3-.16.44-311.4-116.08-381.76-316.69-211.07-601.84Z"/>
        <path id="SH1" data-name="SH" class="st6" d="M1225.6,799.82c-.04.09-.09.18-.13.26-297.3-148.53-360.37-365.23-189.23-650.11.06.04.12.07.19.11-171.27,284.8-108.21,501.38,189.18,649.73Z"/>
        <path id="ZH2" data-name="ZH" class="st1" d="M995.14,1026.75c-5.86,2.81-11.77,5.5-17.73,8.08-131.92-305.03-121.86-605.3,30.2-900.81,3.38,1.74,6.74,3.52,10.08,5.33-158.77,291.95-166.29,587.75-22.55,887.39Z"/>
        <path id="ZG2" data-name="ZG" class="st7" d="M804.32,1075.18c-.75.04-1.51.07-2.26.11-15.02-331.99,61.73-641.21,230.24-927.65.29.17.58.34.87.51-169.09,286.1-245.37,595.11-228.84,927.04Z"/>
        <path id="SZ2" data-name="SZ" class="st7" d="M694.13,1068.42c-.41-.07-.83-.14-1.24-.22,57.76-327.28,171.18-633.96,340.27-920.07.28.16.55.33.83.49-169.64,285.77-282.93,592.37-339.86,919.79Z"/>
        <path id="UR1" data-name="UR" class="st7" d="M668.86,1063.35c-.05-.01-.1-.02-.15-.04,73.88-324.02,196.49-628.41,367.82-913.17.02.01.05.03.07.04-171.38,284.74-293.96,589.13-367.73,913.17Z"/>
        <path id="NW2" data-name="NW" class="st7" d="M645.95,1057.56c-.13-.04-.27-.07-.4-.11,89.32-320.11,219.47-622.65,390.45-907.62.08.05.16.09.24.14-171.14,284.88-301.24,587.41-390.29,907.59Z"/>
        <path id="OW1" data-name="OW" class="st7" d="M622.58,1050.44s-.1-.03-.15-.05c104.73-315.4,242.73-615.5,414-900.31.03.02.07.04.1.06-171.33,284.76-309.32,584.86-413.95,900.29Z"/>
        <path id="LU1" data-name="LU" class="st7" d="M476.57,973.17c-.59-.45-1.19-.91-1.78-1.37,203.16-263.01,388.32-538.12,555.5-825.35.36.21.71.42,1.07.63-167.89,286.81-352.82,562.17-554.79,826.09Z"/>
        <path id="AG1" data-name="AG" class="st10" d="M302.68,722.63c-.23-.76-.46-1.52-.69-2.28,318.35-95.37,560.18-287.21,725.46-575.53.58.33,1.16.67,1.74,1-166.45,287.65-408.62,479.92-726.51,576.81Z"/>
        <path id="VD5" data-name="VD" class="st9" d="M1025.23,143.55c.74.42,1.48.84,2.22,1.27-165.29,288.32-413.44,447.2-744.47,476.66-.06-.72-.13-1.44-.19-2.16,331.15-28.02,578.63-186.61,742.43-475.77Z"/>
        <path id="BL1" data-name="BL" class="st10" d="M293.05,468.48c.08-.35.16-.69.23-1.04,324.16,73.23,571.07-33.04,740.71-318.81.27.16.53.32.8.47-170.17,285.46-417.42,391.92-741.74,319.38Z"/>
        <path id="SO2" data-name="SO" class="st8" d="M354.61,316.63c.23-.38.46-.75.69-1.12,282.82,174.52,509.32,119.06,679.49-166.4.26.15.52.31.78.46-170.69,285.15-397.68,340.84-680.96,167.06Z"/>
        <path id="VD6" data-name="VD" class="st9" d="M1021.8,141.62c1.15.64,2.29,1.28,3.44,1.93-163.8,289.16-384.02,341.66-660.66,157.49.7-1.05,1.4-2.1,2.11-3.14,275.23,186.26,493.6,134.17,655.11-156.28Z"/>
        <path id="NE1" data-name="NE" class="st8" d="M375.59,285.17c3.7-5.11,7.49-10.16,11.38-15.13,261.71,204.83,459.64,155.22,593.81-148.82,5.27,2.33,10.5,4.74,15.68,7.25-144.63,299.21-351.58,351.45-620.88,156.7Z"/>
        <path id="FR2" data-name="FR" class="st8" d="M410.81,241.81c16.76-18.42,34.87-35.55,54.19-51.26,209.69,257.83,355.18,225.63,436.47-96.61,15.35,3.87,30.5,8.47,45.41,13.79-111.57,313.05-290.26,357.74-536.07,134.08Z"/>
        <path id="BE2" data-name="BE" class="st8" d="M683.17,88.2c4.86-.96,9.74-1.84,14.63-2.66,54.48,327.84,154.04,342.15,298.67,42.93,3.74,1.81,7.45,3.66,11.14,5.56-152.05,295.51-260.2,280.23-324.44-45.83Z"/>
        <path id="TI1" data-name="TI" class="st11" d="M1158.94,253.95c.39.46.78.92,1.17,1.38-253.72,214.64-267.1,200.58-40.12-42.17.42.39.84.79,1.26,1.19-227.82,241.96-215.25,255.16,37.69,39.6Z"/>
        <path id="GR2" data-name="GR" class="st6" d="M1211.31,328.17c.21.36.42.73.63,1.09-288.28,165.35-317.21,128.28-86.81-111.22.26.25.52.5.78.75-230.92,239-202.46,275.46,85.4,109.37Z"/>
        <path id="VS3" data-name="VS" class="st9" d="M1128.89,221.7l.06.06c-232.95,237.03-200.27,282.28,98.02,135.76,0,.01.01.02.02.04-298.3,146.5-331,101.21-98.09-135.85Z"/>
        <path id="SG3" data-name="SG" class="st6" d="M1277.38,551.88c.02.45.04.89.07,1.34-331.95,16.05-383.29-96.23-154.04-336.82.3.29.61.58.91.87-229.86,240.02-178.84,351.56,153.06,334.62Z"/>
        <path id="VS4" data-name="VS" class="st9" d="M1128.48,221.3c.06.06.11.11.17.17-232.75,237.22-183.11,362.89,148.93,377,0,.03,0,.05,0,.08-332.03-14.17-381.73-139.91-149.09-377.25Z"/>
        <path id="AI3" data-name="AI" class="st6" d="M1276.89,610.98s0,.04,0,.06c-331.57-22.5-380.88-152.26-147.94-389.29,0,0,0,0,.01.01-232.95,237.02-183.65,366.76,147.93,389.22Z"/>
        <path id="VS5" data-name="VS" class="st9" d="M1126.66,219.52c.18.17.36.35.54.52-231.78,238.17-191.84,414.93,119.83,530.29-.08.21-.16.42-.23.63-311.51-115.78-351.56-292.93-120.13-531.44Z"/>
        <path id="SH2" data-name="SH" class="st6" d="M1225.36,800.31c-.04.07-.07.14-.11.21-297.15-148.82-329.31-341.8-96.47-578.94.04.04.07.07.11.11-232.91,237.06-200.75,429.94,96.47,578.62Z"/>
        <path id="ZH3" data-name="ZH" class="st1" d="M897.82,1061.56c-2.42.59-4.85,1.17-7.29,1.72-74-323.99-1.11-610.62,218.69-859.89,1.61,1.42,3.2,2.84,4.79,4.28-222.99,246.42-295.06,531.04-216.2,853.89Z"/>
        <path id="ZG3" data-name="ZG" class="st7" d="M793.04,1075.61c-.31,0-.62.02-.93.02-8.39-332.23,103.44-617.29,335.51-855.18.13.12.25.25.38.37-232.32,237.64-343.97,522.57-334.96,854.78Z"/>
        <path id="SZ3" data-name="SZ" class="st7" d="M691.73,1068c-.26-.05-.52-.09-.78-.14,59.05-327.04,204.47-609.65,436.25-847.82.14.14.28.27.42.41-232.06,237.89-377.36,520.41-435.9,847.54Z"/>
        <path id="UR2" data-name="UR" class="st7" d="M670.92,1063.82c-.18-.04-.36-.08-.54-.12,72.77-324.27,225.52-605.01,458.27-842.23.04.04.08.08.13.12-232.83,237.14-385.45,517.88-457.86,842.23Z"/>
        <path id="VS6" data-name="VS" class="st9" d="M1128,220.83c.08.08.17.17.25.25-232.49,237.48-394.03,516.09-484.64,835.83-.08-.02-.15-.04-.23-.06,90.76-319.7,252.29-598.37,484.61-836.02Z"/>
        <path id="VS7" data-name="VS" class="st9" d="M1128.26,221.08c.08.07.15.15.23.22-232.64,237.33-401.32,513.7-506.05,829.09-.05-.02-.1-.03-.15-.05,104.83-315.37,273.49-591.79,505.98-829.27Z"/>
        <path id="LU2" data-name="LU" class="st7" d="M489.12,982.47c-.96-.68-1.91-1.37-2.86-2.06,195.51-268.74,407.17-524.09,634.99-766.06.41.39.82.77,1.23,1.16-228.64,241.19-439.76,496.84-633.36,766.96Z"/>
        <path id="AG2" data-name="AG" class="st10" d="M305.01,730.04c-.28-.87-.56-1.74-.83-2.61,316.9-100.09,587.91-272.38,813.01-516.86.51.47,1.01.94,1.52,1.4-226.12,243.55-497.35,416.24-813.7,518.07Z"/>
        <path id="VS8" data-name="VS" class="st9" d="M1124.32,217.27c.27.26.54.52.81.78-230.4,239.5-511.37,370.86-842.89,394.07-.02-.31-.04-.62-.06-.92,331.56-22.6,612.28-153.91,842.14-393.92Z"/>
        <path id="BL2" data-name="BL" class="st10" d="M292.78,469.67c.09-.4.18-.79.27-1.19,324.32,72.54,601.94-10.69,832.86-249.68.25.24.5.48.75.73-231.42,238.51-509.38,321.9-833.88,250.15Z"/>
        <path id="SO3" data-name="SO" class="st8" d="M350.34,323.72c.43-.73.87-1.47,1.31-2.2,285.25,170.52,542.2,135.18,770.84-106,.31.29.62.59.93.88-229.26,240.6-486.95,276.37-773.07,107.32Z"/>
        <path id="VS9" data-name="VS" class="st9" d="M1118.7,211.97c.43.4.86.8,1.28,1.2-226.97,242.75-477.07,269.53-750.3,80.35.26-.37.52-.74.78-1.12,272.71,189.93,522.12,163.13,748.24-80.42Z"/>
        <path id="VS10" data-name="VS" class="st9" d="M1114.01,207.67c1.06.96,2.12,1.93,3.17,2.9-225.11,244.49-463.63,258.36-715.57,41.64.71-.82,1.42-1.64,2.13-2.46,250.52,218.37,487.28,204.34,710.27-42.07Z"/>
        <path id="VS11" data-name="VS" class="st9" d="M1101.44,196.67c2.62,2.21,5.21,4.45,7.78,6.72-219.8,249.27-426.51,238.85-620.14-31.25,2.52-1.81,5.05-3.59,7.61-5.35,188.56,273.66,390.14,283.62,604.75,29.87Z"/>
        <path id="BE3" data-name="BE" class="st8" d="M697.8,85.54c4.71-.78,9.43-1.5,14.16-2.14,45.04,329.27,172.23,364.84,381.55,106.71,2.67,2.16,5.31,4.35,7.93,6.57-214.61,253.75-349.16,216.7-403.64-111.13Z"/>
        <path id="GR3" data-name="GR" class="st6" d="M1193.07,298.93c1.77,2.63,3.51,5.27,5.23,7.93-279.18,180.29-298.39,155.9-57.62-73.19,1.64,1.73,3.27,3.47,4.89,5.22-244.02,225.61-228.19,245.62,47.51,60.05Z"/>
        <path id="TI2" data-name="TI" class="st11" d="M1167.75,264.59c.05.06.1.12.15.18-258.91,208.35-239.37,238.97,58.63,91.86.02.05.05.09.07.14-298.05,147.02-317.66,116.29-58.85-92.19Z"/>
        <path id="TI3" data-name="TI" class="st11" d="M1155.75,250.25c.59.68,1.18,1.36,1.77,2.04-251.99,216.67-212.18,314.12,119.44,292.35.05.7.09,1.4.13,2.1-331.71,20.36-372.16-78.47-121.34-296.5Z"/>
        <path id="TI4" data-name="TI" class="st11" d="M1167.59,264.39c.05.07.11.13.16.2-258.81,208.47-222.21,319.79,109.83,333.96,0,.03,0,.05,0,.08-332.03-14.22-368.69-125.63-109.98-334.24Z"/>
        <path id="TI5" data-name="TI" class="st11" d="M1168.01,264.91s.02.02.02.03c-259,208.24-222.72,323.62,108.85,346.16,0,.01,0,.03,0,.04-331.57-22.57-367.86-137.98-108.87-346.23Z"/>
        <path id="TI6" data-name="TI" class="st11" d="M1163.91,259.88c.28.33.55.67.83,1-256.81,210.94-229.21,373.62,82.81,488.05-.09.24-.18.48-.27.72-311.84-114.91-339.63-278.17-83.37-489.77Z"/>
        <path id="TI7" data-name="TI" class="st11" d="M1166.55,263.1c.11.14.22.28.33.41-258.24,209.19-238.61,387.85,58.89,535.97-.06.11-.11.22-.17.33-297.38-148.35-317.07-327.26-59.06-536.72Z"/>
        <path id="ZH4" data-name="ZH" class="st1" d="M977.41,1034.84c-5.86,2.54-11.78,4.96-17.73,7.27-120.1-309.87-63.08-582.74,171.06-818.59,3.36,3.34,6.67,6.72,9.94,10.15-240.76,229.08-295.18,496.14-163.26,801.17Z"/>
        <path id="TI8" data-name="TI" class="st11" d="M1161.23,256.66c.32.38.64.76.96,1.15-255.11,212.99-377.82,485.58-368.13,817.77-.34,0-.68.02-1.02.03-9.01-332.21,113.72-605.19,368.19-818.95Z"/>
        <path id="TI9" data-name="TI" class="st11" d="M1157.52,252.29c.48.55.95,1.11,1.42,1.66-252.94,215.56-406.49,487.29-460.65,815.18-.47-.08-.95-.16-1.42-.24,55.11-327.73,208.66-599.93,460.65-816.6Z"/>
        <path id="UR3" data-name="UR" class="st7" d="M673.84,1064.46c-.26-.06-.51-.11-.77-.17,70.97-324.67,235.75-591.38,494.33-800.14.06.08.12.15.19.23-258.71,208.61-423.29,475.3-493.75,800.08Z"/>
        <path id="NW3" data-name="NW" class="st7" d="M644.81,1057.25c-.11-.03-.21-.06-.32-.09,90.02-319.91,264.49-584.04,523.4-792.39.04.05.07.09.11.14-258.99,208.26-433.38,472.37-523.19,792.34Z"/>
        <path id="OW2" data-name="OW" class="st7" d="M624.45,1051.06c-.12-.04-.24-.08-.36-.12,103.62-315.77,284.65-578.11,543.1-787.05.07.09.14.17.21.26-258.58,208.76-439.57,471.06-542.95,786.9Z"/>
        <path id="LU3" data-name="LU" class="st7" d="M486.27,980.41c-.93-.68-1.86-1.36-2.78-2.04,197.36-267.38,420.71-510.94,670.03-730.67.75.85,1.49,1.7,2.23,2.55-250.82,218.03-473.98,461.41-669.49,730.16Z"/>
        <path id="TI10" data-name="TI" class="st11" d="M1145.56,238.88c.98,1.06,1.95,2.12,2.91,3.18-245.97,223.49-527.4,385.28-844.3,485.37-.26-.81-.51-1.63-.77-2.44,317.41-98.46,598.13-260.5,842.15-486.1Z"/>
        <path id="BS1" data-name="BS" class="st10" d="M282.8,619.32c-.05-.58-.1-1.16-.14-1.75,331.25-26.85,625.27-145.75,882.08-356.69.25.3.49.6.74.9-257.3,210.34-551.52,329.52-882.67,357.54Z"/>
        <path id="TI11" data-name="TI" class="st11" d="M1162.19,257.81c.3.36.6.72.89,1.07-255.7,212.27-545.51,281.21-869.41,206.81.06-.24.11-.49.17-.73,323.79,74.89,613.23,5.83,868.34-207.16Z"/>
        <path id="SO4" data-name="SO" class="st8" d="M356.51,313.55c.19-.31.39-.62.58-.94,281.62,176.45,551.08,159.51,808.38-50.83.21.26.42.52.64.78-257.72,209.82-527.59,226.81-809.6,50.99Z"/>
        <path id="TI12" data-name="TI" class="st11" d="M1166.88,263.51c.1.13.21.26.31.38-258.44,208.93-523.02,217.01-793.72,24.23.08-.11.15-.21.23-.32,270.55,192.99,534.95,184.9,793.19-24.29Z"/>
        <path id="NE2" data-name="NE" class="st8" d="M406.98,246.06c.19-.21.38-.42.56-.63,247.99,221.24,500.84,226.95,758.56,17.13.15.18.29.36.43.54-258.01,209.46-511.2,203.78-759.56-17.04Z"/>
        <path id="FR3" data-name="FR" class="st8" d="M514.9,154.83c.57-.36,1.14-.71,1.7-1.06,175.28,282.35,389.79,316.2,643.51,101.56.37.44.75.88,1.12,1.33-254.47,213.76-469.91,179.81-646.33-101.83Z"/>
        <path id="BE4" data-name="BE" class="st8" d="M751.13,79.6c1.65-.09,3.3-.18,4.96-.26,15.63,331.97,147.27,387.14,394.92,165.53.84.94,1.68,1.88,2.51,2.83-249.33,219.73-383.46,163.7-402.39-168.1Z"/>
        <path id="GL3" data-name="GL" class="st6" d="M1224.52,352.61c.19.37.37.74.56,1.11-297.03,149.05-301.25,141.19-12.64-23.59.16.29.33.57.49.86-288.93,164.2-285.07,171.41,11.59,21.62Z"/>
        <path id="SG4" data-name="SG" class="st6" d="M1268.09,478.25c1.27,6.24,2.41,12.51,3.44,18.8-328,53.5-357.28-17.03-87.84-211.58,3.2,4.43,6.33,8.92,9.39,13.46-275.69,185.58-250.69,245.35,75.02,179.32Z"/>
        <path id="AR3" data-name="AR" class="st6" d="M1277.77,593.35c-.01.36-.02.72-.04,1.08-332.14-11.42-353.58-98.95-64.32-262.58.15.26.3.53.45.79-289.55,163.11-268.25,250.01,63.91,260.71Z"/>
        <path id="GR4" data-name="GR" class="st6" d="M1215.05,334.77c.07.12.13.24.2.36-290.48,161.44-269.91,252.88,61.74,274.3,0,.12-.02.25-.02.37-331.63-21.67-352.26-113.35-61.91-275.04Z"/>
        <path id="TG1" data-name="TG" class="st6" d="M1252.03,736.17c-.34,1.01-.68,2.02-1.03,3.02-314.32-107.93-328.53-246.61-42.63-416.04.46.77.91,1.54,1.36,2.31-286.81,167.89-272.71,304.79,42.29,410.71Z"/>
        <path id="SH3" data-name="SH" class="st6" d="M1226.51,798c-.09.18-.18.36-.27.55-297.81-147.5-301.71-302.42-11.72-464.75.09.17.19.33.28.5-290.18,161.99-286.27,316.56,11.71,463.7Z"/>
        <path id="GR5" data-name="GR" class="st6" d="M1169.59,266.88c4.84,6.08,9.54,12.28,14.09,18.58-269.44,194.55-325.51,438.2-168.21,730.95-6.7,3.6-13.48,7.04-20.33,10.33-143.74-299.64-85.59-552.93,174.45-759.87Z"/>
        <path id="ZG4" data-name="ZG" class="st7" d="M798.71,1075.42c-.42.02-.84.03-1.26.05-11.95-332.12,126.22-580.86,414.49-746.21.17.29.33.58.5.87-288.61,164.77-426.52,413.2-413.73,745.29Z"/>
        <path id="GR6" data-name="GR" class="st6" d="M1206.92,320.7c.49.82.98,1.63,1.46,2.45-285.9,169.43-453.57,418.46-503.01,747.09-.9-.14-1.8-.27-2.71-.41,51.24-328.36,219.33-578.07,504.25-749.13Z"/>
        <path id="UR4" data-name="UR" class="st7" d="M672.3,1064.12c-.25-.06-.5-.11-.75-.17,71.98-324.44,253.07-567.66,543.24-729.66.09.15.17.31.26.46-290.35,161.68-471.27,404.8-542.75,729.36Z"/>
        <path id="NW4" data-name="NW" class="st7" d="M645.17,1057.35c-.12-.03-.24-.07-.36-.1,89.81-319.97,280.02-560.56,570.63-721.77.04.07.08.14.11.21-290.69,161.08-480.82,401.63-570.39,721.67Z"/>
        <path id="OW3" data-name="OW" class="st7" d="M625.42,1051.38c-.17-.05-.34-.11-.51-.16,103.07-315.95,299.85-554.64,590.34-716.08.06.11.13.23.19.34-290.61,161.21-487.29,399.85-590.02,715.9Z"/>
        <path id="LU4" data-name="LU" class="st7" d="M496.38,987.57c-1.37-.94-2.73-1.89-4.09-2.85,191.49-271.62,429.07-494.01,712.72-667.17.64,1.05,1.28,2.1,1.91,3.15-284.93,171.06-521.77,393.35-710.54,666.87Z"/>
        <path id="GR7" data-name="GR" class="st6" d="M1201.69,312.19c1.12,1.78,2.22,3.57,3.32,5.36-283.65,173.16-583.15,312.21-898.48,417.13-.51-1.55-1.02-3.09-1.52-4.64,316.35-101.83,615.24-241.11,896.69-417.85Z"/>
        <path id="BS2" data-name="BS" class="st10" d="M282.32,613.23c-.03-.37-.05-.75-.08-1.12,331.52-23.21,641.75-116.92,930.68-281.12.16.29.32.57.49.86-289.26,163.63-599.62,257.43-931.09,281.39Z"/>
        <path id="GR8" data-name="GR" class="st6" d="M1210.57,326.89c.25.43.49.85.74,1.28-287.86,166.08-594.13,213.7-918.83,142.85.1-.45.2-.9.3-1.35,324.5,71.75,630.43,24.15,917.79-142.78Z"/>
        <path id="GR9" data-name="GR" class="st6" d="M1209.74,325.46c.28.48.56.95.83,1.43-287.36,166.94-572.96,163.97-856.8-8.9.28-.45.55-.91.83-1.36,283.28,173.77,568.33,176.72,855.13,8.83Z"/>
        <path id="GR10" data-name="GR" class="st6" d="M1215.72,335.97s.01.02.02.03c-290.81,160.86-571.39,144.65-841.74-48.63,0-.01.02-.02.02-.03,270.33,193.3,550.9,209.51,841.69,48.63Z"/>
        <path id="GR11" data-name="GR" class="st6" d="M1215.65,335.83s.05.09.08.14c-290.8,160.88-559.7,130.15-806.7-92.19,0,0,.02-.02.03-.03,246.99,222.36,515.85,253.05,806.6,92.08Z"/>
        <path id="GR12" data-name="GR" class="st6" d="M1213.86,332.64c.12.21.24.42.36.64-289.79,162.68-521.23,102.17-694.31-181.54.17-.1.34-.21.5-.31,172.74,283.91,403.89,344.31,693.45,181.21Z"/>
        <path id="BE5" data-name="BE" class="st8" d="M736.47,80.66c2.57-.22,5.14-.43,7.72-.61,23.56,331.5,174.93,407.1,454.11,226.81,1.14,1.77,2.28,3.55,3.4,5.33-281.44,176.74-436.52,99.56-465.22-231.53Z"/>
        <path id="SG5" data-name="SG" class="st6" d="M1275.18,524.12c.21,1.98.41,3.97.6,5.96-330.84,31.48-350.45-32.48-58.84-191.89.95,1.75,1.9,3.5,2.83,5.25-293.5,155.9-275.03,216.12,55.41,180.67Z"/>
        <path id="AR4" data-name="AR" class="st6" d="M1277.61,597.76c0,.05,0,.1,0,.16-332.05-13.75-349.03-94.09-50.94-241.02.02.04.03.07.05.11-298.12,146.86-281.16,227.11,50.9,240.76Z"/>
        <path id="AI4" data-name="AI" class="st6" d="M1276.91,610.59s0,.08,0,.12c-331.59-22.28-348.27-106.75-50.05-253.41,0,.02.02.04.03.05-298.24,146.63-281.56,231.04,50.03,253.24Z"/>
        <path id="TG2" data-name="TG" class="st6" d="M1248.13,747.32c-.11.29-.21.58-.32.87-312.19-113.93-319.52-244.93-21.99-392.98.09.18.18.36.27.55-297.71,147.69-290.37,278.21,22.03,391.56Z"/>
        <path id="SH4" data-name="SH" class="st6" d="M1225.15,800.74c-.03.06-.06.12-.09.18-297.02-149.08-296.41-296.93,1.83-443.56,0,.02.02.04.03.05-298.26,146.59-298.84,294.37-1.77,443.33Z"/>
        <path id="GL4" data-name="GL" class="st6" d="M1219.77,343.44c.91,1.72,1.82,3.45,2.71,5.18-295.31,152.44-405.96,390.66-331.96,714.65-1.68.38-3.36.76-5.04,1.12-70.64-324.74,40.78-565.06,334.28-720.96Z"/>
        <path id="GL5" data-name="GL" class="st6" d="M1226.23,356.03c.04.08.08.15.11.23-297.88,147.36-443.66,387.17-437.34,719.45-.07,0-.14,0-.22,0-6.17-332.28,139.64-572.17,437.44-719.68Z"/>
        <path id="GL6" data-name="GL" class="st6" d="M1222.49,348.63c.68,1.32,1.36,2.65,2.03,3.98-296.66,149.79-470.62,388.86-521.86,717.22-.82-.13-1.63-.26-2.45-.39,52.88-328.1,226.97-568.37,522.28-720.82Z"/>
        <path id="UR5" data-name="UR" class="st7" d="M669.51,1063.5c-.08-.02-.15-.03-.23-.05,73.5-324.1,259.37-559.45,557.63-706.04,0,.02.02.04.03.05-298.27,146.56-484.08,381.9-557.42,706.04Z"/>
        <path id="GL7" data-name="GL" class="st6" d="M1226.94,357.46s.02.04.03.05c-298.29,146.52-492.92,379.6-583.87,699.25h-.02c90.97-319.65,285.59-552.74,583.87-699.3Z"/>
        <path id="OW4" data-name="OW" class="st7" d="M622.02,1050.26s-.06-.02-.09-.03c105.07-315.29,306.69-546.3,604.87-693.05.01.02.02.05.03.07-298.2,146.7-499.81,377.7-604.81,693.01Z"/>
        <path id="LU5" data-name="LU" class="st7" d="M472.8,970.26c-.17-.13-.34-.27-.51-.4,204.83-261.71,456.1-466.41,753.81-614.09.04.09.09.18.13.26-297.8,147.51-548.95,352.25-753.43,614.23Z"/>
        <path id="AG3" data-name="AG" class="st10" d="M301.12,717.38c-.11-.37-.22-.74-.33-1.12,319.16-92.65,627.25-213.5,924.29-362.55.15.29.29.59.44.88-297.33,148.46-605.46,269.39-924.4,362.78Z"/>
        <path id="BS3" data-name="BS" class="st10" d="M281.93,607.22c0-.09-.01-.18-.02-.28,331.74-19.77,646.68-103.08,944.8-249.94.01.03.03.06.04.09-298.15,146.8-613.09,230.18-944.83,250.13Z"/>
        <path id="BL3" data-name="BL" class="st10" d="M294.52,462.11c.02-.1.05-.2.07-.31,323.29,76.99,633.96,41.98,932.01-105.03l.06.12c-298.09,146.93-608.8,182-932.14,105.21Z"/>
        <path id="SO5" data-name="SO" class="st8" d="M358.25,310.78c.08-.13.16-.26.24-.38,280.69,177.93,569.97,193.22,867.85,45.86.04.08.08.15.11.23-297.95,147.2-587.36,131.97-868.21-45.71Z"/>
        <path id="JU1" data-name="JU" class="st8" d="M374.07,287.28v-.02c270.31,193.36,554.6,216.79,852.91,70.29-298.3,146.5-582.6,123.07-852.91-70.27Z"/>
        <path id="NE3" data-name="NE" class="st8" d="M409.1,243.7h.01c246.94,222.39,519.57,260.35,817.87,113.85-298.3,146.5-570.93,108.55-817.88-113.85Z"/>
        <path id="GL8" data-name="GL" class="st6" d="M1226.75,357.09s.03.06.04.09c-298.18,146.74-532.94,77.74-704.28-207.02.03-.02.06-.03.08-.05,171.28,284.79,406,353.79,704.15,206.99Z"/>
        <path id="GL9" data-name="GL" class="st6" d="M1225.52,354.6c.1.21.21.41.31.62-297.53,148.05-447.41,55.91-449.64-276.41.22,0,.45,0,.67,0,1.78,332.33,151.33,424.26,448.66,275.8Z"/>
        <path id="AR5" data-name="AR" class="st6" d="M1277.71,559.41c.29,8.13.38,16.27.28,24.4-332.3-4.35-337.32-47.08-15.04-128.21,1.89,7.51,3.6,15.06,5.14,22.65-325.71,66.03-322.5,93.08,9.62,81.16Z"/>
        <path id="AI5" data-name="AI" class="st6" d="M1277.45,601.29c-.06,1.25-.12,2.49-.19,3.74-331.82-18.49-332.18-42.11-1.1-70.85.09,1,.17,2,.25,3-331.26,26.74-330.91,48.11,1.04,64.11Z"/>
        <path id="TG3" data-name="TG" class="st6" d="M1269.54,668.89c-2.99,15.98-6.75,31.8-11.29,47.41-319.15-92.67-321.84-193.74-8.05-303.22,4.88,13.98,9.13,28.16,12.74,42.52-322.28,81.13-320.08,152.22,6.59,213.28Z"/>
        <path id="SH5" data-name="SH" class="st6" d="M1230.65,789.4c-.4.85-.8,1.7-1.21,2.55-299.95-143.1-284.16-226.32,47.35-249.66.06.79.11,1.57.16,2.36-331.62,21.77-347.05,103.35-46.3,244.75Z"/>
        <path id="SG6" data-name="SG" class="st6" d="M1228.07,359.79c8.4,17.32,15.79,35.12,22.13,53.29-313.78,109.47-338.49,264.9-74.11,466.27-11.54,15.15-23.93,29.62-37.13,43.35-239.63-230.27-209.92-417.91,89.11-562.91Z"/>
        <path id="ZG5" data-name="ZG" class="st7" d="M802.06,1075.28c-.69.03-1.38.06-2.07.09-13.64-332.05,145.39-508.26,477.1-528.62.04.63.08,1.26.11,1.89-331.78,19.1-490.17,194.65-475.15,526.65Z"/>
        <path id="SG7" data-name="SG" class="st6" d="M1271.53,497.04c.61,3.77,1.19,7.54,1.71,11.32-329.14,45.96-511.88,234.1-548.22,564.44-3.21-.35-6.42-.74-9.62-1.15,42.75-329.57,228.13-521.11,556.13-574.61Z"/>
        <path id="UR6" data-name="UR" class="st7" d="M673.07,1064.29c-.26-.06-.51-.11-.77-.17,71.48-324.55,273.25-493.8,605.29-507.74,0,.12,0,.24.01.35-332.05,13.7-533.56,182.88-604.53,507.55Z"/>
        <path id="NW5" data-name="NW" class="st7" d="M646.43,1057.7c-.16-.04-.32-.09-.47-.13,89.05-320.18,299.58-487.51,631.6-502,0,.15.01.3.02.45-332.03,14.19-542.41,181.41-631.15,501.68Z"/>
        <path id="SG8" data-name="SG" class="st6" d="M1277.5,554.3c.01.22.02.45.03.67-332,14.88-549.54,180.29-652.61,496.24-.16-.05-.31-.1-.47-.15,103.39-315.84,321.07-481.43,653.05-496.76Z"/>
        <path id="LU6" data-name="LU" class="st7" d="M500.77,990.57c-1.47-.99-2.93-1.99-4.39-3,188.77-273.52,448.57-426.02,779.41-457.49.13,1.37.25,2.73.37,4.1-331.09,28.74-589.55,180.88-775.39,456.39Z"/>
        <path id="AG4" data-name="AG" class="st10" d="M313.96,755.47c-1.15-2.99-2.26-6-3.35-9.01,312.61-112.78,633.49-192.15,962.63-238.1.44,3.13.84,6.26,1.22,9.4-329.95,39.69-650.12,118.93-960.5,237.72Z"/>
        <path id="SG9" data-name="SG" class="st6" d="M1277.2,548.64c.03.6.07,1.19.1,1.79-331.85,17.91-663.4,40.29-994.65,67.15-.05-.56-.09-1.13-.13-1.69,331.34-25.73,662.9-48.14,994.68-67.25Z"/>
        <path id="SG10" data-name="SG" class="st6" d="M1276.41,537.18c.07.86.14,1.73.2,2.59-331.39,25.01-659.58,2.76-984.56-66.75.14-.67.29-1.34.43-2,324.69,70.85,652.67,92.9,983.92,66.16Z"/>
        <path id="SO6" data-name="SO" class="st8" d="M348.76,326.4c.52-.9,1.05-1.79,1.57-2.68,286.13,169.05,594.88,241.07,926.27,216.05.06.84.12,1.68.18,2.51-331.51,23.34-640.86-48.62-928.03-215.88Z"/>
        <path id="JU2" data-name="JU" class="st8" d="M373.7,287.8c.05-.07.1-.14.15-.21,270.45,193.13,571.71,282.85,903.76,269.15,0,.06,0,.12,0,.18-332.06,13.58-633.36-76.12-903.91-269.12Z"/>
        <path id="SG11" data-name="SG" class="st6" d="M1277.57,556.01c0,.12.01.25.02.37-332.04,13.94-621.66-90.16-868.86-312.28l.16-.18c247.09,222.24,536.65,326.27,868.68,312.08Z"/>
        <path id="SG12" data-name="SG" class="st6" d="M1277.45,553.22c.02.36.03.72.05,1.08-331.98,15.33-584.78-118.69-758.41-402.06.27-.17.55-.34.82-.5,173.08,283.71,425.59,417.53,757.54,401.49Z"/>
        <path id="BE6" data-name="BE" class="st8" d="M711.96,83.39c2.86-.39,5.73-.76,8.6-1.1,39.31,330,223.95,475.15,553.9,435.46.25,2.12.5,4.24.72,6.36-330.44,35.45-518.18-111.46-563.22-440.72Z"/>
        <path id="AI6" data-name="AI" class="st6" d="M1277.26,605.03c-.06,1-.11,2.01-.18,3.01-331.7-20.49-331.44-26.26.77-17.31-.02.87-.05,1.75-.08,2.62-332.16-10.7-332.33-6.81-.51,11.68Z"/>
        <path id="TG4" data-name="TG" class="st6" d="M1253.31,732.31c-.42,1.29-.85,2.57-1.28,3.85-315-105.92-306.35-156.7,25.95-152.35-.02,1.23-.04,2.47-.06,3.7-332.26-6.82-340.47,41.45-24.61,144.8Z"/>
        <path id="AR6" data-name="AR" class="st6" d="M1277.63,597.28c0,.09,0,.17-.01.26-332.06-13.5-349.44,54.02-52.14,202.55-.04.08-.08.15-.11.23-297.22-148.68-279.8-216.36,52.27-203.03Z"/>
        <path id="ZH5" data-name="ZH" class="st1" d="M880.68,1065.42c-1.11.23-2.21.45-3.32.68-65.22-325.87,68.3-485.4,400.57-478.58-.02,1.07-.05,2.14-.08,3.21-332.21-8.96-464.6,149.28-397.17,474.7Z"/>
        <path id="ZG6" data-name="ZG" class="st7" d="M789.24,1075.7c-.08,0-.16,0-.24,0-6.32-332.27,156.54-491.39,488.58-477.34,0,.03,0,.07,0,.1-332.03-14.11-494.81,144.96-488.34,477.23Z"/>
        <path id="SZ4" data-name="SZ" class="st7" d="M687.6,1067.24c-.14-.03-.28-.05-.43-.08,61.57-326.58,258.39-483.3,590.47-470.16,0,.09,0,.18-.01.28-332.07-13.33-528.74,143.33-590.03,469.96Z"/>
        <path id="AR7" data-name="AR" class="st6" d="M1277.6,597.91s0,.09,0,.14c-332.05-13.84-535.13,141.22-609.25,465.18h-.02c74.14-323.96,277.23-479.07,609.28-465.32Z"/>
        <path id="AR8" data-name="AR" class="st6" d="M1277.57,598.62s0,.05,0,.08c-332.03-14.27-543.54,138.41-634.54,458.04,91-319.63,302.51-472.34,634.54-458.12Z"/>
        <path id="AR9" data-name="AR" class="st6" d="M1277.67,596.3c0,.14-.01.28-.02.41-332.08-12.95-600.78,111.25-806.09,372.57-.08-.06-.15-.12-.23-.18,205.47-261.21,474.25-385.47,806.34-372.8Z"/>
        <path id="AR10" data-name="AR" class="st6" d="M1277.7,595.39c-.01.3-.02.6-.03.91-332.09-12.67-658.08,26.06-977.95,116.2-.05-.18-.1-.35-.15-.53,319.98-89.78,646.02-128.64,978.13-116.57Z"/>
        <path id="BS4" data-name="BS" class="st10" d="M281.91,606.94c0-.09-.01-.17-.02-.26,331.76-19.6,663.66-22.65,995.72-9.15,0,.07,0,.14,0,.22-332.05-13.64-663.95-10.58-995.7,9.19Z"/>
        <path id="BL4" data-name="BL" class="st10" d="M294.59,461.8l.04-.17c323.26,77.11,650.92,122.58,982.96,136.42,0,.04,0,.08,0,.12-332.04-13.92-659.71-59.37-983-136.37Z"/>
        <path id="AR11" data-name="AR" class="st6" d="M1277.65,596.71c0,.1,0,.2-.01.3-332.07-13.14-638.31-108.91-918.7-287.31.02-.04.05-.08.07-.12,280.34,178.47,586.56,274.18,918.64,287.13Z"/>
        <path id="JU3" data-name="JU" class="st8" d="M374.09,287.26s0-.01.01-.02c270.29,193.37,571.44,297.22,903.47,311.56-332.02-14.34-633.18-118.18-903.48-311.54Z"/>
        <path id="AR12" data-name="AR" class="st6" d="M1277.56,598.78s0,.01,0,.02c-332.02-14.34-621.5-132.72-868.42-355.14,246.93,222.43,536.4,340.8,868.43,355.12Z"/>
        <path id="AR13" data-name="AR" class="st6" d="M1277.57,598.7v.08c-332.03-14.32-583.65-163.9-754.88-448.73.02-.01.05-.03.07-.04,171.18,284.86,422.79,434.42,754.81,448.69Z"/>
        <path id="AR14" data-name="AR" class="st6" d="M1277.73,594.43c-.01.32-.02.64-.03.96-332.11-12.07-499.9-184.26-503.34-516.57.32,0,.63,0,.95,0,2.82,332.32,170.29,504.19,502.43,515.62Z"/>
        <path id="TG5" data-name="TG" class="st6" d="M1247.28,749.66c-.08.23-.17.46-.25.68-311.67-115.36-301.67-162.55,30-141.56-.01.22-.03.43-.04.65-331.64-21.43-341.55,25.32-29.71,140.22Z"/>
        <path id="AI7" data-name="AI" class="st6" d="M1276.88,611.04s0,.04,0,.06c-331.57-22.54-348.93,40.91-52.09,190.34-296.84-149.43-279.48-212.9,52.09-190.4Z"/>
        <path id="ZH6" data-name="ZH" class="st1" d="M868.01,1067.88c-.26.05-.53.1-.79.14-58.46-327.15,78.16-480.48,409.86-459.99-.02.25-.03.5-.05.75-331.67-20.99-468.01,132.04-409.02,459.1Z"/>
        <path id="ZG7" data-name="ZG" class="st7" d="M788.57,1075.71s-.04,0-.06,0c-5.99-332.28,156.8-487.14,488.37-464.57,0,.01,0,.03,0,.04-331.56-22.59-494.33,132.25-488.3,464.53Z"/>
        <path id="AI8" data-name="AI" class="st6" d="M1276.97,609.8c0,.08-.01.16-.02.24-331.62-21.83-528.41,130.5-590.4,457.01,0,0-.01,0-.02,0,62-326.5,258.81-478.91,590.43-457.24Z"/>
        <path id="AI9" data-name="AI" class="st6" d="M1276.92,610.43c0,.05,0,.1-.01.16-331.59-22.2-534.46,128.68-608.59,452.64,74.14-323.96,277-474.89,608.6-452.8Z"/>
        <path id="OW5" data-name="OW" class="st7" d="M621.92,1050.22s-.02,0-.04-.01c105.09-315.28,323.42-461.61,654.98-438.99,0,0,0,.01,0,.02-331.56-22.63-549.88,123.7-654.95,438.98Z"/>
        <path id="AI10" data-name="AI" class="st6" d="M1276.91,610.71s0,.08,0,.12c-331.58-22.36-600.14,97.04-805.68,358.19-.03-.02-.05-.04-.08-.06,205.59-261.11,474.18-380.52,805.76-358.25Z"/>
        <path id="AG5" data-name="AG" class="st10" d="M299.42,711.44c-.03-.1-.06-.2-.08-.3,320.13-89.23,646-122.92,977.62-101.09,0,.07,0,.14-.01.22-331.61-21.98-657.45,11.75-977.52,101.18Z"/>
        <path id="BS5" data-name="BS" class="st10" d="M281.87,606.22s0-.05,0-.08c331.78-19.23,663.45-17.53,995.01,5.1,0,0,0,.01,0,.02-331.56-22.64-663.23-24.32-995-5.04Z"/>
        <path id="BL5" data-name="BL" class="st10" d="M294.7,461.34s0-.03,0-.04c323.21,77.33,650.6,127.31,982.16,149.96,0,0,0,.01,0,.02-331.56-22.66-658.95-72.64-982.17-149.94Z"/>
        <path id="AI11" data-name="AI" class="st6" d="M1276.87,611.28s0,.01,0,.02c-331.56-22.67-637.49-123.28-917.78-301.83,280.29,178.55,586.22,279.16,917.78,301.81Z"/>
        <path id="AI12" data-name="AI" class="st6" d="M1276.87,611.18s0,.03,0,.04c-331.56-22.62-620.81-145.14-867.73-367.56,246.93,222.43,536.17,344.93,867.74,367.53Z"/>
        <path id="FR4" data-name="FR" class="st8" d="M522.6,150.1s.06-.03.08-.05c171.23,284.83,422.62,438.58,754.18,461.25-331.56-22.67-582.98-176.4-754.26-461.2Z"/>
        <path id="AI13" data-name="AI" class="st6" d="M1276.94,610.26c0,.06,0,.12-.01.18-331.6-22.09-498.29-199.3-500.07-531.63.06,0,.12,0,.18,0,1.66,332.33,168.3,509.48,499.9,531.46Z"/>
        <path id="SH6" data-name="SH" class="st6" d="M1234.11,781.88c-1.13,2.51-2.28,5.02-3.46,7.52-300.75-141.4-292.16-163.71,25.77-66.92-.58,1.9-1.17,3.8-1.77,5.7-316.75-100.59-323.59-82.68-20.54,53.71Z"/>
        <path id="TG6" data-name="TG" class="st6" d="M1276.69,613.78c-1.36,18.49-3.74,36.88-7.15,55.1-326.68-61.06-370.2,23.54-130.57,253.81-8.77,9.13-17.89,17.92-27.33,26.36-221.4-247.84-166.38-359.6,165.06-335.27Z"/>
        <path id="TG7" data-name="TG" class="st6" d="M1249.34,743.95c-.14.38-.27.77-.41,1.15-312.94-111.87-464.21-1.72-453.81,330.45-.35.01-.71.02-1.06.03-9.69-332.19,142.07-442.74,455.28-331.63Z"/>
        <path id="TG8" data-name="TG" class="st6" d="M1250.4,740.94c-.2.57-.4,1.14-.6,1.71-313.52-110.24-498.3-1.57-554.35,326-.44-.08-.88-.15-1.32-.23,56.93-327.42,242.35-436.58,556.27-327.49Z"/>
        <path id="TG9" data-name="TG" class="st6" d="M1246.63,751.41c-.03.09-.07.18-.1.28-311.33-116.26-503.94-12.38-577.82,311.63l-.15-.04c73.98-323.99,266.68-427.95,578.08-311.87Z"/>
        <path id="NW6" data-name="NW" class="st7" d="M643.89,1056.98c-.09-.03-.18-.05-.27-.08,90.61-319.74,291.54-421.4,602.82-304.98-.03.07-.06.15-.08.22-311.22-116.57-512.04-14.96-602.47,304.84Z"/>
        <path id="TG10" data-name="TG" class="st6" d="M1246.53,751.69c-.03.08-.06.16-.09.24-311.27-116.42-519.16-16.9-623.67,298.58-.06-.02-.12-.04-.19-.06,104.63-315.43,312.62-415.02,623.95-298.75Z"/>
        <path id="LU7" data-name="LU" class="st7" d="M478.61,974.72c-.68-.52-1.36-1.03-2.04-1.55,201.97-263.92,460.12-341.91,774.43-233.98-.2.58-.4,1.17-.6,1.75-313.92-109.1-571.18-31.17-771.79,233.79Z"/>
        <path id="TG11" data-name="TG" class="st6" d="M1258.26,716.3c-.6,2.06-1.21,4.12-1.84,6.17-317.93-96.79-633.96-90.94-948.09,17.53-.61-1.77-1.21-3.54-1.8-5.32,315.34-104.92,632.58-111.05,951.73-18.38Z"/>
        <path id="BS6" data-name="BS" class="st10" d="M282.42,614.53c-.03-.43-.06-.86-.1-1.3,331.47-23.96,653.53,20.38,966.2,133.02-.13.36-.26.72-.39,1.07-312.4-113.35-634.31-157.62-965.71-132.79Z"/>
        <path id="TG12" data-name="TG" class="st6" d="M1248.93,745.1c-.14.38-.27.77-.41,1.15-312.66-112.64-631.08-205.57-955.24-278.81.07-.31.14-.63.21-.94,324.02,73.86,642.5,166.73,955.44,278.6Z"/>
        <path id="SO7" data-name="SO" class="st8" d="M352.8,319.59c.32-.53.65-1.07.97-1.6,283.84,172.87,582.51,314.42,896.03,424.66-.15.43-.31.87-.46,1.3-313.21-111.1-612.06-252.56-896.54-424.36Z"/>
        <path id="TG13" data-name="TG" class="st6" d="M1246.28,752.35s0,.02-.01.04c-311.16-116.73-601.9-271.75-872.24-465.05,0-.01.02-.02.02-.03,270.32,193.32,561.06,348.34,872.23,465.04Z"/>
        <path id="TG14" data-name="TG" class="st6" d="M1246.36,752.15l-.04.11c-311.19-116.64-590.28-286.14-837.27-508.5,0,0,.02-.02.03-.03,246.97,222.38,526.06,391.85,837.28,508.42Z"/>
        <path id="TG15" data-name="TG" class="st6" d="M1247.82,748.19c-.09.25-.18.49-.27.74-312.01-114.43-554.39-313.6-727.13-597.51.15-.09.3-.18.45-.28,172.44,284.09,414.76,483.11,726.95,597.04Z"/>
        <path id="TG16" data-name="TG" class="st6" d="M1254.65,728.17c-.44,1.38-.88,2.76-1.34,4.14-315.86-103.35-481.6-321-497.23-652.97,1.35-.06,2.7-.12,4.05-.17,12.93,332.08,177.76,548.42,494.51,649Z"/>
        <path id="SH7" data-name="SH" class="st6" d="M1245.38,754.72c-3.49,9.16-7.25,18.22-11.27,27.16-303.06-136.39-394.54-49.65-274.44,260.22-5.49,2.13-11.01,4.16-16.57,6.09-109.05-313.93-8.29-411.76,302.28-293.47Z"/>
        <path id="SH8" data-name="SH" class="st6" d="M1225.25,800.53c-.04.07-.07.14-.11.21-297.08-148.96-442.53-57.31-436.36,274.97-.07,0-.14,0-.22,0-6.03-332.28,139.53-424.01,436.68-275.19Z"/>
        <path id="SH9" data-name="SH" class="st6" d="M1225.99,799.04c-.07.15-.15.29-.22.44-297.5-148.13-477.03-58.9-538.6,267.68-.11-.02-.22-.04-.33-.06,61.79-326.54,241.51-415.89,539.15-268.06Z"/>
        <path id="UR7" data-name="UR" class="st7" d="M669.28,1063.45c-.07-.02-.14-.03-.21-.05,73.64-324.07,258.94-411.52,555.91-262.33-.02.04-.04.07-.05.11-296.93-149.26-482.15-61.83-555.64,262.27Z"/>
        <path id="SH10" data-name="SH" class="st6" d="M1224.83,801.37s-.02.04-.03.05c-296.85-149.42-490.76-64.31-581.73,255.33,0,0-.01,0-.02,0,90.98-319.64,284.91-404.76,581.78-255.38Z"/>
        <path id="OW6" data-name="OW" class="st7" d="M622.97,1050.57c-.07-.02-.14-.05-.21-.07,104.51-315.47,305.23-398.58,602.16-249.33-.02.04-.04.07-.05.11-296.9-149.33-497.53-66.23-601.9,249.29Z"/>
        <path id="LU8" data-name="LU" class="st7" d="M473.42,970.74c-.21-.16-.41-.32-.62-.48,204.48-261.98,456.04-320.04,754.65-174.18-.11.23-.22.46-.34.69-298.39-146.31-549.62-88.32-753.69,173.98Z"/>
        <path id="SH11" data-name="SH" class="st6" d="M1229.45,791.94c-.4.84-.8,1.67-1.2,2.5-299.14-144.77-607.42-167.92-924.84-69.46-.24-.78-.48-1.57-.72-2.35,317.9-96.89,626.82-73.79,926.76,69.31Z"/>
        <path id="SH12" data-name="SH" class="st6" d="M1226.8,797.4c-.1.2-.2.4-.3.6-297.99-147.14-612.8-209.97-944.44-188.48-.01-.22-.03-.45-.04-.67,331.67-21.04,646.59,41.81,944.77,188.55Z"/>
        <path id="SH13" data-name="SH" class="st6" d="M1226.24,798.55c-.08.16-.16.33-.25.49-297.64-147.83-608.27-259.55-931.9-335.13.03-.13.06-.27.09-.4,323.56,75.86,634.24,187.54,932.05,335.04Z"/>
        <path id="SH14" data-name="SH" class="st6" d="M1227.11,796.77c-.1.21-.21.42-.31.64-298.18-146.74-588.08-308.34-869.7-484.79.12-.18.23-.37.35-.55,281.39,176.82,571.28,338.39,869.67,484.7Z"/>
        <path id="SH15" data-name="SH" class="st6" d="M1224.8,801.42s0,.01,0,.02c-296.84-149.43-580.41-320.83-850.69-514.2v-.02c270.29,193.38,553.85,364.78,850.7,514.2Z"/>
        <path id="NE4" data-name="NE" class="st8" d="M409.11,243.68s0,0,.01-.01c246.93,222.42,518.82,408.34,815.67,557.77-296.84-149.43-568.74-335.35-815.68-557.76Z"/>
        <path id="SH16" data-name="SH" class="st6" d="M1225.06,800.91c-.03.05-.05.11-.08.16-296.97-149.19-531.19-366.11-702.68-650.79.04-.02.08-.05.12-.07,171.41,284.72,405.62,501.62,702.64,650.7Z"/>
        <path id="BE7" data-name="BE" class="st8" d="M769.43,78.9c.66-.01,1.33-.03,1.99-.04,5.4,332.29,157.68,570.82,456.82,715.59-.26.54-.53,1.09-.79,1.63-298.62-145.85-451.29-384.91-458.02-717.18Z"/>
        <path id="ZG8" data-name="ZG" class="st7" d="M864.76,1068.45c-9.92,1.72-19.89,3.14-29.89,4.26-36.89-330.28,30.04-352.86,200.8-67.76-6.64,3.98-13.38,7.8-20.2,11.47-157.29-292.75-207.53-275.41-150.71,52.03Z"/>
        <path id="SZ5" data-name="SZ" class="st7" d="M785.98,1075.75c-13.14.17-26.28-.18-39.39-1.05,21.96-331.61,134-365.51,336.12-101.7-7.53,5.77-15.22,11.32-23.06,16.65-186.74-274.91-277.96-246.21-273.66,86.1Z"/>
        <path id="UR8" data-name="UR" class="st7" d="M681.61,1066.08c-.8-.16-1.6-.32-2.39-.49,66.87-325.54,131.48-325.09,193.81,1.35-.7.13-1.39.26-2.09.39-60.94-326.7-124.05-327.12-189.32-1.26Z"/>
        <path id="NW7" data-name="NW" class="st7" d="M653.14,1059.51c-.71-.18-1.41-.37-2.11-.56,85.67-321.1,160.38-318.57,224.13,7.59-.71.14-1.42.28-2.13.41-62.33-326.44-135.63-328.92-219.88-7.44Z"/>
        <path id="ZH7" data-name="ZH" class="st1" d="M870.94,1067.34c-.69.13-1.38.26-2.07.38-59.56-326.95-139.49-332.01-239.8-15.18-.46-.15-.93-.29-1.39-.44,101.24-316.54,182.32-311.46,243.26,15.24Z"/>
        <path id="ZH8" data-name="ZH" class="st1" d="M1059.64,989.65c-7.84,5.33-15.84,10.43-23.97,15.3-170.76-285.11-320.76-274.58-450.02,31.59-8.2-3.46-16.3-7.14-24.3-11.03,145.45-298.81,311.55-310.77,498.29-35.86Z"/>
        <path id="AG6" data-name="AG" class="st10" d="M469.19,967.41c-36.7-29.2-69.1-63.42-96.23-101.67,271.05-192.3,554.62-212.99,850.71-62.07-13.56,26.6-29.48,51.93-47.57,75.68-264.38-201.37-500.01-172.02-706.91,88.06Z"/>
        <path id="ZH9" data-name="ZH" class="st1" d="M943.11,1048.19c-4.51,1.57-9.04,3.07-13.59,4.5-99.99-316.93-313.71-447.01-641.16-390.23-.71-4.1-1.37-8.21-1.98-12.33,328.77-48.56,547.68,84.12,656.73,398.05Z"/>
        <path id="ZH10" data-name="ZH" class="st1" d="M916.63,1056.57c-3.66,1.05-7.34,2.05-11.02,3.02-84.05-321.53-289.75-510.98-617.09-568.37.47-2.7.97-5.39,1.49-8.08,326.35,62.77,535.23,253.91,626.63,573.43Z"/>
        <path id="SO8" data-name="SO" class="st8" d="M334.82,352.05c2.18-4.31,4.43-8.59,6.74-12.84,291.98,158.72,487.97,396.55,587.96,713.48-4.28,1.35-8.57,2.64-12.88,3.87-91.4-319.52-285.34-554.36-581.81-704.52Z"/>
        <path id="JU4" data-name="JU" class="st8" d="M370.46,292.39c.2-.28.39-.56.59-.84,272.32,190.49,438.26,449.22,497.81,776.17-.28.05-.57.1-.85.15-58.99-327.06-224.84-585.55-497.55-775.48Z"/>
        <path id="ZH11" data-name="ZH" class="st1" d="M877.36,1066.1c-.73.15-1.47.29-2.2.44-63.75-326.16-220.19-599.22-469.31-819.19.38-.43.76-.86,1.14-1.28,248.36,220.82,405.15,494.17,470.37,820.04Z"/>
        <path id="ZH12" data-name="ZH" class="st1" d="M885.49,1064.4c-1.6.35-3.21.69-4.82,1.02-67.43-325.42-191.7-627.46-372.79-906.12,1.05-.68,2.11-1.36,3.16-2.04,178.98,280.02,303.8,582.4,374.44,907.14Z"/>
        <path id="ZH13" data-name="ZH" class="st1" d="M1111.63,949.06c-9.34,8.34-18.99,16.33-28.93,23.95-202.12-263.81-374.61-545.74-517.48-845.79,9.75-4.64,19.64-8.96,29.67-12.96,123.09,308.7,295.34,586.97,516.74,834.81Z"/>
        <path id="SZ6" data-name="SZ" class="st7" d="M735.21,1073.82c-3.4-.3-6.8-.64-10.19-1.02,36.34-330.34,66.12-329.75,89.35,1.77-2.23.16-4.47.3-6.7.42-18.76-331.8-42.91-332.2-72.45-1.18Z"/>
        <path id="UR9" data-name="UR" class="st7" d="M671.55,1063.96c-.21-.05-.42-.09-.63-.14,72.41-324.35,112.02-320.39,118.83,11.87-.09,0-.17,0-.26,0-6.65-332.27-45.96-336.18-117.94-11.73Z"/>
        <path id="NW8" data-name="NW" class="st7" d="M648.67,1058.31c-.29-.08-.58-.16-.87-.24,87.82-320.52,135.65-314.66,143.49,17.58-.21,0-.42,0-.63.01-7.42-332.25-54.75-338.04-141.99-17.36Z"/>
        <path id="OW7" data-name="OW" class="st7" d="M626.7,1051.79c-.22-.07-.44-.14-.66-.21,102.32-316.19,157.2-308.16,164.62,24.09-.2,0-.41,0-.61.01-7.01-332.26-61.46-340.22-163.35-23.89Z"/>
        <path id="LU9" data-name="LU" class="st7" d="M545.15,1017.26c-4.58-2.44-9.13-4.96-13.64-7.54,165.34-288.28,266.46-267.28,303.36,62.99-4.24.47-8.48.89-12.72,1.26-28.41-331.12-120.74-350.02-277-56.71Z"/>
        <path id="AG7" data-name="AG" class="st10" d="M321.65,774.4c-1.36-3.17-2.69-6.35-3.99-9.54,307.91-125.04,476.07-22,504.49,309.11-2.59.22-5.18.42-7.78.61-23.23-331.52-187.47-431.58-492.72-300.18Z"/>
        <path id="ZG9" data-name="ZG" class="st7" d="M799.99,1075.37c-.43.02-.85.03-1.28.05-12.79-332.09-184.97-486.83-516.53-464.23-.02-.29-.04-.59-.06-.88,331.6-22.01,504.23,133.01,517.87,465.07Z"/>
        <path id="ZG10" data-name="ZG" class="st7" d="M792.11,1075.63c-.28,0-.55.01-.83.02-7.84-332.24-173.61-536-497.31-611.26.04-.16.07-.32.11-.48,323.62,75.59,489.63,279.5,498.02,611.72Z"/>
        <path id="ZG11" data-name="ZG" class="st7" d="M796.27,1075.51c-.38.01-.76.03-1.14.04-10.4-332.17-156.81-585.85-439.22-761.03.2-.32.4-.65.6-.97,282.01,175.83,428.6,429.82,439.76,761.96Z"/>
        <path id="JU5" data-name="JU" class="st8" d="M373.96,287.44s.03-.04.05-.06c270.35,193.28,408.52,456.06,414.5,788.34-.01,0-.03,0-.04,0-5.96-332.28-144.13-595.04-414.51-788.28Z"/>
        <path id="ZG12" data-name="ZG" class="st7" d="M789.5,1075.69c-.09,0-.17,0-.26,0-6.47-332.27-133.26-609.53-380.35-831.77.02-.02.04-.04.05-.06,247.06,222.28,373.91,499.55,380.55,831.82Z"/>
        <path id="FR5" data-name="FR" class="st8" d="M521.68,150.66c.12-.07.24-.14.35-.21,171.66,284.56,261,592.98,268.02,925.23-.1,0-.2,0-.3,0-6.82-332.26-96.17-640.61-268.08-925.03Z"/>
        <path id="ZG13" data-name="ZG" class="st7" d="M807.66,1075c-1.11.06-2.23.12-3.34.18-16.53-331.92-28.98-664-37.35-996.22.82-.02,1.64-.04,2.46-.06,6.73,332.27,19.47,664.3,38.23,996.1Z"/>
        <path id="UR10" data-name="UR" class="st7" d="M679.22,1065.6c-.73-.15-1.47-.3-2.2-.46,68.34-325.23,76.07-323.8,23.19,4.3-.64-.1-1.28-.21-1.92-.31,54.16-327.89,47.8-329.07-19.07-3.53Z"/>
        <path id="SZ7" data-name="SZ" class="st7" d="M690.95,1067.86c-.26-.05-.52-.09-.78-.14,59.57-326.95,45.44-330.17-42.38-9.65-.23-.06-.47-.13-.7-.19,88.29-320.39,102.91-317.06,43.86,9.98Z"/>
        <path id="OW8" data-name="OW" class="st7" d="M626.04,1051.58c-.21-.07-.41-.13-.62-.2,102.74-316.06,123.84-310.7,63.3,16.08-.19-.04-.39-.07-.58-.11,60.92-326.7,40.23-331.96-62.1-15.77Z"/>
        <path id="SZ8" data-name="SZ" class="st7" d="M746.58,1074.7c-3.79-.25-7.58-.55-11.37-.88,29.54-331.02-38.36-352.39-203.7-64.1-3.24-1.86-6.45-3.75-9.64-5.68,171.77-284.5,246.68-260.95,224.72,70.66Z"/>
        <path id="SZ9" data-name="SZ" class="st7" d="M715.4,1071.65c-2.29-.3-4.57-.61-6.85-.94,47.32-328.95-85.33-437.03-397.94-324.25-.78-2.15-1.54-4.3-2.28-6.46,314.13-108.47,449.82,2.08,407.07,331.65Z"/>
        <path id="SZ10" data-name="SZ" class="st7" d="M690.17,1067.72c-.25-.05-.5-.09-.76-.14,60.07-326.86-75.73-479.93-407.42-459.2,0-.13-.02-.26-.02-.39,331.7-20.46,467.77,132.78,408.2,459.73Z"/>
        <path id="SZ11" data-name="SZ" class="st7" d="M696.87,1068.89c-.47-.08-.95-.16-1.42-.24,56.05-327.57-77.82-528.8-401.6-603.69.04-.19.09-.38.13-.58,323.7,75.27,457.99,276.77,402.89,604.5Z"/>
        <path id="SZ12" data-name="SZ" class="st7" d="M692.89,1068.21c-.39-.07-.78-.14-1.16-.21,58.53-327.14-53.61-577.97-336.43-752.49.2-.33.41-.66.61-.99,282.41,175.18,394.74,426.41,336.98,753.69Z"/>
        <path id="SZ13" data-name="SZ" class="st7" d="M686.69,1067.07l-.14-.03c61.98-326.5-42.16-586.44-312.44-779.82,0,0,0-.01.01-.02,270.27,193.39,374.46,453.34,312.57,779.86Z"/>
        <path id="SZ14" data-name="SZ" class="st7" d="M686.84,1067.1c-.05,0-.1-.02-.15-.03,61.89-326.52-30.62-600.99-277.55-823.42,246.93,222.43,339.49,496.91,277.7,823.45Z"/>
        <path id="SZ15" data-name="SZ" class="st7" d="M688.14,1067.35c-.18-.03-.36-.07-.54-.1,61.29-326.63,5.71-632-166.73-916.09.14-.09.28-.17.42-.26,172.16,284.26,227.78,589.75,166.85,916.45Z"/>
        <path id="SZ16" data-name="SZ" class="st7" d="M708.55,1070.71c-1.06-.15-2.12-.31-3.18-.47,49.44-328.64,68.93-659.04,58.47-991.21,1.04-.03,2.09-.06,3.13-.09,8.37,332.23-11.1,662.82-58.42,991.76Z"/>
        <path id="UR11" data-name="UR" class="st7" d="M675.86,1064.9c-.35-.07-.69-.15-1.04-.22,69.8-324.92,60.56-327.18-27.73-6.79-.22-.06-.44-.12-.66-.18,88.73-320.27,98.55-317.87,29.44,7.2Z"/>
        <path id="UR12" data-name="UR" class="st7" d="M670.38,1063.7c-.11-.02-.22-.05-.33-.07,72.98-324.22,57.55-328.48-46.29-12.79-.11-.03-.21-.07-.32-.1,104.06-315.62,119.71-311.3,46.94,12.97Z"/>
        <path id="LU10" data-name="LU" class="st7" d="M480.91,976.45c-.77-.57-1.53-1.15-2.3-1.73,200.61-264.95,269.1-234.34,205.48,91.85-.82-.16-1.65-.32-2.47-.49,65.28-325.86-1.62-355.74-200.7-89.63Z"/>
        <path id="AG8" data-name="AG" class="st10" d="M300.47,715.17c-.1-.35-.2-.71-.3-1.06,319.57-91.21,444.46,25.64,374.65,350.56-.33-.07-.65-.14-.98-.21,70.46-324.78-54-441.21-373.37-349.29Z"/>
        <path id="UR13" data-name="UR" class="st7" d="M670.05,1063.62c-.1-.02-.19-.04-.29-.06,73.18-324.18-56.11-476.47-387.87-456.87,0-.08,0-.16-.01-.24,331.76-19.44,461.15,132.95,388.17,457.17Z"/>
        <path id="UR14" data-name="UR" class="st7" d="M669.07,1063.4c-.07-.02-.14-.03-.21-.05,73.78-324.04-50.96-524.62-374.23-601.73.01-.05.02-.1.04-.15,323.24,77.21,448.04,277.85,374.4,601.93Z"/>
        <path id="SO9" data-name="SO" class="st8" d="M358.73,310.03c.07-.11.14-.22.21-.33,280.39,178.4,384,429.68,310.82,753.86-.08-.02-.17-.04-.25-.06,73.34-324.14-30.25-575.3-310.79-753.47Z"/>
        <path id="JU6" data-name="JU" class="st8" d="M374.12,287.21s0-.01.01-.02c270.26,193.4,368.33,452.08,294.19,776.04,74.14-323.96-23.93-582.63-294.2-776.02Z"/>
        <path id="NE5" data-name="NE" class="st8" d="M408.94,243.87s.03-.03.04-.04c247.03,222.31,333.5,495.45,259.4,819.41-.01,0-.03,0-.04,0,74.12-323.96-12.34-597.08-259.4-819.36Z"/>
        <path id="UR15" data-name="UR" class="st7" d="M668.55,1063.28s-.08-.02-.12-.03c74.06-323.98,25.5-628.39-145.68-913.25.01,0,.02-.01.03-.02,171.16,284.87,219.75,589.3,145.76,913.29Z"/>
        <path id="UR16" data-name="UR" class="st7" d="M677.02,1065.14c-.39-.08-.77-.16-1.16-.24,69.11-325.07,102.26-653.76,99.44-986.08.3,0,.59,0,.89,0,2.23,332.33-30.83,661.1-99.17,986.34Z"/>
        <path id="OW9" data-name="OW" class="st7" d="M634.78,1054.32c-1.23-.37-2.46-.75-3.69-1.14,98.96-317.26,107.29-314.9,24.99,7.08-.98-.25-1.96-.5-2.94-.76,84.26-321.47,78.14-323.2-18.36-5.19Z"/>
        <path id="LU11" data-name="LU" class="st7" d="M521.87,1004.04c-2.96-1.79-5.9-3.6-8.81-5.45,177.65-280.87,228.59-259.51,152.84,64.07-3.28-.77-6.55-1.57-9.82-2.4,82.3-321.98,37.56-340.72-134.21-56.22Z"/>
        <path id="NW9" data-name="NW" class="st7" d="M649.83,1058.63c-.39-.1-.77-.21-1.16-.31,87.24-320.68-28.72-434.69-347.88-342.04-.11-.37-.21-.73-.32-1.1,319.37-91.92,435.82,22.57,349.35,343.45Z"/>
        <path id="NW10" data-name="NW" class="st7" d="M644.49,1057.16c-.11-.03-.21-.06-.32-.09,90.24-319.85-30.52-470.05-362.29-450.61,0-.08,0-.16-.01-.24,331.77-19.28,452.65,131.03,362.62,450.94Z"/>
        <path id="NW11" data-name="NW" class="st7" d="M645.55,1057.45c-.13-.04-.25-.07-.38-.11,89.57-320.04-27.43-517.98-350.99-593.84.03-.13.06-.26.09-.38,323.5,76.11,440.59,274.22,351.28,594.33Z"/>
        <path id="NW12" data-name="NW" class="st7" d="M644.17,1057.06c-.09-.03-.19-.05-.28-.08,90.43-319.79-4.53-568.93-284.87-747.4.02-.04.05-.08.07-.12,280.29,178.55,375.32,427.75,285.08,747.6Z"/>
        <path id="NW13" data-name="NW" class="st7" d="M643.15,1056.77s-.04-.01-.06-.02c90.96-319.64,1.31-576.16-268.96-769.56,270.26,193.4,359.93,449.93,269.01,769.58Z"/>
        <path id="NE6" data-name="NE" class="st8" d="M409.07,243.73s.02-.02.03-.03c246.95,222.4,324.94,493.41,233.95,813.05,0,0-.01,0-.02,0,91-319.63,13.01-590.64-233.96-813.01Z"/>
        <path id="NW14" data-name="NW" class="st7" d="M643.39,1056.84c-.05-.01-.1-.03-.15-.04,90.86-319.67,50.71-621.94-120.45-906.81,0,0,.01,0,.02-.01,171.15,284.88,211.34,587.16,120.59,906.86Z"/>
        <path id="NW15" data-name="NW" class="st7" d="M651.03,1058.95c-.4-.11-.8-.21-1.2-.32,86.47-320.89,127.56-647.48,123.29-979.79.41,0,.83-.01,1.24-.01,3.45,332.32-37.66,659.02-123.33,980.13Z"/>
        <path id="LU12" data-name="LU" class="st7" d="M513.05,998.59c-2.11-1.34-4.22-2.69-6.31-4.06,181.86-278.16,226.49-257.65,133.89,61.52-1.96-.57-3.91-1.15-5.85-1.74,96.5-318.02,55.92-336.59-121.73-55.72Z"/>
        <path id="AG9" data-name="AG" class="st10" d="M301.46,718.56c-.12-.39-.23-.78-.34-1.17,318.94-93.39,427.79,18.18,326.56,334.72-.33-.1-.65-.21-.98-.31,101.89-316.33-6.53-427.41-325.24-333.23Z"/>
        <path id="BS7" data-name="BS" class="st10" d="M281.95,607.59c0-.12-.02-.25-.02-.37,331.73-19.95,445.19,127.76,340.35,443.12-.05-.02-.1-.03-.15-.05,104.93-315.33-8.46-462.9-340.18-442.7Z"/>
        <path id="OW10" data-name="OW" class="st7" d="M624.09,1050.94c-.11-.04-.22-.07-.34-.11,103.85-315.69-5.98-511.59-329.48-587.71.03-.12.05-.23.08-.35,323.45,76.34,433.36,272.4,329.74,588.16Z"/>
        <path id="SO10" data-name="SO" class="st8" d="M357.74,311.6c.09-.14.18-.28.26-.42,281.02,177.41,369.5,423.92,265.44,739.55-.08-.03-.16-.05-.24-.08,104.22-315.57,15.73-561.92-265.46-739.05Z"/>
        <path id="JU7" data-name="JU" class="st8" d="M374.05,287.31s.02-.02.02-.03c270.3,193.35,352.89,447.65,247.77,762.92,105.12-315.27,22.52-569.57-247.8-762.89Z"/>
        <path id="OW11" data-name="OW" class="st7" d="M621.89,1050.21s-.02,0-.04-.01c105.12-315.27,34.21-584.11-212.72-806.53h.01c246.93,222.41,317.84,491.26,212.75,806.54Z"/>
        <path id="OW12" data-name="OW" class="st7" d="M623.2,1050.65c-.07-.02-.15-.05-.22-.07,104.37-315.52,70.85-615.64-100.55-900.36.03-.02.07-.04.1-.06,171.34,284.76,204.9,584.92,100.68,900.49Z"/>
        <path id="OW13" data-name="OW" class="st7" d="M631.09,1053.18c-.68-.21-1.35-.42-2.03-.64,100.31-316.83,147.76-641.39,142.36-973.68.56,0,1.13-.02,1.69-.02,4.27,332.31-43.07,657.09-142.02,974.35Z"/>
        <path id="LU13" data-name="LU" class="st7" d="M619.49,1049.41c-11.43-3.88-22.72-8.16-33.84-12.86,129.25-306.17,52.46-372-230.37-197.49-5.31-8.61-10.36-17.38-15.14-26.3,292.93-156.97,386.04-78.09,279.35,236.66Z"/>
        <path id="LU14" data-name="LU" class="st7" d="M483.49,978.37c-.86-.64-1.72-1.27-2.58-1.92,199.08-266.11,133.2-383.42-197.64-351.95-.1-1.01-.19-2.01-.28-3.02,331.03-29.46,397.86,89.5,200.5,356.89Z"/>
        <path id="LU15" data-name="LU" class="st7" d="M492.29,984.72c-1.06-.75-2.11-1.49-3.16-2.25,193.6-270.12,127.7-438.93-197.71-506.42.21-1.01.42-2.02.64-3.03,324.98,69.51,391.73,240.08,200.23,511.7Z"/>
        <path id="LU16" data-name="LU" class="st7" d="M506.74,994.53c-2-1.31-3.99-2.63-5.97-3.97,185.84-275.52,134.02-494.89-155.46-658.13,1.14-2.02,2.29-4.03,3.46-6.03,287.18,167.26,339.84,389.97,157.98,668.13Z"/>
        <path id="JU8" data-name="JU" class="st8" d="M373.85,287.6c.04-.05.08-.11.11-.16,270.38,193.24,302.83,420.46,97.37,681.67-.04-.03-.07-.06-.11-.09,205.54-261.15,173.08-488.29-97.37-681.42Z"/>
        <path id="LU17" data-name="LU" class="st7" d="M471.9,969.55c-.11-.09-.23-.18-.34-.27,205.31-261.33,184.31-502.99-63.01-724.97.06-.07.12-.14.18-.21,247.2,222.12,268.25,463.94,63.17,725.44Z"/>
        <path id="LU18" data-name="LU" class="st7" d="M474.79,971.8c-.46-.35-.91-.71-1.37-1.06,204.07-262.3,218.96-534.93,44.66-817.88.34-.21.67-.41,1.01-.62,173.63,283.37,158.86,556.56-44.29,819.57Z"/>
        <path id="BE8" data-name="BE" class="st8" d="M647.59,96.57c6.14-1.69,12.32-3.25,18.52-4.7,75.61,323.62,40.7,634.83-104.76,933.64-5.45-2.65-10.85-5.4-16.2-8.25,156.25-293.31,190.4-600.2,102.44-920.69Z"/>
        <path id="BS8" data-name="BS" class="st10" d="M286.38,650.14c-.6-4.03-1.14-8.08-1.64-12.12,329.86-40.48,340.83,1.8,32.92,126.84-1.26-3.11-2.5-6.24-3.7-9.38,310.38-118.79,301.19-153.9-27.58-105.34Z"/>
        <path id="BL6" data-name="BL" class="st10" d="M282.95,533.51c.66-7.52,1.5-15.03,2.5-22.51,329.38,44.2,344.32,138.32,44.82,282.35-3.01-6.26-5.89-12.57-8.63-18.95,305.25-131.4,292.35-211.7-38.7-240.89Z"/>
        <path id="SO11" data-name="SO" class="st8" d="M310.84,407.49c4.18-11.55,8.79-22.93,13.82-34.14,303.25,135.97,319.35,300.1,48.3,492.39-6.17-8.7-12.07-17.6-17.67-26.68,282.83-174.51,268.02-318.36-44.44-431.57Z"/>
        <path id="JU9" data-name="JU" class="st8" d="M373.1,288.64c.12-.17.24-.34.37-.51,270.71,192.78,246.07,334.06-73.9,423.84-.05-.18-.1-.35-.15-.53,320.07-89.43,344.64-230.36,73.69-422.8Z"/>
        <path id="AG10" data-name="AG" class="st10" d="M300.17,714.11c-.1-.35-.2-.71-.3-1.06,319.77-90.5,355.67-246.38,107.68-467.62.15-.17.31-.34.46-.51,247.68,221.59,211.73,377.98-107.84,469.19Z"/>
        <path id="FR6" data-name="FR" class="st8" d="M513.06,155.99c.61-.39,1.22-.77,1.83-1.15,176.42,281.64,105.45,470.15-212.9,565.52-.18-.6-.36-1.2-.53-1.79,318.71-94.17,389.24-281.7,211.6-562.57Z"/>
        <path id="BE9" data-name="BE" class="st8" d="M623.37,103.88c8.01-2.64,16.08-5.08,24.21-7.31,87.96,320.48-14.52,559.21-307.45,716.18-3.43-6.4-6.71-12.87-9.86-19.4,299.5-144.03,397.2-373.86,293.1-689.46Z"/>
        <path id="BL7" data-name="BL" class="st10" d="M281.72,603.65c-1.24-23.38-.83-46.82,1.23-70.14,331.05,29.19,336.29,87.6,15.71,175.22-4.17-15.25-7.61-30.69-10.31-46.26,327.45-56.78,325.24-76.39-6.63-58.82Z"/>
        <path id="SO12" data-name="SO" class="st8" d="M341.56,339.21c1.23-2.27,2.48-4.52,3.75-6.77,289.48,163.24,269.02,262.78-61.37,298.63-.24-2.19-.46-4.38-.67-6.57,330.84-31.47,350.27-126.57,58.29-285.29Z"/>
        <path id="JU10" data-name="JU" class="st8" d="M372.17,289.96c.17-.24.33-.47.5-.71,271.24,192.03,241.02,298.56-90.64,319.6,0-.16-.02-.31-.03-.47,331.69-20.72,361.74-126.86,90.17-318.42Z"/>
        <path id="BS9" data-name="BS" class="st10" d="M281.97,607.99c0-.13-.02-.26-.02-.39,331.72-20.2,373.83-141.19,126.33-362.98.09-.1.18-.2.26-.29,247.32,221.99,205.13,343.21-126.57,363.67Z"/>
        <path id="BS10" data-name="BS" class="st10" d="M282.52,615.89c-.04-.45-.07-.9-.1-1.36,331.4-24.82,411.27-179.52,239.61-464.08.09-.05.18-.11.27-.16,171.49,284.67,91.56,439.87-239.78,465.6Z"/>
        <path id="BS11" data-name="BS" class="st10" d="M284.74,638.01c-.28-2.31-.55-4.63-.8-6.95,330.39-35.85,483.81-219.52,460.25-551.02,2.31-.16,4.63-.31,6.94-.44,18.93,331.79-136.53,517.93-466.39,558.41Z"/>
        <path id="SO13" data-name="SO" class="st8" d="M324.66,373.35c3.22-7.18,6.61-14.28,10.16-21.3,296.47,150.16,280.02,203.15-49.36,158.95.89-6.61,1.91-13.21,3.06-19.78,327.34,57.38,339.39,18.09,36.14-117.87Z"/>
        <path id="JU11" data-name="JU" class="st8" d="M371.63,290.73c.18-.26.36-.52.54-.77,271.57,191.56,245.63,249.16-77.81,172.82.03-.12.05-.23.08-.35,323.39,76.57,349.12,19.34,77.18-171.7Z"/>
        <path id="BL8" data-name="BL" class="st10" d="M294.67,461.48s.02-.09.03-.13c323.22,77.3,361.31,4.8,114.28-217.51l.04-.04c247,222.34,208.89,294.9-114.35,217.69Z"/>
        <path id="BL9" data-name="BL" class="st10" d="M293.5,466.5c.06-.27.12-.54.18-.81,323.9,74.4,399.77-30.53,227.61-314.8.13-.08.26-.16.39-.23,171.9,284.42,95.84,389.7-228.18,315.84Z"/>
        <path id="BE10" data-name="BE" class="st8" d="M720.56,82.29c2.71-.32,5.43-.62,8.14-.9,33.88,330.6-112.35,464.52-438.7,401.75.46-2.37.93-4.73,1.42-7.09,325.41,67.5,468.45-63.76,429.14-393.75Z"/>
        <path id="JU12" data-name="JU" class="st8" d="M372.67,289.25c.14-.2.29-.41.43-.61,270.95,192.44,265.92,199.95-15.1,22.54.08-.13.17-.27.25-.4,280.85,177.68,285.66,170.5,14.42-21.53Z"/>
        <path id="SO14" data-name="SO" class="st8" d="M358.49,310.4c.08-.12.15-.24.23-.37,280.53,178.17,296.96,156.47,49.28-65.12.09-.1.18-.21.28-.31,247.5,221.79,230.9,243.72-49.79,65.79Z"/>
        <path id="SO15" data-name="SO" class="st8" d="M351.65,321.52c.38-.64.77-1.28,1.16-1.93,284.48,171.8,339.08,116.52,163.8-165.82.49-.3.98-.61,1.47-.91,174.3,282.96,118.82,339.18-166.43,168.66Z"/>
        <path id="SO16" data-name="SO" class="st8" d="M295.3,458.88c4.25-17.4,9.44-34.55,15.54-51.39,312.46,113.21,383.83,26.94,214.11-258.78,13.09-7.77,26.53-14.95,40.27-21.49,142.87,300.05,52.9,410.61-269.92,331.67Z"/>
        <path id="JU13" data-name="JU" class="st8" d="M366.68,297.9c.7-1.03,1.4-2.06,2.11-3.09,273.82,188.32,285.47,173.3,34.95-45.06.7-.8,1.4-1.6,2.1-2.4,249.12,219.97,236.06,236.82-39.17,50.55Z"/>
        <path id="FR7" data-name="FR" class="st8" d="M511.05,157.27c.67-.43,1.34-.85,2.01-1.28,177.64,280.87,129.55,327.14-144.27,138.82.3-.43.6-.87.9-1.3,273.23,189.19,320.35,143.77,141.37-136.24Z"/>
        <path id="BE11" data-name="BE" class="st8" d="M728.7,81.39c2.59-.27,5.18-.51,7.77-.73,28.71,331.09-96.64,406.66-376.04,226.71,1.37-2.12,2.75-4.23,4.14-6.33,276.64,184.17,398.01,110.95,364.13-219.65Z"/>
        <path id="FR8" data-name="FR" class="st8" d="M496.69,166.8c2.2-1.51,4.4-3.01,6.62-4.48,184.14,276.65,147.93,309.37-108.65,98.15,1.4-1.7,2.82-3.4,4.24-5.08,253.75,214.61,286.34,185.08,97.79-88.58Z"/>
        <path id="BE12" data-name="BE" class="st8" d="M666.11,91.87c5.67-1.32,11.35-2.55,17.06-3.67,64.24,326.07-34.49,386.68-296.2,181.85,2.53-3.23,5.09-6.42,7.69-9.59,256.58,211.22,347.06,155.02,271.44-168.59Z"/>
        <path id="FR9" data-name="FR" class="st8" d="M465,190.55c7.84-6.38,15.87-12.51,24.09-18.4,193.63,270.1,228.9,250.8,105.8-57.9,9.39-3.74,18.89-7.2,28.49-10.37,104.1,315.61,51.31,344.5-158.38,86.66Z"/>
      </g>
      <g id="blockLabels">
        <text class="st2" transform="translate(808.49 50.05)"><tspan x="0" y="0">GE</tspan></text>
        <text class="st2" transform="translate(949.29 79.5)"><tspan x="0" y="0">VD</tspan></text>
        <text class="st2" transform="translate(1096.97 160.39)"><tspan x="0" y="0">VS</tspan></text>
        <text class="st2" transform="translate(1172.26 223.63)"><tspan x="0" y="0">TI</tspan></text>
        <text class="st2" transform="translate(1219.06 283.82)"><tspan x="0" y="0">GR</tspan></text>
        <text class="st2" transform="translate(1248.7 334)"><tspan x="0" y="0">GL</tspan></text>
        <text class="st2" transform="translate(1292.09 448.49)"><tspan x="0" y="0">SG</tspan></text>
        <text class="st2" transform="translate(1308.02 579.22)"><tspan x="0" y="0">AR</tspan></text>
        <text class="st2" transform="translate(1307.13 608.04)"><tspan x="0" y="0">AI</tspan></text>
        <text class="st2" transform="translate(1295.74 690.61)"><tspan x="0" y="0">TG</tspan></text>
        <text class="st2" transform="translate(1263.14 790.44)"><tspan x="0" y="0">SH</tspan></text>
        <text class="st2" transform="translate(1086.48 1012.06)"><tspan x="0" y="0">ZH</tspan></text>
        <text class="st2" transform="translate(821.99 1113.68)"><tspan x="0" y="0">ZG</tspan></text>
        <text class="st2" transform="translate(726.27 1114.04)"><tspan x="0" y="0">SZ</tspan></text>
        <text class="st2" transform="translate(662.39 1104.58)"><tspan x="0" y="0">UR</tspan></text>
        <text class="st2" transform="translate(612.84 1092.13)"><tspan x="0" y="0">OW</tspan></text>
        <text class="st2" transform="translate(520.62 1052.14)"><tspan x="0" y="0">LU</tspan></text>
        <text class="st2" transform="translate(323.06 869.27)"><tspan x="0" y="0">AG</tspan></text>
        <text class="st2" transform="translate(243.39 662.72)"><tspan x="0" y="0">BS</tspan></text>
        <text class="st2" transform="translate(239.29 529.28)"><tspan x="0" y="0">BL</tspan></text>
        <text class="st2" transform="translate(278.1 369.78)"><tspan x="0" y="0">SO</tspan></text>
        <text class="st2" transform="translate(327.94 280.34)"><tspan x="0" y="0">JU</tspan></text>
        <text class="st2" transform="translate(353.1 245.11)"><tspan x="0" y="0">NE</tspan></text>
        <text class="st2" transform="translate(437.42 168.61)"><tspan x="0" y="0">FR</tspan></text>
        <text class="st2" transform="translate(631.16 68.01)"><tspan x="0" y="0">BE</tspan></text>
      </g>
    </g>
  </g>
  <g>
    <line class="st0" x1="101.03" y1="276.64" x2="326.58" y2="276.64"/>
    <path d="M326.48,278.54c1,0,1.9-.8,1.9-1.9,0-1-.8-1.9-1.9-1.9s-1.9.8-1.9,1.9.8,1.9,1.9,1.9Z"/>
  </g>
  <g class="st4">
    <g class="st4">
      <g class="st4">
        <text class="st5" transform="translate(29.27 279.07)"><tspan x="0" y="0">Node Label</tspan></text>
      </g>
    </g>
  </g>
  <g>
    <line class="st0" x1="76.03" y1="342.13" x2="323.15" y2="342.13"/>
    <path d="M323.05,344.03c1,0,1.9-.8,1.9-1.9,0-1-.8-1.9-1.9-1.9s-1.9.8-1.9,1.9.8,1.9,1.9,1.9Z"/>
  </g>
  <g class="st4">
    <g class="st4">
      <g class="st4">
        <text class="st5" transform="translate(29.27 346.47)"><tspan x="0" y="0">Node</tspan></text>
      </g>
    </g>
  </g>
  <g>
    <line class="st0" x1="88.03" y1="12.44" x2="229.23" y2="12.44"/>
    <path d="M229.13,14.34c1,0,1.9-.8,1.9-1.9,0-1-.8-1.9-1.9-1.9s-1.9.8-1.9,1.9.8,1.9,1.9,1.9Z"/>
  </g>
  <g class="st4">
    <g class="st4">
      <g class="st4">
        <text class="st5" transform="translate(28.11 17.39)"><tspan x="0" y="0">Legend</tspan></text>
      </g>
    </g>
  </g>
  <g>
    <line class="st0" x1="1385.03" y1="297.72" x2="1172.28" y2="297.72"/>
    <path d="M1172.38,295.82c-1,0-1.9.8-1.9,1.9s.8,1.9,1.9,1.9,1.9-.8,1.9-1.9-.8-1.9-1.9-1.9Z"/>
  </g>
  <g class="st4">
    <g class="st4">
      <g class="st4">
        <text class="st5" transform="translate(1397.09 300.72)"><tspan x="0" y="0">Arc</tspan></text>
      </g>
    </g>
  </g>
</svg>