<?xml version="1.0" encoding="UTF-8"?>
<svg id="exportSvg" xmlns="http://www.w3.org/2000/svg" version="1.1" xmlns:xlink="http://www.w3.org/1999/xlink" viewBox="0 0 1203.42 337.89">
  <!-- Generator: Adobe Illustrator 30.0.0, SVG Export Plug-In . SVG Version: 2.1.1 Build 123)  -->
  <defs>
    <style>
      .st0 {
        stroke: #000;
        stroke-miterlimit: 10;
        stroke-width: .5px;
      }

      .st0, .st1, .st2, .st3, .st4 {
        fill: none;
      }

      .st1 {
        stroke-linecap: round;
        stroke-linejoin: round;
        stroke-width: 2px;
      }

      .st1, .st5, .st6, .st7 {
        isolation: isolate;
      }

      .st1, .st5, .st7 {
        font-family: NotoSans, 'Noto Sans';
        font-size: 12px;
      }

      .st1, .st8, .st9 {
        stroke: #fff;
      }

      .st5 {
        fill: #757575;
      }

      .st3, .st4 {
        stroke: #757575;
      }

      .st8 {
        fill: #f56a00;
      }

      .st8, .st9 {
        stroke-width: .3px;
      }

      .st4 {
        stroke-linecap: square;
      }

      .st10 {
        clip-path: url(#clippath);
      }

      .st9 {
        fill: #728cd7;
      }
    </style>
    <clipPath id="clippath">
      <rect class="st2" x="226.71" y="0" width="750" height="332.53"/>
    </clipPath>
  </defs>
  <g id="__svelte-dw-svg">
    <g id="container-svg_container-body-svg_datawrapper-G8SYT-k7lwvj-svg">
      <g id="container-svg_container-bodyTop-svg_datawrapper-G8SYT-lmtz6e-svg">
        <g id="container-svg_container-bodyCenter-svg_datawrapper-G8SYT-1a857wv-svg">
          <g id="chart-svg">
            <g class="st10">
              <g id="svg-main-svg">
                <g id="container-svg">
                  <g id="grid-svg_below-svg">
                    <g id="y-grid-lines-svg_grid-y-svg_datawrapper-G8SYT-bgupc2-svg">
                      <line class="st3" x1="253.44" y1="231.41" x2="976.71" y2="231.41"/>
                      <line class="st3" x1="253.44" y1="157.27" x2="976.71" y2="157.27"/>
                      <line class="st3" x1="253.44" y1="83.14" x2="976.71" y2="83.14"/>
                      <line class="st3" x1="253.44" y1="9" x2="976.71" y2="9"/>
                    </g>
                  </g>
                  <g id="columns-svg">
                    <g id="_x30_-9-0-svg">
                      <rect class="st9" x="253.59" y="246.38" width="72.03" height="59.01"/>
                      <path class="st9" d="M253.59,246.38h72.03v59.01h-72.03v-59.01Z"/>
                    </g>
                    <g id="_x31_0-19-1-svg">
                      <rect class="st9" x="325.92" y="231.56" width="72.03" height="73.84"/>
                      <path class="st9" d="M325.92,231.56h72.03v73.84h-72.03v-73.84Z"/>
                    </g>
                    <g id="_x32_0-29-2-svg">
                      <rect class="st9" x="398.24" y="187.07" width="72.03" height="118.32"/>
                      <path class="st9" d="M398.24,187.07h72.03v118.32h-72.03v-118.32Z"/>
                    </g>
                    <g id="_x33_0-39-3-svg">
                      <rect class="st9" x="470.57" y="127.77" width="72.03" height="177.62"/>
                      <path class="st9" d="M470.57,127.77h72.03v177.62h-72.03V127.77Z"/>
                    </g>
                    <g id="_x34_0-49-4-svg">
                      <rect class="st9" x="542.9" y="68.46" width="72.03" height="236.93"/>
                      <path class="st9" d="M542.9,68.46h72.03v236.93h-72.03V68.46Z"/>
                    </g>
                    <g id="_x35_0-59-5-svg">
                      <rect class="st8" x="615.22" y="38.8" width="72.03" height="266.59"/>
                      <path class="st8" d="M615.22,38.8h72.03v266.59h-72.03V38.8Z"/>
                    </g>
                    <g id="_x36_0-69-6-svg">
                      <rect class="st9" x="687.55" y="157.42" width="72.03" height="147.97"/>
                      <path class="st9" d="M687.55,157.42h72.03v147.97h-72.03v-147.97Z"/>
                    </g>
                    <g id="_x37_0-79-7-svg">
                      <rect class="st9" x="759.88" y="231.56" width="72.03" height="73.84"/>
                      <path class="st9" d="M759.88,231.56h72.03v73.84h-72.03v-73.84Z"/>
                    </g>
                    <g id="_x38_0-89-8-svg">
                      <rect class="st9" x="832.21" y="276.04" width="72.03" height="29.35"/>
                      <path class="st9" d="M832.21,276.04h72.03v29.35h-72.03v-29.35Z"/>
                    </g>
                    <g id="_x39_0-95_x2B_-9-svg">
                      <rect class="st9" x="904.53" y="290.86" width="72.03" height="14.53"/>
                      <path class="st9" d="M904.53,290.86h72.03v14.53h-72.03v-14.53Z"/>
                    </g>
                  </g>
                  <g id="grid-svg_above-svg">
                    <g id="y-tick-labels-svg_grid-y-svg_number-axis-svg_datawrapper-G8SYT-1a2scu3-svg">
                      <g class="st6">
                        <text class="st5" transform="translate(241.83 309.54)"><tspan x="0" y="0">0</tspan></text>
                      </g>
                      <g class="st6">
                        <text class="st5" transform="translate(235.22 235.41)"><tspan x="0" y="0">50</tspan></text>
                      </g>
                      <g class="st6">
                        <text class="st5" transform="translate(228.61 161.27)"><tspan x="0" y="0">100</tspan></text>
                      </g>
                      <g class="st6">
                        <text class="st5" transform="translate(228.61 87.14)"><tspan x="0" y="0">150</tspan></text>
                      </g>
                      <g class="st6">
                        <text class="st5" transform="translate(228.61 13)"><tspan x="0" y="0">200</tspan></text>
                      </g>
                    </g>
                    <g id="y-base-lines-svg_grid-y-svg_datawrapper-G8SYT-l0t1pf-svg">
                      <line class="st4" x1="976.71" y1="305.54" x2="253.44" y2="305.54"/>
                    </g>
                    <g id="x-tick-lines-svg_grid-x-svg_datawrapper-G8SYT-cg45gq-svg">
                      <line class="st3" x1="289.6" y1="310.54" x2="289.6" y2="305.54"/>
                      <line class="st3" x1="361.93" y1="310.54" x2="361.93" y2="305.54"/>
                      <line class="st3" x1="434.26" y1="310.54" x2="434.26" y2="305.54"/>
                      <line class="st3" x1="506.58" y1="310.54" x2="506.58" y2="305.54"/>
                      <line class="st3" x1="578.91" y1="310.54" x2="578.91" y2="305.54"/>
                      <line class="st3" x1="651.24" y1="310.54" x2="651.24" y2="305.54"/>
                      <line class="st3" x1="723.57" y1="310.54" x2="723.57" y2="305.54"/>
                      <line class="st3" x1="795.89" y1="310.54" x2="795.89" y2="305.54"/>
                      <line class="st3" x1="868.22" y1="310.54" x2="868.22" y2="305.54"/>
                      <line class="st3" x1="940.55" y1="310.54" x2="940.55" y2="305.54"/>
                    </g>
                  </g>
                </g>
              </g>
            </g>
            <g id="_x34_0-svg">
              <g class="st6">
                <text class="st7" transform="translate(282.97 236.22)"><tspan x="0" y="0">40</tspan></text>
                <text class="st1" transform="translate(282.97 236.22)"><tspan x="0" y="0">40</tspan></text>
              </g>
              <g class="st6">
                <text class="st7" transform="translate(282.97 236.22)"><tspan x="0" y="0">40</tspan></text>
              </g>
            </g>
            <g id="_x35_0-svg">
              <g class="st6">
                <text class="st7" transform="translate(355.3 221.39)"><tspan x="0" y="0">50</tspan></text>
                <text class="st1" transform="translate(355.3 221.39)"><tspan x="0" y="0">50</tspan></text>
              </g>
              <g class="st6">
                <text class="st7" transform="translate(355.3 221.39)"><tspan x="0" y="0">50</tspan></text>
              </g>
            </g>
            <g id="_x38_0-svg">
              <g class="st6">
                <text class="st7" transform="translate(427.62 176.92)"><tspan x="0" y="0">80</tspan></text>
                <text class="st1" transform="translate(427.62 176.92)"><tspan x="0" y="0">80</tspan></text>
              </g>
              <g class="st6">
                <text class="st7" transform="translate(427.62 176.92)"><tspan x="0" y="0">80</tspan></text>
              </g>
            </g>
            <g id="_x31_20-svg">
              <g class="st6">
                <text class="st7" transform="translate(496.66 117.61)"><tspan x="0" y="0">120</tspan></text>
                <text class="st1" transform="translate(496.66 117.61)"><tspan x="0" y="0">120</tspan></text>
              </g>
              <g class="st6">
                <text class="st7" transform="translate(496.66 117.61)"><tspan x="0" y="0">120</tspan></text>
              </g>
            </g>
            <g id="_x31_60-svg">
              <g class="st6">
                <text class="st7" transform="translate(568.98 58.3)"><tspan x="0" y="0">160</tspan></text>
                <text class="st1" transform="translate(568.98 58.3)"><tspan x="0" y="0">160</tspan></text>
              </g>
              <g class="st6">
                <text class="st7" transform="translate(568.98 58.3)"><tspan x="0" y="0">160</tspan></text>
              </g>
            </g>
            <g id="_x31_80-svg">
              <g class="st6">
                <text class="st7" transform="translate(641.31 28.64)"><tspan x="0" y="0">180</tspan></text>
                <text class="st1" transform="translate(641.31 28.64)"><tspan x="0" y="0">180</tspan></text>
              </g>
              <g class="st6">
                <text class="st7" transform="translate(641.31 28.64)"><tspan x="0" y="0">180</tspan></text>
              </g>
            </g>
            <g id="_x31_00-svg">
              <g class="st6">
                <text class="st7" transform="translate(713.64 147.27)"><tspan x="0" y="0">100</tspan></text>
                <text class="st1" transform="translate(713.64 147.27)"><tspan x="0" y="0">100</tspan></text>
              </g>
              <g class="st6">
                <text class="st7" transform="translate(713.64 147.27)"><tspan x="0" y="0">100</tspan></text>
              </g>
            </g>
            <g id="_x35_0-svg1" data-name="_x35_0-svg">
              <g class="st6">
                <text class="st7" transform="translate(789.26 221.39)"><tspan x="0" y="0">50</tspan></text>
                <text class="st1" transform="translate(789.26 221.39)"><tspan x="0" y="0">50</tspan></text>
              </g>
              <g class="st6">
                <text class="st7" transform="translate(789.26 221.39)"><tspan x="0" y="0">50</tspan></text>
              </g>
            </g>
            <g id="_x32_0-svg">
              <g class="st6">
                <text class="st7" transform="translate(861.59 265.88)"><tspan x="0" y="0">20</tspan></text>
                <text class="st1" transform="translate(861.59 265.88)"><tspan x="0" y="0">20</tspan></text>
              </g>
              <g class="st6">
                <text class="st7" transform="translate(861.59 265.88)"><tspan x="0" y="0">20</tspan></text>
              </g>
            </g>
            <g id="_x31_0-svg">
              <g class="st6">
                <text class="st7" transform="translate(933.92 280.7)"><tspan x="0" y="0">10</tspan></text>
                <text class="st1" transform="translate(933.92 280.7)"><tspan x="0" y="0">10</tspan></text>
              </g>
              <g class="st6">
                <text class="st7" transform="translate(933.92 280.7)"><tspan x="0" y="0">10</tspan></text>
              </g>
            </g>
            <g class="st6">
              <text class="st5" transform="translate(280.94 327.53)"><tspan x="0" y="0">0-9</tspan></text>
            </g>
            <g class="st6">
              <text class="st5" transform="translate(346.65 327.53)"><tspan x="0" y="0">10-19</tspan></text>
            </g>
            <g class="st6">
              <text class="st5" transform="translate(418.98 327.53)"><tspan x="0" y="0">20-29</tspan></text>
            </g>
            <g class="st6">
              <text class="st5" transform="translate(491.3 327.53)"><tspan x="0" y="0">30-39</tspan></text>
            </g>
            <g class="st6">
              <text class="st5" transform="translate(563.63 327.53)"><tspan x="0" y="0">40-49</tspan></text>
            </g>
            <g class="st6">
              <text class="st5" transform="translate(635.96 327.53)"><tspan x="0" y="0">50-59</tspan></text>
            </g>
            <g class="st6">
              <text class="st5" transform="translate(708.29 327.53)"><tspan x="0" y="0">60-69</tspan></text>
            </g>
            <g class="st6">
              <text class="st5" transform="translate(780.62 327.53)"><tspan x="0" y="0">70-79</tspan></text>
            </g>
            <g class="st6">
              <text class="st5" transform="translate(852.94 327.53)"><tspan x="0" y="0">80-89</tspan></text>
            </g>
            <g class="st6">
              <text class="st5" transform="translate(921.98 327.53)"><tspan x="0" y="0">90-95+</tspan></text>
            </g>
          </g>
        </g>
      </g>
    </g>
  </g>
  <g>
    <line class="st0" x1="102.71" y1="8.93" x2="224.61" y2="8.93"/>
    <path d="M224.51,10.83c1,0,1.9-.8,1.9-1.9,0-1-.8-1.9-1.9-1.9s-1.9.8-1.9,1.9.8,1.9,1.9,1.9Z"/>
  </g>
  <g class="st6">
    <g class="st6">
      <g class="st6">
        <g class="st6">
          <text class="st7" transform="translate(33.78 12.47)"><tspan x="0" y="0">Axis Label</tspan></text>
        </g>
      </g>
    </g>
  </g>
  <g>
    <line class="st0" x1="69.55" y1="264.88" x2="261.33" y2="264.88"/>
    <path d="M261.23,266.78c1,0,1.9-.8,1.9-1.9,0-1-.8-1.9-1.9-1.9s-1.9.8-1.9,1.9.8,1.9,1.9,1.9Z"/>
  </g>
  <g class="st6">
    <g class="st6">
      <g class="st6">
        <g class="st6">
          <text class="st7" transform="translate(36.35 269)"><tspan x="0" y="0">Bar</tspan></text>
        </g>
      </g>
    </g>
  </g>
  <g>
    <line class="st0" x1="69.55" y1="323.72" x2="279.71" y2="323.72"/>
    <path d="M279.61,325.62c1,0,1.9-.8,1.9-1.9,0-1-.8-1.9-1.9-1.9s-1.9.8-1.9,1.9.8,1.9,1.9,1.9Z"/>
  </g>
  <g class="st6">
    <g class="st6">
      <g class="st6">
        <g class="st6">
          <text class="st7" transform="translate(36.23 327.84)"><tspan x="0" y="0">Tick</tspan></text>
        </g>
      </g>
    </g>
  </g>
  <g>
    <line class="st0" x1="74.76" y1="113.71" x2="493.22" y2="113.71"/>
    <path d="M493.12,115.61c1,0,1.9-.8,1.9-1.9,0-1-.8-1.9-1.9-1.9s-1.9.8-1.9,1.9.8,1.9,1.9,1.9Z"/>
  </g>
  <g class="st6">
    <g class="st6">
      <g class="st6">
        <g class="st6">
          <text class="st7" transform="translate(35.06 116.61)"><tspan x="0" y="0">Value</tspan></text>
        </g>
      </g>
    </g>
  </g>
  <g>
    <line class="st0" x1="1067.9" y1="156.57" x2="983.3" y2="156.57"/>
    <path d="M983.4,154.67c-1,0-1.9.8-1.9,1.9s.8,1.9,1.9,1.9,1.9-.8,1.9-1.9-.8-1.9-1.9-1.9Z"/>
  </g>
  <g class="st6">
    <g class="st6">
      <g class="st6">
        <g class="st6">
          <text class="st7" transform="translate(1083.2 160.47)"><tspan x="0" y="0">Small Grid Line</tspan></text>
        </g>
      </g>
    </g>
  </g>
</svg>