<?xml version="1.0" encoding="UTF-8"?>
<svg id="uea28633f903b4dd590c25c6a7b38220d" xmlns="http://www.w3.org/2000/svg" version="1.1" xmlns:xlinkg="http://www.w3.org/1999/xlink" viewBox="0 0 1559.06 660">
  <!-- Generator: Adobe Illustrator 30.0.0, SVG Export Plug-In . SVG Version: 2.1.1 Build 123)  -->
  <defs>
    <style>
      .st0 {
        fill: #fccba6;
      }

      .st1 {
        stroke-miterlimit: 10;
        stroke-width: .5px;
      }

      .st1, .st2, .st3 {
        fill: none;
        stroke: #000;
      }

      .st4 {
        fill: #f56a00;
      }

      .st5 {
        font-size: 9px;
      }

      .st5, .st6, .st7, .st8, .st9, .st10, .st11 {
        isolation: isolate;
      }

      .st5, .st9, .st11 {
        font-family: ArialMT, Arial;
      }

      .st12 {
        fill: #f99f5a;
      }

      .st3, .st6 {
        display: none;
      }

      .st13 {
        fill: #993900;
      }

      .st14 {
        fill: #cc5000;
      }

      .st6, .st10 {
        font-family: HelveticaNeueLTCom-Roman, 'Helvetica Neue LT Com';
      }

      .st6, .st10, .st11 {
        font-size: 10px;
      }

      .st8 {
        font-family: NotoSans, 'Noto Sans';
      }

      .st8, .st9 {
        font-size: 12px;
      }

      .st15 {
        fill: #662400;
      }
    </style>
  </defs>
  <link xmlns="http://www.w3.org/1999/xhtml" rel="stylesheet" type="text/css" href="https://fonts.googleapis.com/css?family=Roboto:300,500"/>
  <link xmlns="http://www.w3.org/1999/xhtml" rel="stylesheet" type="text/css" href="https://viz.bfs.admin.ch/libs/viz-bfs/dynvis/dynvis-v0.9/dynvis.css"/>
  <link xmlns="http://www.w3.org/1999/xhtml" rel="stylesheet" type="text/css" href="https://viz.bfs.admin.ch/css/bund/vendors.css"/>
  <link xmlns="http://www.w3.org/1999/xhtml" rel="stylesheet" type="text/css" href="https://viz.bfs.admin.ch/css/bund/custom-icons.css"/>
  <link xmlns="http://www.w3.org/1999/xhtml" rel="stylesheet" type="text/css" href="https://viz.bfs.admin.ch/css/bund/fabricator.css"/>
  <g id="ua7481c58ee814b25b4b40e1492d6e5e7">
    <g>
      <g>
        <g>
          <rect class="st0" x="187.53" y="72.39" width="220" height="27"/>
          <rect class="st12" x="187.53" y="100.39" width="220" height="79"/>
          <rect class="st4" x="187.53" y="180.39" width="220" height="151"/>
          <rect class="st14" x="187.53" y="332.39" width="220" height="160"/>
          <rect class="st13" x="187.53" y="493.39" width="220" height="81"/>
          <rect class="st15" x="187.53" y="575.39" width="220" height="50"/>
          <rect class="st0" x="408.53" y="72.39" width="370" height="68"/>
          <rect class="st12" x="408.53" y="141.39" width="370" height="166"/>
          <rect class="st4" x="408.53" y="308.39" width="370" height="183"/>
          <rect class="st14" x="408.53" y="492.39" width="370" height="89"/>
          <rect class="st13" x="408.53" y="582.39" width="370" height="29"/>
          <rect class="st15" x="408.53" y="612.39" width="370" height="13"/>
          <rect class="st0" x="779.53" y="72.39" width="263" height="5"/>
          <rect class="st12" x="779.53" y="78.39" width="263" height="41"/>
          <rect class="st4" x="779.53" y="120.39" width="263" height="160"/>
          <rect class="st14" x="779.53" y="281.39" width="263" height="195"/>
          <rect class="st13" x="779.53" y="477.39" width="263" height="96"/>
          <rect class="st15" x="779.53" y="574.39" width="263" height="51"/>
          <rect class="st0" x="1043.53" y="72.39" width="196" height="6"/>
          <rect class="st12" x="1043.53" y="79.39" width="196" height="35"/>
          <rect class="st4" x="1043.53" y="115.39" width="196" height="176"/>
          <rect class="st14" x="1043.53" y="292.39" width="196" height="201"/>
          <rect class="st13" x="1043.53" y="494.39" width="196" height="83"/>
          <rect class="st15" x="1043.53" y="578.39" width="196" height="47"/>
          <rect class="st0" x="1240.53" y="72.39" width="151" height="1"/>
          <rect class="st12" x="1240.53" y="74.39" width="151" height="7"/>
          <rect class="st4" x="1240.53" y="82.39" width="151" height="84"/>
          <rect class="st14" x="1240.53" y="167.39" width="151" height="213"/>
          <rect class="st13" x="1240.53" y="381.39" width="151" height="141"/>
          <rect class="st15" x="1240.53" y="523.39" width="151" height="102"/>
        </g>
        <g>
          <g class="st7">
            <text class="st5" transform="translate(288.02 52.81)"><tspan x="0" y="0">Total</tspan></text>
            <text class="st5" transform="translate(272.27 65.41)"><tspan x="0" y="0">47 m² / pers.</tspan></text>
          </g>
          <g class="st7">
            <text class="st5" transform="translate(543.99 52.81)"><tspan x="0" y="0">Single person household</tspan></text>
            <text class="st5" transform="translate(568.27 65.41)"><tspan x="0" y="0">79 m² / pers.</tspan></text>
          </g>
          <g class="st7">
            <text class="st5" transform="translate(872.01 52.81)"><tspan x="0" y="0">Couple without kids</tspan></text>
            <text class="st5" transform="translate(885.77 65.41)"><tspan x="0" y="0">56 m² / pers.</tspan></text>
          </g>
          <g class="st7">
            <text class="st5" transform="translate(1092.99 52.81)"><tspan x="0" y="0">Single parent household</tspan></text>
            <text class="st5" transform="translate(1116.27 65.41)"><tspan x="0" y="0">42 m² / pers.</tspan></text>
          </g>
          <g class="st7">
            <text class="st5" transform="translate(1283.26 52.81)"><tspan x="0" y="0">Couple with kids</tspan></text>
            <text class="st5" transform="translate(1290.77 65.41)"><tspan x="0" y="0">32 m² / pers.</tspan></text>
          </g>
        </g>
      </g>
      <g>
        <path class="st3" d="M187.53,634.03v-6h1204v6"/>
        <g>
          <line class="st3" x1="187.53" y1="628.03" x2="187.53" y2="634.03"/>
          <text class="st6" transform="translate(184.75 644.13)"><tspan x="0" y="0">0</tspan></text>
        </g>
        <g>
          <line class="st3" x1="281.78" y1="628.03" x2="281.78" y2="634.03"/>
          <text class="st6" transform="translate(276.22 644.13)"><tspan x="0" y="0">20</tspan></text>
        </g>
        <g>
          <line class="st3" x1="376.04" y1="628.03" x2="376.04" y2="634.03"/>
          <text class="st6" transform="translate(370.48 644.13)"><tspan x="0" y="0">40</tspan></text>
        </g>
        <g>
          <line class="st3" x1="470.29" y1="628.03" x2="470.29" y2="634.03"/>
          <text class="st6" transform="translate(464.73 644.13)"><tspan x="0" y="0">60</tspan></text>
        </g>
        <g>
          <line class="st3" x1="564.54" y1="628.03" x2="564.54" y2="634.03"/>
          <text class="st6" transform="translate(558.98 644.13)"><tspan x="0" y="0">80</tspan></text>
        </g>
        <g>
          <line class="st3" x1="658.8" y1="628.03" x2="658.8" y2="634.03"/>
          <text class="st6" transform="translate(650.46 644.13)"><tspan x="0" y="0">100</tspan></text>
        </g>
        <g>
          <line class="st3" x1="753.05" y1="628.03" x2="753.05" y2="634.03"/>
          <text class="st6" transform="translate(744.71 644.13)"><tspan x="0" y="0">120</tspan></text>
        </g>
        <g>
          <line class="st3" x1="847.31" y1="628.03" x2="847.31" y2="634.03"/>
          <text class="st6" transform="translate(838.97 644.13)"><tspan x="0" y="0">140</tspan></text>
        </g>
        <g>
          <line class="st3" x1="941.56" y1="628.03" x2="941.56" y2="634.03"/>
          <text class="st6" transform="translate(933.22 644.13)"><tspan x="0" y="0">160</tspan></text>
        </g>
        <g>
          <line class="st3" x1="1035.82" y1="628.03" x2="1035.82" y2="634.03"/>
          <text class="st6" transform="translate(1027.48 644.13)"><tspan x="0" y="0">180</tspan></text>
        </g>
        <g>
          <line class="st3" x1="1130.07" y1="628.03" x2="1130.07" y2="634.03"/>
          <text class="st6" transform="translate(1121.73 644.13)"><tspan x="0" y="0">200</tspan></text>
        </g>
        <g>
          <line class="st3" x1="1224.32" y1="628.03" x2="1224.32" y2="634.03"/>
          <text class="st6" transform="translate(1215.98 644.13)"><tspan x="0" y="0">220</tspan></text>
        </g>
        <g>
          <line class="st3" x1="1318.58" y1="628.03" x2="1318.58" y2="634.03"/>
          <text class="st6" transform="translate(1310.24 644.13)"><tspan x="0" y="0">240</tspan></text>
        </g>
      </g>
      <g>
        <path class="st2" d="M178.53,72.39h6v552.63h-6"/>
        <g>
          <line class="st2" x1="184.53" y1="72.39" x2="178.53" y2="72.39"/>
          <text class="st10" transform="translate(148.85 75.59)"><tspan x="0" y="0">100%</tspan></text>
        </g>
        <g>
          <line class="st2" x1="184.53" y1="127.66" x2="178.53" y2="127.66"/>
          <text class="st10" transform="translate(154.41 130.86)"><tspan x="0" y="0">90%</tspan></text>
        </g>
        <g>
          <line class="st2" x1="184.53" y1="182.92" x2="178.53" y2="182.92"/>
          <text class="st10" transform="translate(154.41 186.12)"><tspan x="0" y="0">80%</tspan></text>
        </g>
        <g>
          <line class="st2" x1="184.53" y1="238.18" x2="178.53" y2="238.18"/>
          <text class="st10" transform="translate(154.41 241.38)"><tspan x="0" y="0">70%</tspan></text>
        </g>
        <g>
          <line class="st2" x1="184.53" y1="293.45" x2="178.53" y2="293.45"/>
          <text class="st10" transform="translate(154.41 296.65)"><tspan x="0" y="0">60%</tspan></text>
        </g>
        <g>
          <line class="st2" x1="184.53" y1="348.71" x2="178.53" y2="348.71"/>
          <text class="st10" transform="translate(154.41 351.91)"><tspan x="0" y="0">50%</tspan></text>
        </g>
        <g>
          <line class="st2" x1="184.53" y1="403.97" x2="178.53" y2="403.97"/>
          <text class="st10" transform="translate(154.41 407.17)"><tspan x="0" y="0">40%</tspan></text>
        </g>
        <g>
          <line class="st2" x1="184.53" y1="459.24" x2="178.53" y2="459.24"/>
          <text class="st10" transform="translate(154.41 462.44)"><tspan x="0" y="0">30%</tspan></text>
        </g>
        <g>
          <line class="st2" x1="184.53" y1="514.5" x2="178.53" y2="514.5"/>
          <text class="st10" transform="translate(154.41 517.7)"><tspan x="0" y="0">20%</tspan></text>
        </g>
        <g>
          <line class="st2" x1="184.53" y1="569.76" x2="178.53" y2="569.76"/>
          <text class="st10" transform="translate(154.41 572.96)"><tspan x="0" y="0">10%</tspan></text>
        </g>
        <g>
          <line class="st2" x1="184.53" y1="625.03" x2="178.53" y2="625.03"/>
          <text class="st10" transform="translate(159.97 628.23)"><tspan x="0" y="0">0%</tspan></text>
        </g>
      </g>
      <text class="st11" transform="translate(736.73 652.03)"><tspan x="0" y="0">Room area, m² / person</tspan></text>
      <g>
        <g>
          <rect class="st0" x="517.49" y="9.44" width="12" height="12"/>
          <g class="st7">
            <text class="st9" transform="translate(537.49 19.44)"><tspan x="0" y="0">1 room</tspan></text>
          </g>
        </g>
        <g>
          <rect class="st12" x="594.64" y="9.44" width="12" height="12"/>
          <g class="st7">
            <text class="st9" transform="translate(614.64 19.44)"><tspan x="0" y="0">2 rooms</tspan></text>
          </g>
        </g>
        <g>
          <rect class="st4" x="677.54" y="9.44" width="12" height="12"/>
          <g class="st7">
            <text class="st9" transform="translate(697.54 19.44)"><tspan x="0" y="0">3 rooms</tspan></text>
          </g>
        </g>
        <g>
          <rect class="st14" x="760.44" y="9.44" width="12" height="12"/>
          <g class="st7">
            <text class="st9" transform="translate(780.44 19.44)"><tspan x="0" y="0">4 rooms</tspan></text>
          </g>
        </g>
        <g>
          <rect class="st13" x="843.34" y="9.44" width="12" height="12"/>
          <g class="st7">
            <text class="st9" transform="translate(863.34 19.44)"><tspan x="0" y="0">5 rooms</tspan></text>
          </g>
        </g>
        <g>
          <rect class="st15" x="926.24" y="9.44" width="12" height="12"/>
          <g class="st7">
            <text class="st9" transform="translate(946.24 19.44)"><tspan x="0" y="0">6 or more rooms</tspan></text>
          </g>
        </g>
      </g>
    </g>
  </g>
  <g>
    <line class="st1" x1="70.53" y1="238.18" x2="147.92" y2="238.18"/>
    <path d="M147.82,240.08c1,0,1.9-.8,1.9-1.9,0-1-.8-1.9-1.9-1.9s-1.9.8-1.9,1.9.8,1.9,1.9,1.9Z"/>
  </g>
  <g class="st7">
    <g class="st7">
      <g class="st7">
        <g class="st7">
          <text class="st8" transform="translate(32.11 240.9)"><tspan x="0" y="0">Tick</tspan></text>
        </g>
      </g>
    </g>
  </g>
  <g>
    <line class="st1" x1="120.53" y1="54.71" x2="274.37" y2="54.71"/>
    <path d="M274.27,56.61c1,0,1.9-.8,1.9-1.9,0-1-.8-1.9-1.9-1.9s-1.9.8-1.9,1.9.8,1.9,1.9,1.9Z"/>
  </g>
  <g class="st7">
    <g class="st7">
      <g class="st7">
        <g class="st7">
          <text class="st8" transform="translate(30.89 58.83)"><tspan x="0" y="0">Variable label</tspan></text>
        </g>
      </g>
    </g>
  </g>
  <g>
    <line class="st1" x1="65" y1="151" x2="324.31" y2="151"/>
    <path d="M324.21,152.9c1,0,1.9-.8,1.9-1.9,0-1-.8-1.9-1.9-1.9s-1.9.8-1.9,1.9.8,1.9,1.9,1.9Z"/>
  </g>
  <g class="st7">
    <g class="st7">
      <g class="st7">
        <g class="st7">
          <text class="st8" transform="translate(30.94 153.59)"><tspan x="0" y="0">Box</tspan></text>
        </g>
      </g>
    </g>
  </g>
  <g>
    <line class="st1" x1="95.53" y1="15.44" x2="498.12" y2="15.44"/>
    <path d="M498.02,17.34c1,0,1.9-.8,1.9-1.9,0-1-.8-1.9-1.9-1.9s-1.9.8-1.9,1.9.8,1.9,1.9,1.9Z"/>
  </g>
  <g class="st7">
    <g class="st7">
      <g class="st7">
        <g class="st7">
          <text class="st8" transform="translate(32.23 21.44)"><tspan x="0" y="0">Legend</tspan></text>
        </g>
      </g>
    </g>
  </g>
</svg>