<?xml version="1.0" encoding="UTF-8"?>
<svg id="exportSvg" xmlns="http://www.w3.org/2000/svg" version="1.1" viewBox="0 0 1203.42 365.89">
  <!-- Generator: Adobe Illustrator 30.0.0, SVG Export Plug-In . SVG Version: 2.1.1 Build 123)  -->
  <defs>
    <style>
      .st0 {
        fill: #4f25d2;
      }

      .st0, .st1, .st2, .st3, .st4, .st5, .st6 {
        isolation: isolate;
      }

      .st0, .st1, .st2, .st4, .st5, .st6 {
        font-family: NotoSans, 'Noto Sans';
        font-size: 12px;
      }

      .st7 {
        stroke: #000;
        stroke-miterlimit: 10;
        stroke-width: .5px;
      }

      .st7, .st8, .st2, .st9, .st10, .st11, .st12, .st13, .st14, .st15 {
        fill: none;
      }

      .st8, .st16, .st2, .st9, .st11, .st17, .st12, .st18, .st13, .st15 {
        stroke-width: 2px;
      }

      .st8, .st9, .st11, .st12, .st13, .st15 {
        stroke-linecap: round;
      }

      .st8, .st9, .st18 {
        stroke: #4f25d2;
      }

      .st8, .st11, .st13 {
        stroke-linejoin: round;
      }

      .st16, .st17, .st18 {
        fill: #fff;
        stroke-miterlimit: 16;
      }

      .st16, .st12, .st13 {
        stroke: #f56a00;
      }

      .st1 {
        fill: #757575;
      }

      .st2 {
        stroke: #fff;
      }

      .st10, .st14 {
        stroke: #757575;
      }

      .st5 {
        fill: #5a76bf;
      }

      .st11, .st17, .st15 {
        stroke: #728cd7;
      }

      .st6 {
        fill: #ce4900;
      }

      .st14 {
        stroke-linecap: square;
      }
    </style>
  </defs>
  <g id="__svelte-dw-svg">
    <g id="container-svg_container-body-svg_datawrapper-SLoGU-k7lwvj-svg">
      <g id="container-svg_container-bodyTop-svg_datawrapper-SLoGU-lmtz6e-svg">
        <g id="container-svg_container-bodyCenter-svg_datawrapper-SLoGU-1a857wv-svg">
          <g id="chart-svg">
            <g id="svg-main-svg">
              <g id="group-svg">
                <g id="y-grid-svg">
                  <g id="y-grid-lines-svg_grid-y-svg_datawrapper-SLoGU-1e0z195-svg">
                    <line class="st10" x1="256.44" y1="42.36" x2="952.81" y2="42.36"/>
                    <line class="st10" x1="256.44" y1="101.42" x2="952.81" y2="101.42"/>
                    <line class="st10" x1="256.44" y1="160.48" x2="952.81" y2="160.48"/>
                    <line class="st10" x1="256.44" y1="219.55" x2="952.81" y2="219.55"/>
                    <line class="st10" x1="256.44" y1="278.61" x2="952.81" y2="278.61"/>
                  </g>
                </g>
                <g id="lines-svg">
                  <g id="Variable2-svg">
                    <g id="Variable2-svg1" data-name="Variable2-svg">
                      <path id="Variable2" class="st13" d="M266.44,277.55l35.6-8.7,35.6-9.96,35.6-1.24,35.6,20.32,35.6-4.37,35.6-8.8,35.6,15.45,35.6,2.52,35.6,6.16,35.6-3.06,35.6-10.06,35.6,11.37,35.6,7.96,35.6,2.92,35.6,1.28,35.6-3.78,35.6,1.74,35.6-12.71,35.6-3.17"/>
                    </g>
                    <g id="Variable2-svg2" data-name="Variable2-svg">
                      <path class="st16" d="M946.81,281.41c0,2.21-1.79,4-4,4s-4-1.79-4-4,1.79-4,4-4,4,1.79,4,4"/>
                    </g>
                  </g>
                  <g id="Variable1-svg">
                    <g id="Variable1-svg1" data-name="Variable1-svg">
                      <path id="Variable1" class="st11" d="M266.44,226.9l35.6-6.23,35.6-1.14,35.6-3.78,35.6,21.36,35.6-2.74,35.6-4.33,35.6,16.68,35.6,5.35,35.6,9.36,35.6-.69,35.6-.15,35.6,7.23,35.6,4.14,35.6,3.05,35.6,1.14,35.6.25,35.6,4.37,35.6-25.35,35.6,3.55"/>
                    </g>
                    <g id="Variable1-svg2" data-name="Variable1-svg">
                      <path class="st17" d="M946.81,258.96c0,2.21-1.79,4-4,4s-4-1.79-4-4,1.79-4,4-4,4,1.79,4,4"/>
                    </g>
                  </g>
                  <g id="Variable3-svg">
                    <g id="Variable3-svg1" data-name="Variable3-svg">
                      <path id="Variable3" class="st8" d="M266.44,53.68l35.6.77,35.6,27.49,35.6-14.28,35.6,20.31,35.6,3.44,35.6-.78,35.6,17.66,35.6,16.42,35.6,25.82,35.6,11.18,35.6,40.69,35.6-10.72,35.6-6.09,35.6,4.54,35.6-2.27,35.6,16.57,35.6,15.37,35.6-66.75,35.6,29.88"/>
                    </g>
                    <g id="Variable3-svg2" data-name="Variable3-svg">
                      <path class="st18" d="M946.81,182.91c0,2.21-1.79,4-4,4s-4-1.79-4-4,1.79-4,4-4,4,1.79,4,4"/>
                    </g>
                  </g>
                </g>
                <g id="x-grid-svg1" data-name="x-grid-svg">
                  <g id="x-tick-labels-svg_number-axis-svg_grid-x-svg_datawrapper-SLoGU-1hw4nop-svg_svelte-qac4x9-svg">
                    <g class="st3">
                      <text class="st1" transform="translate(288.82 359.67)"><tspan x="0" y="0">2004</tspan></text>
                    </g>
                    <g class="st3">
                      <text class="st1" transform="translate(360.02 359.67)"><tspan x="0" y="0">2006</tspan></text>
                    </g>
                    <g class="st3">
                      <text class="st1" transform="translate(431.21 359.67)"><tspan x="0" y="0">2008</tspan></text>
                    </g>
                    <g class="st3">
                      <text class="st1" transform="translate(502.41 359.67)"><tspan x="0" y="0">2010</tspan></text>
                    </g>
                    <g class="st3">
                      <text class="st1" transform="translate(573.61 359.67)"><tspan x="0" y="0">2012</tspan></text>
                    </g>
                    <g class="st3">
                      <text class="st1" transform="translate(644.8 359.67)"><tspan x="0" y="0">2014</tspan></text>
                    </g>
                    <g class="st3">
                      <text class="st1" transform="translate(716 359.67)"><tspan x="0" y="0">2016</tspan></text>
                    </g>
                    <g class="st3">
                      <text class="st1" transform="translate(787.2 359.67)"><tspan x="0" y="0">2018</tspan></text>
                    </g>
                    <g class="st3">
                      <text class="st1" transform="translate(858.39 359.67)"><tspan x="0" y="0">2020</tspan></text>
                    </g>
                    <g class="st3">
                      <text class="st1" transform="translate(929.59 359.67)"><tspan x="0" y="0">2022</tspan></text>
                    </g>
                  </g>
                  <g id="x-tick-lines-svg_grid-x-svg_datawrapper-SLoGU-jo7dkp-svg">
                    <line class="st10" x1="302.04" y1="342.67" x2="302.04" y2="337.67"/>
                    <line class="st10" x1="373.23" y1="342.67" x2="373.23" y2="337.67"/>
                    <line class="st10" x1="444.43" y1="342.67" x2="444.43" y2="337.67"/>
                    <line class="st10" x1="515.63" y1="342.67" x2="515.63" y2="337.67"/>
                    <line class="st10" x1="586.83" y1="342.67" x2="586.83" y2="337.67"/>
                    <line class="st10" x1="658.02" y1="342.67" x2="658.02" y2="337.67"/>
                    <line class="st10" x1="729.22" y1="342.67" x2="729.22" y2="337.67"/>
                    <line class="st10" x1="800.42" y1="342.67" x2="800.42" y2="337.67"/>
                    <line class="st10" x1="871.61" y1="342.67" x2="871.61" y2="337.67"/>
                    <line class="st10" x1="942.81" y1="342.67" x2="942.81" y2="337.67"/>
                  </g>
                </g>
                <g id="y-grid-svg1" data-name="y-grid-svg">
                  <g id="y-tick-labels-svg_number-axis-svg_grid-y-svg_datawrapper-SLoGU-15wn2db-svg">
                    <g class="st3">
                      <text class="st1" transform="translate(234.9 341.67)"><tspan x="0" y="0">0%</tspan></text>
                    </g>
                    <g class="st3">
                      <text class="st1" transform="translate(234.9 282.61)"><tspan x="0" y="0">5%</tspan></text>
                    </g>
                    <g class="st3">
                      <text class="st1" transform="translate(228.29 223.55)"><tspan x="0" y="0">10%</tspan></text>
                    </g>
                    <g class="st3">
                      <text class="st1" transform="translate(228.29 164.48)"><tspan x="0" y="0">15%</tspan></text>
                    </g>
                    <g class="st3">
                      <text class="st1" transform="translate(228.29 105.42)"><tspan x="0" y="0">20%</tspan></text>
                    </g>
                    <g class="st3">
                      <text class="st1" transform="translate(228.29 46.36)"><tspan x="0" y="0">25%</tspan></text>
                    </g>
                  </g>
                  <g id="y-base-lines-svg_grid-y-svg_datawrapper-SLoGU-c64oop-svg">
                    <line class="st14" x1="952.81" y1="337.67" x2="256.44" y2="337.67"/>
                  </g>
                </g>
                <g id="inner-value-labels-svg">
                  <g id="Variable2-svg3" data-name="Variable2-svg">
                    <g id="_x34__x2C_8-svg">
                      <g class="st3">
                        <text class="st4" transform="translate(952.81 285.01)"><tspan x="0" y="0">4,8</tspan></text>
                        <text class="st2" transform="translate(952.81 285.01)"><tspan x="0" y="0">4,8</tspan></text>
                      </g>
                      <g class="st3">
                        <text class="st6" transform="translate(952.81 285.01)"><tspan x="0" y="0">4,8</tspan></text>
                      </g>
                    </g>
                  </g>
                  <g id="Variable1-svg3" data-name="Variable1-svg">
                    <g id="_x36__x2C_7-svg">
                      <g class="st3">
                        <text class="st4" transform="translate(952.81 262.56)"><tspan x="0" y="0">6,7</tspan></text>
                        <text class="st2" transform="translate(952.81 262.56)"><tspan x="0" y="0">6,7</tspan></text>
                      </g>
                      <g class="st3">
                        <text class="st5" transform="translate(952.81 262.56)"><tspan x="0" y="0">6,7</tspan></text>
                      </g>
                    </g>
                  </g>
                  <g id="Variable3-svg3" data-name="Variable3-svg">
                    <g id="_x31_3_x2C_1-svg">
                      <g class="st3">
                        <text class="st4" transform="translate(952.81 186.51)"><tspan x="0" y="0">13,1</tspan></text>
                        <text class="st2" transform="translate(952.81 186.51)"><tspan x="0" y="0">13,1</tspan></text>
                      </g>
                      <g class="st3">
                        <text class="st0" transform="translate(952.81 186.51)"><tspan x="0" y="0">13,1</tspan></text>
                      </g>
                    </g>
                  </g>
                </g>
              </g>
            </g>
            <g id="legend-color-svg_svelte-gkg0al-svg">
              <line class="st15" x1="227.71" y1="8.97" x2="241.71" y2="8.97"/>
            </g>
            <g class="st3">
              <text class="st1" transform="translate(250.71 11.56)"><tspan x="0" y="0">Variable1</tspan></text>
            </g>
            <g id="legend-color-svg_svelte-gkg0al-svg1" data-name="legend-color-svg_svelte-gkg0al-svg">
              <line class="st12" x1="321.3" y1="8.97" x2="335.3" y2="8.97"/>
            </g>
            <g class="st3">
              <text class="st1" transform="translate(344.3 11.56)"><tspan x="0" y="0">Variable2</tspan></text>
            </g>
            <g id="legend-color-svg_svelte-gkg0al-svg2" data-name="legend-color-svg_svelte-gkg0al-svg">
              <line class="st9" x1="414.9" y1="8.97" x2="428.9" y2="8.97"/>
            </g>
            <g class="st3">
              <text class="st1" transform="translate(437.9 11.56)"><tspan x="0" y="0">Variable3</tspan></text>
            </g>
          </g>
        </g>
      </g>
    </g>
  </g>
  <g class="st3">
    <g class="st3">
      <g class="st3">
        <text class="st4" transform="translate(58.32 358.4)"><tspan x="0" y="0">Tick</tspan></text>
      </g>
    </g>
  </g>
  <g>
    <line class="st7" x1="120.02" y1="223.11" x2="293.56" y2="223.11"/>
    <path d="M293.46,225.01c1,0,1.9-.8,1.9-1.9,0-1-.8-1.9-1.9-1.9s-1.9.8-1.9,1.9.8,1.9,1.9,1.9Z"/>
  </g>
  <g class="st3">
    <g class="st3">
      <g class="st3">
        <text class="st4" transform="translate(58.44 226.11)"><tspan x="0" y="0">Line</tspan></text>
      </g>
    </g>
  </g>
  <g>
    <line class="st7" x1="133.71" y1="42.36" x2="220.91" y2="42.36"/>
    <path d="M220.81,44.26c1,0,1.9-.8,1.9-1.9,0-1-.8-1.9-1.9-1.9s-1.9.8-1.9,1.9.8,1.9,1.9,1.9Z"/>
  </g>
  <g class="st3">
    <g class="st3">
      <g class="st3">
        <text class="st4" transform="translate(57.59 45.26)"><tspan x="0" y="0">Grid label</tspan></text>
      </g>
    </g>
  </g>
  <g>
    <line class="st7" x1="96.67" y1="356.52" x2="281.51" y2="356.52"/>
    <path d="M281.41,358.42c1,0,1.9-.8,1.9-1.9,0-1-.8-1.9-1.9-1.9s-1.9.8-1.9,1.9.8,1.9,1.9,1.9Z"/>
  </g>
  <g>
    <line class="st7" x1="1041.73" y1="160.38" x2="957.13" y2="160.38"/>
    <path d="M957.23,158.48c-1,0-1.9.8-1.9,1.9s.8,1.9,1.9,1.9,1.9-.8,1.9-1.9-.8-1.9-1.9-1.9Z"/>
  </g>
  <g class="st3">
    <g class="st3">
      <g class="st3">
        <text class="st4" transform="translate(1057.03 164.28)"><tspan x="0" y="0">Small Grid Line</tspan></text>
      </g>
    </g>
  </g>
  <g>
    <line class="st7" x1="1057.15" y1="258.88" x2="972.55" y2="258.88"/>
    <path d="M972.65,256.98c-1,0-1.9.8-1.9,1.9s.8,1.9,1.9,1.9,1.9-.8,1.9-1.9-.8-1.9-1.9-1.9Z"/>
  </g>
  <g class="st3">
    <g class="st3">
      <g class="st3">
        <text class="st4" transform="translate(1072.45 262.78)"><tspan x="0" y="0">Value</tspan></text>
      </g>
    </g>
  </g>
  <g>
    <line class="st7" x1="110.37" y1="9.58" x2="221.16" y2="9.58"/>
    <path d="M221.03,11.48c1.27,0,2.41-.8,2.41-1.9,0-1-1.02-1.9-2.41-1.9s-2.41.8-2.41,1.9,1.02,1.9,2.41,1.9Z"/>
  </g>
  <g class="st3">
    <g class="st3">
      <g class="st3">
        <text class="st4" transform="translate(58.32 12.48)"><tspan x="0" y="0">Legend</tspan></text>
      </g>
    </g>
  </g>
</svg>