<?xml version="1.0" encoding="UTF-8"?>
<svg id="u6a8939887c3b4f24aa5ce56fdf09754a" xmlns="http://www.w3.org/2000/svg" version="1.1" xmlns:xlinkg="http://www.w3.org/1999/xlink" viewBox="0 0 1264 449">
  <!-- Generator: Adobe Illustrator 30.0.0, SVG Export Plug-In . SVG Version: 2.1.1 Build 123)  -->
  <defs>
    <style>
      .st0 {
        stroke: #000;
        stroke-miterlimit: 10;
        stroke-width: .5px;
      }

      .st0, .st1, .st2 {
        fill: none;
      }

      .st3, .st4 {
        fill: #f56a00;
      }

      .st1 {
        stroke: #ccc;
      }

      .st5, .st6, .st7, .st8 {
        isolation: isolate;
      }

      .st6 {
        font-family: NotoSans, 'Noto Sans';
      }

      .st6, .st7, .st8 {
        font-size: 12px;
      }

      .st9, .st10 {
        fill: #728cd7;
      }

      .st10 {
        stroke: #728cd7;
      }

      .st10, .st4 {
        fill-opacity: .3;
        stroke-width: 2px;
      }

      .st7, .st8 {
        font-family: ArialMT, Arial;
      }

      .st4 {
        stroke: #f56a00;
      }

      .st2 {
        stroke: #fff;
        stroke-opacity: 0;
        stroke-width: 12px;
      }

      .st8 {
        fill: #999;
      }
    </style>
  </defs>
  <link xmlns="http://www.w3.org/1999/xhtml" rel="stylesheet" type="text/css" href="https://fonts.googleapis.com/css?family=Roboto:300,500"/>
  <link xmlns="http://www.w3.org/1999/xhtml" rel="stylesheet" type="text/css" href="https://viz.bfs.admin.ch/libs/viz-bfs/dynvis/dynvis-v0.9/dynvis.css"/>
  <link xmlns="http://www.w3.org/1999/xhtml" rel="stylesheet" type="text/css" href="https://viz.bfs.admin.ch/css/bund/vendors.css"/>
  <link xmlns="http://www.w3.org/1999/xhtml" rel="stylesheet" type="text/css" href="https://viz.bfs.admin.ch/css/bund/custom-icons.css"/>
  <link xmlns="http://www.w3.org/1999/xhtml" rel="stylesheet" type="text/css" href="https://viz.bfs.admin.ch/css/bund/fabricator.css"/>
  <g id="u41fec69a9086487d8c5e93eb6d43a7b5">
    <g>
      <g>
        <g>
          <polygon class="st1" points="632 233.34 639.07 236.27 642 243.34 639.07 250.41 632 253.34 624.93 250.41 622 243.34 624.93 236.27 632 233.34"/>
          <polygon class="st1" points="632 209.61 655.85 219.49 665.73 243.34 655.85 267.19 632 277.07 608.15 267.19 598.27 243.34 608.15 219.49 632 209.61"/>
          <polygon class="st1" points="632 185.89 672.63 202.72 689.45 243.34 672.63 283.97 632 300.79 591.37 283.97 574.55 243.34 591.37 202.72 632 185.89"/>
          <polygon class="st1" points="632 162.16 689.4 185.94 713.18 243.34 689.4 300.74 632 324.52 574.6 300.74 550.82 243.34 574.6 185.94 632 162.16"/>
          <polygon class="st1" points="632 138.43 706.18 169.16 736.91 243.34 706.18 317.52 632 348.25 557.82 317.52 527.09 243.34 557.82 169.16 632 138.43"/>
          <polygon class="st1" points="632 114.71 722.96 152.38 760.63 243.34 722.96 334.3 632 371.97 541.04 334.3 503.37 243.34 541.04 152.38 632 114.71"/>
        </g>
        <g>
          <line class="st1" x1="632" y1="233.34" x2="632" y2="114.71"/>
          <line class="st1" x1="639.07" y1="236.27" x2="722.96" y2="152.38"/>
          <line class="st1" x1="642" y1="243.34" x2="760.63" y2="243.34"/>
          <line class="st1" x1="639.07" y1="250.41" x2="722.96" y2="334.3"/>
          <line class="st1" x1="632" y1="253.34" x2="632" y2="371.97"/>
          <line class="st1" x1="624.93" y1="250.41" x2="541.04" y2="334.3"/>
          <line class="st1" x1="622" y1="243.34" x2="503.37" y2="243.34"/>
          <line class="st1" x1="624.93" y1="236.27" x2="541.04" y2="152.38"/>
        </g>
        <g>
          <text class="st8" transform="translate(594.19 101.38)"><tspan x="0" y="0">Digitale Tools</tspan></text>
          <text class="st8" transform="translate(730.03 141.98)"><tspan x="0" y="0">Fachliteratur</tspan></text>
          <text class="st8" transform="translate(770.63 248.01)"><tspan x="0" y="0">Relativ komplizierte Berechnungen</tspan></text>
          <text class="st8" transform="translate(730.03 354.04)"><tspan x="0" y="0">Schwere körperliche Arbeiten</tspan></text>
          <text class="st8" transform="translate(587.16 394.64)"><tspan x="0" y="0">Geschicklichkeit</tspan></text>
          <text class="st8" transform="translate(336.12 354.04)"><tspan x="0" y="0">Interne mündliche Kommunikation</tspan></text>
          <text class="st8" transform="translate(293.98 248.01)"><tspan x="0" y="0">Externe mündliche Kommunikation</tspan></text>
          <text class="st8" transform="translate(395.15 141.98)"><tspan x="0" y="0">Beratung und Unterricht</tspan></text>
        </g>
        <g>
          <polygon class="st10" points="632 152.67 677.66 197.68 689.45 243.34 675.98 287.32 632 300.79 576.27 299.07 565.06 243.34 584.66 196.01 632 152.67"/>
          <polygon class="st4" points="632 131.32 682.69 192.65 701.32 243.34 665.91 277.26 632 293.68 567.89 307.46 555.57 243.34 579.63 190.97 632 131.32"/>
        </g>
        <g>
          <circle class="st9" cx="632" cy="152.67" r="4"/>
          <circle class="st9" cx="677.66" cy="197.68" r="4"/>
          <circle class="st9" cx="689.45" cy="243.34" r="4"/>
          <circle class="st9" cx="675.98" cy="287.32" r="4"/>
          <circle class="st9" cx="632" cy="300.79" r="4"/>
          <circle class="st9" cx="576.27" cy="299.07" r="4"/>
          <circle class="st9" cx="565.06" cy="243.34" r="4"/>
          <circle class="st9" cx="584.66" cy="196.01" r="4"/>
          <circle class="st3" cx="632" cy="131.32" r="4"/>
          <circle class="st3" cx="682.69" cy="192.65" r="4"/>
          <circle class="st3" cx="701.32" cy="243.34" r="4"/>
          <circle class="st3" cx="665.91" cy="277.26" r="4"/>
          <circle class="st3" cx="632" cy="293.68" r="4"/>
          <circle class="st3" cx="567.89" cy="307.46" r="4"/>
          <circle class="st3" cx="555.57" cy="243.34" r="4"/>
          <circle class="st3" cx="579.63" cy="190.97" r="4"/>
        </g>
        <g>
          <polygon class="st2" points="632 152.67 677.66 197.68 689.45 243.34 675.98 287.32 632 300.79 576.27 299.07 565.06 243.34 584.66 196.01 632 152.67"/>
          <polygon class="st2" points="632 131.32 682.69 192.65 701.32 243.34 665.91 277.26 632 293.68 567.89 307.46 555.57 243.34 579.63 190.97 632 131.32"/>
        </g>
      </g>
      <g>
        <g>
          <circle class="st9" cx="288" cy="42.33" r="5"/>
          <g class="st5">
            <text class="st7" transform="translate(301 46.33)"><tspan x="0" y="0">Beschäftigte Erwerbsbevölkerung</tspan></text>
          </g>
        </g>
        <g>
          <circle class="st3" cx="512.68" cy="42.33" r="5"/>
          <g class="st5">
            <text class="st7" transform="translate(525.68 46.33)"><tspan x="0" y="0">Direktoren, leitende Angestellte und Geschäftsführer</tspan></text>
          </g>
        </g>
      </g>
    </g>
  </g>
  <g>
    <line class="st0" x1="133.1" y1="44.23" x2="270.21" y2="44.23"/>
    <path d="M270.11,46.13c1,0,1.9-.8,1.9-1.9,0-1-.8-1.9-1.9-1.9s-1.9.8-1.9,1.9.8,1.9,1.9,1.9Z"/>
  </g>
  <g class="st5">
    <g class="st5">
      <g class="st5">
        <g class="st5">
          <text class="st6" transform="translate(79.38 49.77)"><tspan x="0" y="0">Legend</tspan></text>
        </g>
      </g>
    </g>
  </g>
  <g>
    <line class="st0" x1="187" y1="242.23" x2="286.53" y2="242.23"/>
    <path d="M286.43,244.13c1,0,1.9-.8,1.9-1.9,0-1-.8-1.9-1.9-1.9s-1.9.8-1.9,1.9.8,1.9,1.9,1.9Z"/>
  </g>
  <g class="st5">
    <g class="st5">
      <g class="st5">
        <g class="st5">
          <text class="st6" transform="translate(80.55 246.35)"><tspan x="0" y="0">Dimension Label</tspan></text>
        </g>
      </g>
    </g>
  </g>
  <g>
    <line class="st0" x1="173.69" y1="201.68" x2="520.66" y2="201.68"/>
    <path d="M520.56,203.58c1,0,1.9-.8,1.9-1.9,0-1-.8-1.9-1.9-1.9s-1.9.8-1.9,1.9.8,1.9,1.9,1.9Z"/>
  </g>
  <g class="st5">
    <g class="st5">
      <g class="st5">
        <g class="st5">
          <text class="st6" transform="translate(80.55 205.58)"><tspan x="0" y="0">Small grid line</tspan></text>
        </g>
      </g>
    </g>
  </g>
  <g>
    <line class="st0" x1="120.36" y1="273.26" x2="572.75" y2="273.26"/>
    <path d="M572.65,275.16c1,0,1.9-.8,1.9-1.9,0-1-.8-1.9-1.9-1.9s-1.9.8-1.9,1.9.8,1.9,1.9,1.9Z"/>
  </g>
  <g class="st5">
    <g class="st5">
      <g class="st5">
        <g class="st5">
          <text class="st6" transform="translate(80.67 276.26)"><tspan x="0" y="0">Area</tspan></text>
        </g>
      </g>
    </g>
  </g>
</svg>