<?xml version="1.0" encoding="UTF-8"?>
<svg id="exportSvg" xmlns="http://www.w3.org/2000/svg" version="1.1" xmlns:xlink="http://www.w3.org/1999/xlink" viewBox="0 0 1203.42 463.44">
  <!-- Generator: Adobe Illustrator 30.0.0, SVG Export Plug-In . SVG Version: 2.1.1 Build 123)  -->
  <defs>
    <style>
      .st0 {
        stroke-miterlimit: 10;
      }

      .st0, .st1, .st2, .st3 {
        stroke-width: .5px;
      }

      .st0, .st4, .st5, .st6 {
        fill: none;
      }

      .st0, .st4, .st6 {
        stroke: #000;
      }

      .st1 {
        fill: #4f25d2;
      }

      .st1, .st2, .st3 {
        stroke: #fff;
        stroke-opacity: .7;
      }

      .st2 {
        fill: #728cd7;
      }

      .st4, .st7, .st8 {
        font-family: NotoSans-Bold, 'Noto Sans';
        font-weight: 700;
      }

      .st4, .st7, .st8, .st9, .st10, .st6, .st11 {
        isolation: isolate;
      }

      .st4, .st7, .st8, .st10, .st6, .st11 {
        font-size: 12px;
      }

      .st4, .st6 {
        stroke-linecap: round;
        stroke-linejoin: round;
      }

      .st3 {
        fill: #f56a00;
      }

      .st7, .st11 {
        fill: #fff;
      }

      .st12 {
        clip-path: url(#clippath-1);
      }

      .st10, .st6, .st11 {
        font-family: NotoSans, 'Noto Sans';
      }

      .st13 {
        clip-path: url(#clippath);
      }
    </style>
    <clipPath id="clippath">
      <rect class="st5" x="226.71" y="0" width="750" height="500"/>
    </clipPath>
    <clipPath id="clippath-1">
      <rect class="st5" x="226.71" y="0" width="750" height="452"/>
    </clipPath>
  </defs>
  <g class="st13">
    <g id="__svelte-dw-svg">
      <g id="container-svg_container-body-svg_datawrapper-m7OhS-k7lwvj-svg">
        <g id="container-svg_container-bodyTop-svg_datawrapper-m7OhS-lmtz6e-svg">
          <g id="container-svg_container-bodyCenter-svg_datawrapper-m7OhS-1a857wv-svg">
            <g id="chart-svg">
              <g class="st12">
                <g id="svelte-1gkz8fh-svg">
                  <g id="group-svg">
                    <path class="st2" d="M284.3,447.69c-56.96-175.3,38.98-363.59,214.28-420.55,126.14-40.98,264.57-3.39,352.65,95.76l-174.66,155.16c-36.72-41.34-100.01-45.09-141.35-8.36-29.75,26.42-41.03,67.96-28.73,105.8l-222.19,72.19Z"/>
                    <path class="st3" d="M851.23,122.9c56.09,63.14,86.16,145.19,84.14,229.62l-233.56-5.58c.61-25.33-8.41-49.95-25.24-68.89l174.66-155.16Z"/>
                    <path class="st1" d="M935.37,352.53c-.77,32.34-6.24,64.4-16.24,95.17l-222.19-72.19c3-9.23,4.64-18.85,4.87-28.55l233.56,5.58Z"/>
                  </g>
                </g>
              </g>
              <g id="Variable1-svg">
                <g class="st9">
                  <text class="st8" transform="translate(465.75 151.31)"><tspan x="0" y="0">Variable1</tspan></text>
                  <text class="st4" transform="translate(465.75 151.31)"><tspan x="0" y="0">Variable1</tspan></text>
                </g>
                <g class="st9">
                  <text class="st7" transform="translate(465.75 151.31)"><tspan x="0" y="0">Variable1</tspan></text>
                </g>
              </g>
              <g id="_x37_2_x2C_4-svg">
                <g class="st9">
                  <text class="st10" transform="translate(482.47 168.31)"><tspan x="0" y="0">72,4</tspan></text>
                  <text class="st6" transform="translate(482.47 168.31)"><tspan x="0" y="0">72,4</tspan></text>
                </g>
                <g class="st9">
                  <text class="st11" transform="translate(482.47 168.31)"><tspan x="0" y="0">72,4</tspan></text>
                </g>
              </g>
              <g id="Variable2-svg">
                <g class="st9">
                  <text class="st8" transform="translate(777.27 264.92)"><tspan x="0" y="0">Variable2</tspan></text>
                  <text class="st4" transform="translate(777.27 264.92)"><tspan x="0" y="0">Variable2</tspan></text>
                </g>
                <g class="st9">
                  <text class="st7" transform="translate(777.27 264.92)"><tspan x="0" y="0">Variable2</tspan></text>
                </g>
              </g>
              <g id="_x31_9_x2C_9-svg">
                <g class="st9">
                  <text class="st10" transform="translate(793.98 281.92)"><tspan x="0" y="0">19,9</tspan></text>
                  <text class="st6" transform="translate(793.98 281.92)"><tspan x="0" y="0">19,9</tspan></text>
                </g>
                <g class="st9">
                  <text class="st11" transform="translate(793.98 281.92)"><tspan x="0" y="0">19,9</tspan></text>
                </g>
              </g>
              <g id="Variable3-svg">
                <g class="st9">
                  <text class="st8" transform="translate(787.42 376.03)"><tspan x="0" y="0">Variable3</tspan></text>
                  <text class="st4" transform="translate(787.42 376.03)"><tspan x="0" y="0">Variable3</tspan></text>
                </g>
                <g class="st9">
                  <text class="st7" transform="translate(787.42 376.03)"><tspan x="0" y="0">Variable3</tspan></text>
                </g>
              </g>
              <g id="_x37__x2C_7-svg">
                <g class="st9">
                  <text class="st10" transform="translate(807.44 393.03)"><tspan x="0" y="0">7,7</tspan></text>
                  <text class="st6" transform="translate(807.44 393.03)"><tspan x="0" y="0">7,7</tspan></text>
                </g>
                <g class="st9">
                  <text class="st11" transform="translate(807.44 393.03)"><tspan x="0" y="0">7,7</tspan></text>
                </g>
              </g>
            </g>
          </g>
        </g>
      </g>
    </g>
  </g>
  <g>
    <line class="st0" x1="101.86" y1="150.72" x2="461.27" y2="150.72"/>
    <path d="M461.17,152.62c1,0,1.9-.8,1.9-1.9,0-1-.8-1.9-1.9-1.9s-1.9.8-1.9,1.9.8,1.9,1.9,1.9Z"/>
  </g>
  <g class="st9">
    <g class="st9">
      <g class="st9">
        <g class="st9">
          <text class="st10" transform="translate(35.39 153.84)"><tspan x="0" y="0">Part Label</tspan></text>
        </g>
      </g>
    </g>
  </g>
  <g>
    <line class="st0" x1="68.59" y1="354.9" x2="449.54" y2="354.9"/>
    <path d="M449.44,356.8c1,0,1.9-.8,1.9-1.9,0-1-.8-1.9-1.9-1.9s-1.9.8-1.9,1.9.8,1.9,1.9,1.9Z"/>
  </g>
  <g class="st9">
    <g class="st9">
      <g class="st9">
        <g class="st9">
          <text class="st10" transform="translate(35.38 356.8)"><tspan x="0" y="0">Part</tspan></text>
        </g>
      </g>
    </g>
  </g>
</svg>