<?xml version="1.0" encoding="UTF-8"?>
<svg id="exportSvg" xmlns="http://www.w3.org/2000/svg" version="1.1" viewBox="0 0 1203.42 367.89">
  <!-- Generator: Adobe Illustrator 30.0.0, SVG Export Plug-In . SVG Version: 2.1.1 Build 123)  -->
  <defs>
    <style>
      .st0, .st1, .st2, .st3, .st4, .st5, .st6, .st7, .st8, .st9 {
        fill: none;
      }

      .st0, .st10, .st2, .st3, .st4, .st11, .st6, .st7, .st12, .st9 {
        stroke-width: 2px;
      }

      .st0, .st2, .st4, .st6, .st7, .st9 {
        stroke-linecap: round;
      }

      .st0, .st4, .st11 {
        stroke: #2b408c;
      }

      .st1 {
        stroke: #000;
        stroke-miterlimit: 10;
        stroke-width: .5px;
      }

      .st10, .st2, .st6 {
        stroke: #c2cef2;
      }

      .st10, .st11, .st12 {
        fill: #fff;
        stroke-miterlimit: 16;
      }

      .st13 {
        fill: #757575;
      }

      .st13, .st3, .st14, .st15, .st16 {
        isolation: isolate;
      }

      .st13, .st3, .st15, .st16 {
        font-family: NotoSans, 'Noto Sans';
        font-size: 12px;
      }

      .st3 {
        stroke: #fff;
      }

      .st4, .st6, .st7 {
        stroke-linejoin: round;
      }

      .st5, .st8 {
        stroke: #757575;
      }

      .st7, .st12, .st9 {
        stroke: #728cd7;
      }

      .st16 {
        fill: #333;
      }

      .st8 {
        stroke-linecap: square;
      }
    </style>
  </defs>
  <g id="__svelte-dw-svg">
    <g id="container-svg_container-body-svg_datawrapper-vppYB-k7lwvj-svg">
      <g id="container-svg_container-bodyTop-svg_datawrapper-vppYB-lmtz6e-svg">
        <g id="container-svg_container-bodyCenter-svg_datawrapper-vppYB-1a857wv-svg">
          <g id="chart-svg">
            <g id="svg-main-svg">
              <g id="group-svg">
                <g id="x-grid-svg">
                  <g id="x-grid-lines-svg_grid-x-svg_datawrapper-vppYB-1e0z195-svg">
                    <line class="st5" x1="267.91" y1="340.45" x2="267.91" y2="33.36"/>
                    <line class="st5" x1="601.56" y1="340.45" x2="601.56" y2="33.36"/>
                    <line class="st5" x1="935.31" y1="340.45" x2="935.31" y2="33.36"/>
                  </g>
                </g>
                <g id="lines-svg">
                  <g id="Variable1-svg">
                    <g id="Variable1-svg1" data-name="Variable1-svg">
                      <path id="Variable1" class="st6" d="M267.91,294.4l333.65-1.24,333.75-11.47"/>
                    </g>
                    <g id="Variable1-svg2" data-name="Variable1-svg">
                      <path class="st10" d="M271.91,294.4c0,2.21-1.79,4-4,4s-4-1.79-4-4,1.79-4,4-4,4,1.79,4,4"/>
                      <path class="st10" d="M605.56,293.15c0,2.21-1.79,4-4,4s-4-1.79-4-4,1.79-4,4-4,4,1.79,4,4"/>
                      <path class="st10" d="M939.31,281.68c0,2.21-1.79,4-4,4s-4-1.79-4-4,1.79-4,4-4,4,1.79,4,4"/>
                    </g>
                  </g>
                  <g id="Variable2-svg">
                    <g id="Variable2-svg1" data-name="Variable2-svg">
                      <path id="Variable2" class="st7" d="M267.91,201.93l333.65-31.88,333.75-29.52"/>
                    </g>
                    <g id="Variable2-svg2" data-name="Variable2-svg">
                      <path class="st12" d="M271.91,201.93c0,2.21-1.79,4-4,4s-4-1.79-4-4,1.79-4,4-4,4,1.79,4,4"/>
                      <path class="st12" d="M605.56,170.05c0,2.21-1.79,4-4,4s-4-1.79-4-4,1.79-4,4-4,4,1.79,4,4"/>
                      <path class="st12" d="M939.31,140.53c0,2.21-1.79,4-4,4s-4-1.79-4-4,1.79-4,4-4,4,1.79,4,4"/>
                    </g>
                  </g>
                  <g id="Variable3-svg">
                    <g id="Variable3-svg1" data-name="Variable3-svg">
                      <path id="Variable3" class="st4" d="M267.91,147.78l333.65-58.2,333.75-56.22"/>
                    </g>
                    <g id="Variable3-svg2" data-name="Variable3-svg">
                      <path class="st11" d="M271.91,147.78c0,2.21-1.79,4-4,4s-4-1.79-4-4,1.79-4,4-4,4,1.79,4,4"/>
                      <path class="st11" d="M605.56,89.58c0,2.21-1.79,4-4,4s-4-1.79-4-4,1.79-4,4-4,4,1.79,4,4"/>
                      <path class="st11" d="M939.31,33.36c0,2.21-1.79,4-4,4s-4-1.79-4-4,1.79-4,4-4,4,1.79,4,4"/>
                    </g>
                  </g>
                </g>
                <g id="x-grid-svg1" data-name="x-grid-svg">
                  <g id="x-tick-labels-svg_date-axis-svg_grid-x-svg_datawrapper-vppYB-1hw4nop-svg_svelte-qac4x9-svg">
                    <g class="st14">
                      <text class="st13" transform="translate(254.69 357.45)"><tspan x="0" y="0">2002</tspan></text>
                    </g>
                    <g class="st14">
                      <text class="st13" transform="translate(588.35 357.45)"><tspan x="0" y="0">2012</tspan></text>
                    </g>
                    <g class="st14">
                      <text class="st13" transform="translate(922.09 357.45)"><tspan x="0" y="0">2022</tspan></text>
                    </g>
                  </g>
                </g>
                <g id="y-grid-svg1" data-name="y-grid-svg">
                  <g id="y-base-lines-svg_grid-y-svg_datawrapper-vppYB-c64oop-svg">
                    <line class="st8" x1="945.31" y1="340.45" x2="257.91" y2="340.45"/>
                  </g>
                </g>
                <g id="value-labels-svg">
                  <g id="Variable1-svg3" data-name="Variable1-svg">
                    <g id="_x36__x2C_39-svg">
                      <g class="st14">
                        <text class="st15" transform="translate(590.15 283.15)"><tspan x="0" y="0">6,39</tspan></text>
                        <text class="st3" transform="translate(590.15 283.15)"><tspan x="0" y="0">6,39</tspan></text>
                      </g>
                      <g class="st14">
                        <text class="st16" transform="translate(590.15 283.15)"><tspan x="0" y="0">6,39</tspan></text>
                      </g>
                    </g>
                  </g>
                  <g id="Variable2-svg3" data-name="Variable2-svg">
                    <g id="_x32_3_x2C_01-svg">
                      <g class="st14">
                        <text class="st15" transform="translate(586.85 190.85)"><tspan x="0" y="0">23,01</tspan></text>
                        <text class="st3" transform="translate(586.85 190.85)"><tspan x="0" y="0">23,01</tspan></text>
                      </g>
                      <g class="st14">
                        <text class="st16" transform="translate(586.85 190.85)"><tspan x="0" y="0">23,01</tspan></text>
                      </g>
                    </g>
                  </g>
                  <g id="Variable3-svg3" data-name="Variable3-svg">
                    <g id="_x33_3_x2C_87-svg">
                      <g class="st14">
                        <text class="st15" transform="translate(586.85 79.58)"><tspan x="0" y="0">33,87</tspan></text>
                        <text class="st3" transform="translate(586.85 79.58)"><tspan x="0" y="0">33,87</tspan></text>
                      </g>
                      <g class="st14">
                        <text class="st16" transform="translate(586.85 79.58)"><tspan x="0" y="0">33,87</tspan></text>
                      </g>
                    </g>
                  </g>
                </g>
                <g id="inner-value-labels-svg">
                  <g id="Variable1-svg4" data-name="Variable1-svg">
                    <g id="_x36__x2C_22-svg">
                      <g class="st14">
                        <text class="st15" transform="translate(235.08 298)"><tspan x="0" y="0">6,22</tspan></text>
                        <text class="st3" transform="translate(235.08 298)"><tspan x="0" y="0">6,22</tspan></text>
                      </g>
                      <g class="st14">
                        <text class="st16" transform="translate(235.08 298)"><tspan x="0" y="0">6,22</tspan></text>
                      </g>
                    </g>
                    <g id="_x37__x2C_94-svg">
                      <g class="st14">
                        <text class="st15" transform="translate(945.31 285.28)"><tspan x="0" y="0">7,94</tspan></text>
                        <text class="st3" transform="translate(945.31 285.28)"><tspan x="0" y="0">7,94</tspan></text>
                      </g>
                      <g class="st14">
                        <text class="st16" transform="translate(945.31 285.28)"><tspan x="0" y="0">7,94</tspan></text>
                      </g>
                    </g>
                  </g>
                  <g id="Variable2-svg4" data-name="Variable2-svg">
                    <g id="_x31_8_x2C_7-svg">
                      <g class="st14">
                        <text class="st15" transform="translate(235.08 205.53)"><tspan x="0" y="0">18,7</tspan></text>
                        <text class="st3" transform="translate(235.08 205.53)"><tspan x="0" y="0">18,7</tspan></text>
                      </g>
                      <g class="st14">
                        <text class="st16" transform="translate(235.08 205.53)"><tspan x="0" y="0">18,7</tspan></text>
                      </g>
                    </g>
                    <g id="_x32_6_x2C_99-svg">
                      <g class="st14">
                        <text class="st15" transform="translate(945.31 144.13)"><tspan x="0" y="0">26,99</tspan></text>
                        <text class="st3" transform="translate(945.31 144.13)"><tspan x="0" y="0">26,99</tspan></text>
                      </g>
                      <g class="st14">
                        <text class="st16" transform="translate(945.31 144.13)"><tspan x="0" y="0">26,99</tspan></text>
                      </g>
                    </g>
                  </g>
                  <g id="Variable3-svg4" data-name="Variable3-svg">
                    <g id="_x32_6_x2C_01-svg">
                      <g class="st14">
                        <text class="st15" transform="translate(228.47 151.38)"><tspan x="0" y="0">26,01</tspan></text>
                        <text class="st3" transform="translate(228.47 151.38)"><tspan x="0" y="0">26,01</tspan></text>
                      </g>
                      <g class="st14">
                        <text class="st16" transform="translate(228.47 151.38)"><tspan x="0" y="0">26,01</tspan></text>
                      </g>
                    </g>
                    <g id="_x34_1_x2C_46-svg">
                      <g class="st14">
                        <text class="st15" transform="translate(945.31 36.96)"><tspan x="0" y="0">41,46</tspan></text>
                        <text class="st3" transform="translate(945.31 36.96)"><tspan x="0" y="0">41,46</tspan></text>
                      </g>
                      <g class="st14">
                        <text class="st16" transform="translate(945.31 36.96)"><tspan x="0" y="0">41,46</tspan></text>
                      </g>
                    </g>
                  </g>
                </g>
              </g>
            </g>
            <g id="legend-color-svg_svelte-gkg0al-svg">
              <line class="st2" x1="227.71" y1="8.97" x2="241.71" y2="8.97"/>
            </g>
            <g class="st14">
              <text class="st13" transform="translate(250.71 11.56)"><tspan x="0" y="0">Variable1</tspan></text>
            </g>
            <g id="legend-color-svg_svelte-gkg0al-svg1" data-name="legend-color-svg_svelte-gkg0al-svg">
              <line class="st9" x1="321.3" y1="8.97" x2="335.3" y2="8.97"/>
            </g>
            <g class="st14">
              <text class="st13" transform="translate(344.3 11.56)"><tspan x="0" y="0">Variable2</tspan></text>
            </g>
            <g id="legend-color-svg_svelte-gkg0al-svg2" data-name="legend-color-svg_svelte-gkg0al-svg">
              <line class="st0" x1="414.9" y1="8.97" x2="428.9" y2="8.97"/>
            </g>
            <g class="st14">
              <text class="st13" transform="translate(437.9 11.56)"><tspan x="0" y="0">Variable3</tspan></text>
            </g>
          </g>
        </g>
      </g>
    </g>
  </g>
  <g>
    <line class="st1" x1="80.81" y1="8.87" x2="217.92" y2="8.87"/>
    <path d="M217.82,10.77c1,0,1.9-.8,1.9-1.9,0-1-.8-1.9-1.9-1.9s-1.9.8-1.9,1.9.8,1.9,1.9,1.9Z"/>
  </g>
  <g class="st14">
    <g class="st14">
      <g class="st14">
        <g class="st14">
          <text class="st15" transform="translate(27.09 14.41)"><tspan x="0" y="0">Legend</tspan></text>
        </g>
      </g>
    </g>
  </g>
  <g>
    <line class="st1" x1="72.71" y1="200.82" x2="227.36" y2="200.82"/>
    <path d="M227.26,202.72c1,0,1.9-.8,1.9-1.9,0-1-.8-1.9-1.9-1.9s-1.9.8-1.9,1.9.8,1.9,1.9,1.9Z"/>
  </g>
  <g class="st14">
    <g class="st14">
      <g class="st14">
        <g class="st14">
          <text class="st15" transform="translate(28.38 204.94)"><tspan x="0" y="0">Value</tspan></text>
        </g>
      </g>
    </g>
  </g>
  <g>
    <line class="st1" x1="136.71" y1="70.88" x2="266.64" y2="70.88"/>
    <path d="M266.54,72.78c1,0,1.9-.8,1.9-1.9,0-1-.8-1.9-1.9-1.9s-1.9.8-1.9,1.9.8,1.9,1.9,1.9Z"/>
  </g>
  <g class="st14">
    <g class="st14">
      <g class="st14">
        <g class="st14">
          <text class="st15" transform="translate(28.38 73.78)"><tspan x="0" y="0">Small Grid Line</tspan></text>
        </g>
      </g>
    </g>
  </g>
  <g>
    <line class="st1" x1="62.58" y1="116.65" x2="443.53" y2="116.65"/>
    <path d="M443.43,118.55c1,0,1.9-.8,1.9-1.9,0-1-.8-1.9-1.9-1.9s-1.9.8-1.9,1.9.8,1.9,1.9,1.9Z"/>
  </g>
  <g class="st14">
    <g class="st14">
      <g class="st14">
        <g class="st14">
          <text class="st15" transform="translate(29.37 118.55)"><tspan x="0" y="0">Line</tspan></text>
        </g>
      </g>
    </g>
  </g>
</svg>