<?xml version="1.0" encoding="UTF-8"?>
<svg id="exportSvg" xmlns="http://www.w3.org/2000/svg" version="1.1" viewBox="0 0 1203.42 363.89">
  <!-- Generator: Adobe Illustrator 30.0.0, SVG Export Plug-In . SVG Version: 2.1.1 Build 123)  -->
  <defs>
    <style>
      .st0 {
        stroke: #000;
        stroke-miterlimit: 10;
        stroke-width: .5px;
      }

      .st0, .st1, .st2, .st3 {
        fill: none;
      }

      .st4, .st5, .st6, .st7, .st8, .st9 {
        isolation: isolate;
      }

      .st4, .st5, .st9 {
        opacity: .7;
      }

      .st4, .st10 {
        fill: #728cd7;
      }

      .st5, .st11 {
        fill: #f56a00;
      }

      .st11, .st10, .st12 {
        fill-opacity: .7;
      }

      .st6 {
        fill: #757575;
      }

      .st6, .st8 {
        font-family: NotoSans, 'Noto Sans';
        font-size: 12px;
      }

      .st1, .st3 {
        stroke: #757575;
      }

      .st2 {
        stroke: #fff;
      }

      .st9, .st12 {
        fill: #4f25d2;
      }

      .st3 {
        stroke-linecap: square;
      }
    </style>
  </defs>
  <g id="__svelte-dw-svg">
    <g id="container-svg_container-body-svg_datawrapper-kFapB-k7lwvj-svg">
      <g id="container-svg_container-bodyTop-svg_datawrapper-kFapB-lmtz6e-svg">
        <g id="container-svg_container-bodyCenter-svg_datawrapper-kFapB-1a857wv-svg">
          <g id="chart-svg">
            <g id="svg-main-svg">
              <g id="group-svg">
                <g id="y-grid-svg">
                  <g id="y-grid-lines-svg_grid-y-svg_datawrapper-kFapB-1e0z195-svg">
                    <line class="st1" x1="246.57" y1="42.36" x2="972.85" y2="42.36"/>
                    <line class="st1" x1="246.57" y1="100.81" x2="972.85" y2="100.81"/>
                    <line class="st1" x1="246.57" y1="159.27" x2="972.85" y2="159.27"/>
                    <line class="st1" x1="246.57" y1="217.72" x2="972.85" y2="217.72"/>
                    <line class="st1" x1="246.57" y1="276.18" x2="972.85" y2="276.18"/>
                  </g>
                </g>
                <g id="areas-svg">
                  <path id="Variable1" class="st5" d="M256.57,334.63h706.28v-146.43l-117.7,25.88-117.7,12.42-117.7,22.5-117.77,14.08-117.7-2.67-117.7,13.84v60.37Z"/>
                  <path id="Variable2" class="st4" d="M256.57,274.27l117.7-13.84,117.7,2.67,117.77-14.08,117.7-22.5,117.7-12.42,117.7-25.88v-93.64l-117.7,42.47-117.7,23.42-117.7,35.64-117.77,17.44-117.7,6.59-117.7,22.87v31.29Z"/>
                  <path id="Variable3" class="st9" d="M256.57,242.98l117.7-22.87,117.7-6.59,117.77-17.44,117.7-35.64,117.7-23.42,117.7-42.47v-57.69l-117.7,53.21-117.7,25.95-117.7,48-117.77,19.49-117.7,7.48-117.7,26.71v25.29Z"/>
                </g>
                <g id="area-separator-lines-svg">
                  <path id="Variable11" data-name="Variable1" class="st2" d="M256.57,274.27l117.7-13.84,117.7,2.67,117.77-14.08,117.7-22.5,117.7-12.42,117.7-25.88"/>
                  <path id="Variable21" data-name="Variable2" class="st2" d="M256.57,242.98l117.7-22.87,117.7-6.59,117.77-17.44,117.7-35.64,117.7-23.42,117.7-42.47"/>
                </g>
                <g id="x-grid-svg1" data-name="x-grid-svg">
                  <g id="x-tick-labels-svg_date-axis-svg_grid-x-svg_datawrapper-kFapB-1hw4nop-svg_svelte-qac4x9-svg">
                    <g class="st7">
                      <text class="st6" transform="translate(243.36 356.63)"><tspan x="0" y="0">1990</tspan></text>
                    </g>
                    <g class="st7">
                      <text class="st6" transform="translate(290.41 356.63)"><tspan x="0" y="0">1992</tspan></text>
                    </g>
                    <g class="st7">
                      <text class="st6" transform="translate(337.53 356.63)"><tspan x="0" y="0">1994</tspan></text>
                    </g>
                    <g class="st7">
                      <text class="st6" transform="translate(384.59 356.63)"><tspan x="0" y="0">1996</tspan></text>
                    </g>
                    <g class="st7">
                      <text class="st6" transform="translate(431.7 356.63)"><tspan x="0" y="0">1998</tspan></text>
                    </g>
                    <g class="st7">
                      <text class="st6" transform="translate(478.76 356.63)"><tspan x="0" y="0">2000</tspan></text>
                    </g>
                    <g class="st7">
                      <text class="st6" transform="translate(525.88 356.63)"><tspan x="0" y="0">2002</tspan></text>
                    </g>
                    <g class="st7">
                      <text class="st6" transform="translate(572.93 356.63)"><tspan x="0" y="0">2004</tspan></text>
                    </g>
                    <g class="st7">
                      <text class="st6" transform="translate(620.05 356.63)"><tspan x="0" y="0">2006</tspan></text>
                    </g>
                    <g class="st7">
                      <text class="st6" transform="translate(667.11 356.63)"><tspan x="0" y="0">2008</tspan></text>
                    </g>
                    <g class="st7">
                      <text class="st6" transform="translate(714.23 356.63)"><tspan x="0" y="0">2010</tspan></text>
                    </g>
                    <g class="st7">
                      <text class="st6" transform="translate(761.28 356.63)"><tspan x="0" y="0">2012</tspan></text>
                    </g>
                    <g class="st7">
                      <text class="st6" transform="translate(808.4 356.63)"><tspan x="0" y="0">2014</tspan></text>
                    </g>
                    <g class="st7">
                      <text class="st6" transform="translate(855.46 356.63)"><tspan x="0" y="0">2016</tspan></text>
                    </g>
                    <g class="st7">
                      <text class="st6" transform="translate(902.58 356.63)"><tspan x="0" y="0">2018</tspan></text>
                    </g>
                    <g class="st7">
                      <text class="st6" transform="translate(949.63 356.63)"><tspan x="0" y="0">2020</tspan></text>
                    </g>
                  </g>
                  <g id="x-tick-lines-svg_grid-x-svg_datawrapper-kFapB-jo7dkp-svg">
                    <line class="st1" x1="256.57" y1="339.63" x2="256.57" y2="334.63"/>
                    <line class="st1" x1="303.63" y1="339.63" x2="303.63" y2="334.63"/>
                    <line class="st1" x1="350.75" y1="339.63" x2="350.75" y2="334.63"/>
                    <line class="st1" x1="397.8" y1="339.63" x2="397.8" y2="334.63"/>
                    <line class="st1" x1="444.92" y1="339.63" x2="444.92" y2="334.63"/>
                    <line class="st1" x1="491.98" y1="339.63" x2="491.98" y2="334.63"/>
                    <line class="st1" x1="539.1" y1="339.63" x2="539.1" y2="334.63"/>
                    <line class="st1" x1="586.15" y1="339.63" x2="586.15" y2="334.63"/>
                    <line class="st1" x1="633.27" y1="339.63" x2="633.27" y2="334.63"/>
                    <line class="st1" x1="680.33" y1="339.63" x2="680.33" y2="334.63"/>
                    <line class="st1" x1="727.45" y1="339.63" x2="727.45" y2="334.63"/>
                    <line class="st1" x1="774.5" y1="339.63" x2="774.5" y2="334.63"/>
                    <line class="st1" x1="821.62" y1="339.63" x2="821.62" y2="334.63"/>
                    <line class="st1" x1="868.68" y1="339.63" x2="868.68" y2="334.63"/>
                    <line class="st1" x1="915.8" y1="339.63" x2="915.8" y2="334.63"/>
                    <line class="st1" x1="962.85" y1="339.63" x2="962.85" y2="334.63"/>
                  </g>
                </g>
                <g id="y-grid-svg1" data-name="y-grid-svg">
                  <g id="y-tick-labels-svg_number-axis-svg_grid-y-svg_datawrapper-kFapB-15wn2db-svg">
                    <g class="st7">
                      <text class="st6" transform="translate(234.96 338.63)"><tspan x="0" y="0">0</tspan></text>
                    </g>
                    <g class="st7">
                      <text class="st6" transform="translate(228.36 280.18)"><tspan x="0" y="0">10</tspan></text>
                    </g>
                    <g class="st7">
                      <text class="st6" transform="translate(228.36 221.72)"><tspan x="0" y="0">20</tspan></text>
                    </g>
                    <g class="st7">
                      <text class="st6" transform="translate(228.36 163.27)"><tspan x="0" y="0">30</tspan></text>
                    </g>
                    <g class="st7">
                      <text class="st6" transform="translate(228.36 104.81)"><tspan x="0" y="0">40</tspan></text>
                    </g>
                    <g class="st7">
                      <text class="st6" transform="translate(228.36 46.36)"><tspan x="0" y="0">50</tspan></text>
                    </g>
                  </g>
                  <g id="y-base-lines-svg_grid-y-svg_datawrapper-kFapB-c64oop-svg">
                    <line class="st3" x1="972.85" y1="334.63" x2="246.57" y2="334.63"/>
                  </g>
                </g>
              </g>
            </g>
            <rect class="st12" x="226.71" y="4.97" width="8" height="8"/>
            <g class="st7">
              <text class="st6" transform="translate(242.71 11.56)"><tspan x="0" y="0">Variable3</tspan></text>
            </g>
            <rect class="st10" x="312.3" y="4.97" width="8" height="8"/>
            <g class="st7">
              <text class="st6" transform="translate(328.3 11.56)"><tspan x="0" y="0">Variable2</tspan></text>
            </g>
            <rect class="st11" x="397.9" y="4.97" width="8" height="8"/>
            <g class="st7">
              <text class="st6" transform="translate(413.9 11.56)"><tspan x="0" y="0">Variable1</tspan></text>
            </g>
          </g>
        </g>
      </g>
    </g>
  </g>
  <g>
    <line class="st0" x1="134.89" y1="10.36" x2="219.39" y2="10.36"/>
    <path d="M219.29,12.26c1,0,1.9-.8,1.9-1.9,0-1-.8-1.9-1.9-1.9s-1.9.8-1.9,1.9.8,1.9,1.9,1.9Z"/>
  </g>
  <g class="st7">
    <g class="st7">
      <text class="st8" transform="translate(86.49 14.66)"><tspan x="0" y="0">Legend</tspan></text>
    </g>
  </g>
  <g>
    <line class="st0" x1="149.49" y1="99.61" x2="220.84" y2="99.61"/>
    <path d="M220.75,101.51c.84,0,1.6-.8,1.6-1.9,0-1-.68-1.9-1.6-1.9s-1.6.8-1.6,1.9.68,1.9,1.6,1.9Z"/>
  </g>
  <g class="st7">
    <g class="st7">
      <text class="st8" transform="translate(87.66 103.91)"><tspan x="0" y="0">Axis Label</tspan></text>
    </g>
  </g>
  <g>
    <line class="st0" x1="122.65" y1="257.12" x2="268.96" y2="257.12"/>
    <path d="M268.86,259.02c1,0,1.9-.8,1.9-1.9,0-1-.8-1.9-1.9-1.9s-1.9.8-1.9,1.9.8,1.9,1.9,1.9Z"/>
  </g>
  <g class="st7">
    <g class="st7">
      <text class="st8" transform="translate(87.66 260.3)"><tspan x="0" y="0">Area</tspan></text>
    </g>
  </g>
  <g>
    <polyline class="st0" points="122.65 312.89 303.58 313.85 303.58 344.7"/>
    <path d="M303.58,346.6c1,0,1.9-.8,1.9-1.9,0-1-.8-1.9-1.9-1.9s-1.9.8-1.9,1.9.8,1.9,1.9,1.9Z"/>
  </g>
  <g class="st7">
    <g class="st7">
      <text class="st8" transform="translate(87.66 313.26)"><tspan x="0" y="0">Ticks</tspan></text>
    </g>
  </g>
  <g>
    <line class="st0" x1="1059.25" y1="158.27" x2="974.65" y2="158.27"/>
    <path d="M974.75,156.37c-1,0-1.9.8-1.9,1.9s.8,1.9,1.9,1.9,1.9-.8,1.9-1.9-.8-1.9-1.9-1.9Z"/>
  </g>
  <g class="st7">
    <g class="st7">
      <text class="st8" transform="translate(1074.55 162.17)"><tspan x="0" y="0">Small Grid Line</tspan></text>
    </g>
  </g>
</svg>